<ttFont>
<head>
    <!-- Most of this table will be recalculated by the compiler -->
    <tableVersion value="1.0"/>
    <fontRevision value="1.00299"/>
    <checkSumAdjustment value="0x33325301"/>
    <magicNumber value="0x5f0f3cf5"/>
    <flags value="00000000 00000111"/>
    <unitsPerEm value="1000"/>
    <created value="Mon Jan 13 10:27:34 2014"/>
    <modified value="Mon Sep  3 11:56:19 2018"/>
    <xMin value="-47"/>
    <yMin value="-179"/>
    <xMax value="801"/>
    <yMax value="875"/>
    <macStyle value="00000000 00000000"/>
    <lowestRecPPEM value="7"/>
    <fontDirectionHint value="2"/>
    <indexToLocFormat value="0"/>
    <glyphDataFormat value="0"/>
  </head>
    <TTGlyph name=".notdef" xMin="50" yMin="0" xMax="498" yMax="700">
      <contour>
        <pt x="498" y="700" on="1"/>
        <pt x="498" y="0" on="1"/>
        <pt x="50" y="0" on="1"/>
        <pt x="50" y="700" on="1"/>
      </contour>
      <contour>
        <pt x="125" y="63" on="1"/>
        <pt x="143" y="63" on="1"/>
        <pt x="275" y="344" on="1"/>
        <pt x="407" y="63" on="1"/>
        <pt x="426" y="63" on="1"/>
        <pt x="287" y="361" on="1"/>
        <pt x="416" y="635" on="1"/>
        <pt x="399" y="635" on="1"/>
        <pt x="276" y="376" on="1"/>
        <pt x="153" y="635" on="1"/>
        <pt x="135" y="635" on="1"/>
        <pt x="265" y="361" on="1"/>
      </contour>
    </TTGlyph>
    <TTGlyph name="A" xMin="37" yMin="0" xMax="410" yMax="701">
      <contour>
        <pt x="57" y="0" on="1"/>
        <pt x="37" y="0" on="1"/>
        <pt x="206" y="701" on="1"/>
        <pt x="237" y="701" on="1"/>
        <pt x="410" y="0" on="1"/>
        <pt x="388" y="0" on="1"/>
        <pt x="347" y="165" on="1"/>
        <pt x="98" y="165" on="1"/>
      </contour>
      <contour>
        <pt x="343" y="185" on="1"/>
        <pt x="221" y="675" on="1"/>
        <pt x="102" y="185" on="1"/>
      </contour>
    </TTGlyph>
    <TTGlyph name="AE" xMin="36" yMin="0" xMax="554" yMax="700">
      <contour>
        <pt x="520" y="345" on="1"/>
        <pt x="344" y="345" on="1"/>
        <pt x="344" y="21" on="1"/>
        <pt x="554" y="21" on="1"/>
        <pt x="554" y="0" on="1"/>
        <pt x="322" y="0" on="1"/>
        <pt x="322" y="168" on="1"/>
        <pt x="123" y="168" on="1"/>
        <pt x="57" y="0" on="1"/>
        <pt x="36" y="0" on="1"/>
        <pt x="308" y="700" on="1"/>
        <pt x="554" y="700" on="1"/>
        <pt x="554" y="679" on="1"/>
        <pt x="344" y="679" on="1"/>
        <pt x="344" y="365" on="1"/>
        <pt x="520" y="365" on="1"/>
      </contour>
      <contour>
        <pt x="322" y="189" on="1"/>
        <pt x="322" y="674" on="1"/>
        <pt x="130" y="189" on="1"/>
      </contour>
    </TTGlyph>
    <TTGlyph name="AEacute" xMin="36" yMin="0" xMax="554" yMax="837">
      <contour>
        <pt x="336" y="748" on="1"/>
        <pt x="316" y="748" on="1"/>
        <pt x="388" y="837" on="1"/>
        <pt x="413" y="837" on="1"/>
      </contour>
      <contour>
        <pt x="520" y="345" on="1"/>
        <pt x="344" y="345" on="1"/>
        <pt x="344" y="21" on="1"/>
        <pt x="554" y="21" on="1"/>
        <pt x="554" y="0" on="1"/>
        <pt x="322" y="0" on="1"/>
        <pt x="322" y="168" on="1"/>
        <pt x="123" y="168" on="1"/>
        <pt x="57" y="0" on="1"/>
        <pt x="36" y="0" on="1"/>
        <pt x="308" y="700" on="1"/>
        <pt x="554" y="700" on="1"/>
        <pt x="554" y="679" on="1"/>
        <pt x="344" y="679" on="1"/>
        <pt x="344" y="365" on="1"/>
        <pt x="520" y="365" on="1"/>
      </contour>
      <contour>
        <pt x="322" y="189" on="1"/>
        <pt x="322" y="674" on="1"/>
        <pt x="130" y="189" on="1"/>
      </contour>
    </TTGlyph>
    <TTGlyph name="Aacute" xMin="37" yMin="0" xMax="410" yMax="827">
      <contour>
        <pt x="201" y="738" on="1"/>
        <pt x="181" y="738" on="1"/>
        <pt x="253" y="827" on="1"/>
        <pt x="279" y="827" on="1"/>
      </contour>
      <contour>
        <pt x="57" y="0" on="1"/>
        <pt x="37" y="0" on="1"/>
        <pt x="206" y="701" on="1"/>
        <pt x="237" y="701" on="1"/>
        <pt x="410" y="0" on="1"/>
        <pt x="388" y="0" on="1"/>
        <pt x="347" y="165" on="1"/>
        <pt x="98" y="165" on="1"/>
      </contour>
      <contour>
        <pt x="343" y="185" on="1"/>
        <pt x="221" y="675" on="1"/>
        <pt x="102" y="185" on="1"/>
      </contour>
    </TTGlyph>
    <TTGlyph name="Abreve" xMin="37" yMin="0" xMax="410" yMax="811">
      <contour>
        <pt x="312" y="775" on="0"/>
        <pt x="259" y="733" on="0"/>
        <pt x="221" y="733" on="1"/>
        <pt x="184" y="733" on="0"/>
        <pt x="132" y="774" on="0"/>
        <pt x="131" y="811" on="1"/>
        <pt x="147" y="811" on="1"/>
        <pt x="148" y="782" on="0"/>
        <pt x="191" y="750" on="0"/>
        <pt x="221" y="750" on="1"/>
        <pt x="252" y="750" on="0"/>
        <pt x="296" y="782" on="0"/>
        <pt x="297" y="811" on="1"/>
        <pt x="313" y="811" on="1"/>
      </contour>
      <contour>
        <pt x="57" y="0" on="1"/>
        <pt x="37" y="0" on="1"/>
        <pt x="206" y="701" on="1"/>
        <pt x="237" y="701" on="1"/>
        <pt x="410" y="0" on="1"/>
        <pt x="388" y="0" on="1"/>
        <pt x="347" y="165" on="1"/>
        <pt x="98" y="165" on="1"/>
      </contour>
      <contour>
        <pt x="343" y="185" on="1"/>
        <pt x="221" y="675" on="1"/>
        <pt x="102" y="185" on="1"/>
      </contour>
    </TTGlyph>
    <TTGlyph name="Acircumflex" xMin="37" yMin="0" xMax="410" yMax="819">
      <contour>
        <pt x="130" y="737" on="1"/>
        <pt x="212" y="819" on="1"/>
        <pt x="230" y="819" on="1"/>
        <pt x="313" y="737" on="1"/>
        <pt x="288" y="737" on="1"/>
        <pt x="221" y="803" on="1"/>
        <pt x="154" y="737" on="1"/>
      </contour>
      <contour>
        <pt x="57" y="0" on="1"/>
        <pt x="37" y="0" on="1"/>
        <pt x="206" y="701" on="1"/>
        <pt x="237" y="701" on="1"/>
        <pt x="410" y="0" on="1"/>
        <pt x="388" y="0" on="1"/>
        <pt x="347" y="165" on="1"/>
        <pt x="98" y="165" on="1"/>
      </contour>
      <contour>
        <pt x="343" y="185" on="1"/>
        <pt x="221" y="675" on="1"/>
        <pt x="102" y="185" on="1"/>
      </contour>
    </TTGlyph>
    <TTGlyph name="Adieresis" xMin="37" yMin="0" xMax="410" yMax="817">
      <contour>
        <pt x="193" y="737" on="1"/>
        <pt x="173" y="737" on="1"/>
        <pt x="173" y="817" on="1"/>
        <pt x="193" y="817" on="1"/>
      </contour>
      <contour>
        <pt x="270" y="737" on="1"/>
        <pt x="249" y="737" on="1"/>
        <pt x="249" y="817" on="1"/>
        <pt x="270" y="817" on="1"/>
      </contour>
      <contour>
        <pt x="57" y="0" on="1"/>
        <pt x="37" y="0" on="1"/>
        <pt x="206" y="701" on="1"/>
        <pt x="237" y="701" on="1"/>
        <pt x="410" y="0" on="1"/>
        <pt x="388" y="0" on="1"/>
        <pt x="347" y="165" on="1"/>
        <pt x="98" y="165" on="1"/>
      </contour>
      <contour>
        <pt x="343" y="185" on="1"/>
        <pt x="221" y="675" on="1"/>
        <pt x="102" y="185" on="1"/>
      </contour>
    </TTGlyph>
    <TTGlyph name="Agrave" xMin="37" yMin="0" xMax="410" yMax="826">
      <contour>
        <pt x="253" y="737" on="1"/>
        <pt x="233" y="737" on="1"/>
        <pt x="155" y="826" on="1"/>
        <pt x="181" y="826" on="1"/>
      </contour>
      <contour>
        <pt x="57" y="0" on="1"/>
        <pt x="37" y="0" on="1"/>
        <pt x="206" y="701" on="1"/>
        <pt x="237" y="701" on="1"/>
        <pt x="410" y="0" on="1"/>
        <pt x="388" y="0" on="1"/>
        <pt x="347" y="165" on="1"/>
        <pt x="98" y="165" on="1"/>
      </contour>
      <contour>
        <pt x="343" y="185" on="1"/>
        <pt x="221" y="675" on="1"/>
        <pt x="102" y="185" on="1"/>
      </contour>
    </TTGlyph>
    <TTGlyph name="Amacron" xMin="37" yMin="0" xMax="410" yMax="784">
      <contour>
        <pt x="312" y="767" on="1"/>
        <pt x="131" y="767" on="1"/>
        <pt x="131" y="784" on="1"/>
        <pt x="312" y="784" on="1"/>
      </contour>
      <contour>
        <pt x="57" y="0" on="1"/>
        <pt x="37" y="0" on="1"/>
        <pt x="206" y="701" on="1"/>
        <pt x="237" y="701" on="1"/>
        <pt x="410" y="0" on="1"/>
        <pt x="388" y="0" on="1"/>
        <pt x="347" y="165" on="1"/>
        <pt x="98" y="165" on="1"/>
      </contour>
      <contour>
        <pt x="343" y="185" on="1"/>
        <pt x="221" y="675" on="1"/>
        <pt x="102" y="185" on="1"/>
      </contour>
    </TTGlyph>
    <TTGlyph name="Aogonek" xMin="37" yMin="-137" xMax="445" yMax="701">
      <contour>
        <pt x="388" y="-15" on="0"/>
        <pt x="358" y="-64" on="0"/>
        <pt x="358" y="-85" on="1"/>
        <pt x="358" y="-103" on="0"/>
        <pt x="381" y="-121" on="0"/>
        <pt x="399" y="-121" on="1"/>
        <pt x="427" y="-121" on="0"/>
        <pt x="445" y="-106" on="1"/>
        <pt x="445" y="-124" on="1"/>
        <pt x="423" y="-137" on="0"/>
        <pt x="394" y="-137" on="1"/>
        <pt x="370" y="-136" on="0"/>
        <pt x="339" y="-112" on="0"/>
        <pt x="339" y="-87" on="1"/>
        <pt x="339" y="-65" on="0"/>
        <pt x="366" y="-17" on="0"/>
        <pt x="387" y="1" on="1"/>
        <pt x="347" y="165" on="1"/>
        <pt x="98" y="165" on="1"/>
        <pt x="57" y="0" on="1"/>
        <pt x="37" y="0" on="1"/>
        <pt x="206" y="701" on="1"/>
        <pt x="237" y="701" on="1"/>
        <pt x="410" y="0" on="1"/>
        <pt x="407" y="0" on="1"/>
      </contour>
      <contour>
        <pt x="343" y="185" on="1"/>
        <pt x="221" y="675" on="1"/>
        <pt x="102" y="185" on="1"/>
      </contour>
    </TTGlyph>
    <TTGlyph name="Aring" xMin="37" yMin="0" xMax="410" yMax="863">
      <contour>
        <pt x="247" y="863" on="0"/>
        <pt x="283" y="828" on="0"/>
        <pt x="283" y="803" on="1"/>
        <pt x="283" y="776" on="0"/>
        <pt x="247" y="741" on="0"/>
        <pt x="221" y="741" on="1"/>
        <pt x="194" y="741" on="0"/>
        <pt x="158" y="776" on="0"/>
        <pt x="158" y="803" on="1"/>
        <pt x="158" y="828" on="0"/>
        <pt x="195" y="863" on="0"/>
        <pt x="221" y="863" on="1"/>
      </contour>
      <contour>
        <pt x="201" y="848" on="0"/>
        <pt x="173" y="822" on="0"/>
        <pt x="173" y="803" on="1"/>
        <pt x="173" y="782" on="0"/>
        <pt x="200" y="756" on="0"/>
        <pt x="221" y="756" on="1"/>
        <pt x="240" y="756" on="0"/>
        <pt x="268" y="783" on="0"/>
        <pt x="268" y="803" on="1"/>
        <pt x="268" y="822" on="0"/>
        <pt x="240" y="848" on="0"/>
        <pt x="221" y="848" on="1"/>
      </contour>
      <contour>
        <pt x="57" y="0" on="1"/>
        <pt x="37" y="0" on="1"/>
        <pt x="206" y="701" on="1"/>
        <pt x="237" y="701" on="1"/>
        <pt x="410" y="0" on="1"/>
        <pt x="388" y="0" on="1"/>
        <pt x="347" y="165" on="1"/>
        <pt x="98" y="165" on="1"/>
      </contour>
      <contour>
        <pt x="343" y="185" on="1"/>
        <pt x="221" y="675" on="1"/>
        <pt x="102" y="185" on="1"/>
      </contour>
    </TTGlyph>
    <TTGlyph name="Atilde" xMin="37" yMin="0" xMax="410" yMax="805">
      <contour>
        <pt x="189" y="805" on="0"/>
        <pt x="211" y="795" on="0"/>
        <pt x="227" y="785" on="1"/>
        <pt x="240" y="776" on="0"/>
        <pt x="259" y="768" on="0"/>
        <pt x="268" y="768" on="1"/>
        <pt x="291" y="768" on="0"/>
        <pt x="305" y="799" on="1"/>
        <pt x="320" y="790" on="1"/>
        <pt x="300" y="750" on="0"/>
        <pt x="269" y="750" on="1"/>
        <pt x="250" y="750" on="0"/>
        <pt x="223" y="769" on="1"/>
        <pt x="207" y="778" on="0"/>
        <pt x="189" y="787" on="0"/>
        <pt x="178" y="787" on="1"/>
        <pt x="152" y="787" on="0"/>
        <pt x="136" y="756" on="1"/>
        <pt x="122" y="765" on="1"/>
        <pt x="142" y="804" on="0"/>
        <pt x="176" y="805" on="1"/>
      </contour>
      <contour>
        <pt x="57" y="0" on="1"/>
        <pt x="37" y="0" on="1"/>
        <pt x="206" y="701" on="1"/>
        <pt x="237" y="701" on="1"/>
        <pt x="410" y="0" on="1"/>
        <pt x="388" y="0" on="1"/>
        <pt x="347" y="165" on="1"/>
        <pt x="98" y="165" on="1"/>
      </contour>
      <contour>
        <pt x="343" y="185" on="1"/>
        <pt x="221" y="675" on="1"/>
        <pt x="102" y="185" on="1"/>
      </contour>
    </TTGlyph>
    <TTGlyph name="B" xMin="40" yMin="0" xMax="329" yMax="700">
      <contour>
        <pt x="254" y="700" on="0"/>
        <pt x="315" y="629" on="0"/>
        <pt x="315" y="555" on="1"/>
        <pt x="315" y="510" on="1"/>
        <pt x="315" y="448" on="0"/>
        <pt x="271" y="382" on="0"/>
        <pt x="215" y="373" on="1"/>
        <pt x="329" y="357" on="0"/>
        <pt x="329" y="223" on="1"/>
        <pt x="329" y="161" on="1"/>
        <pt x="329" y="0" on="0"/>
        <pt x="181" y="0" on="1"/>
        <pt x="40" y="0" on="1"/>
        <pt x="40" y="700" on="1"/>
        <pt x="180" y="700" on="1"/>
      </contour>
      <contour>
        <pt x="204" y="382" on="0"/>
        <pt x="264" y="403" on="0"/>
        <pt x="293" y="457" on="0"/>
        <pt x="293" y="507" on="1"/>
        <pt x="293" y="554" on="1"/>
        <pt x="293" y="619" on="0"/>
        <pt x="243" y="679" on="0"/>
        <pt x="180" y="679" on="1"/>
        <pt x="62" y="679" on="1"/>
        <pt x="62" y="382" on="1"/>
        <pt x="153" y="382" on="1"/>
      </contour>
      <contour>
        <pt x="248" y="21" on="0"/>
        <pt x="307" y="92" on="0"/>
        <pt x="307" y="161" on="1"/>
        <pt x="307" y="224" on="1"/>
        <pt x="307" y="298" on="0"/>
        <pt x="237" y="362" on="0"/>
        <pt x="163" y="362" on="1"/>
        <pt x="62" y="362" on="1"/>
        <pt x="62" y="21" on="1"/>
        <pt x="181" y="21" on="1"/>
      </contour>
    </TTGlyph>
    <TTGlyph name="C" xMin="39" yMin="-5" xMax="332" yMax="705">
      <contour>
        <pt x="261" y="705" on="0"/>
        <pt x="332" y="607" on="0"/>
        <pt x="332" y="528" on="1"/>
        <pt x="332" y="474" on="1"/>
        <pt x="310" y="474" on="1"/>
        <pt x="310" y="529" on="1"/>
        <pt x="310" y="599" on="0"/>
        <pt x="251" y="685" on="0"/>
        <pt x="186" y="685" on="1"/>
        <pt x="121" y="685" on="0"/>
        <pt x="61" y="599" on="0"/>
        <pt x="61" y="529" on="1"/>
        <pt x="61" y="171" on="1"/>
        <pt x="61" y="101" on="0"/>
        <pt x="120" y="16" on="0"/>
        <pt x="186" y="16" on="1"/>
        <pt x="251" y="16" on="0"/>
        <pt x="310" y="101" on="0"/>
        <pt x="310" y="171" on="1"/>
        <pt x="310" y="248" on="1"/>
        <pt x="332" y="248" on="1"/>
        <pt x="332" y="172" on="1"/>
        <pt x="332" y="93" on="0"/>
        <pt x="261" y="-5" on="0"/>
        <pt x="185" y="-5" on="1"/>
        <pt x="110" y="-5" on="0"/>
        <pt x="39" y="93" on="0"/>
        <pt x="39" y="172" on="1"/>
        <pt x="39" y="528" on="1"/>
        <pt x="39" y="607" on="0"/>
        <pt x="110" y="705" on="0"/>
        <pt x="185" y="705" on="1"/>
      </contour>
    </TTGlyph>
    <TTGlyph name="Cacute" xMin="39" yMin="-5" xMax="332" yMax="839">
      <contour>
        <pt x="180" y="750" on="1"/>
        <pt x="160" y="750" on="1"/>
        <pt x="232" y="839" on="1"/>
        <pt x="258" y="839" on="1"/>
      </contour>
      <contour>
        <pt x="261" y="705" on="0"/>
        <pt x="332" y="607" on="0"/>
        <pt x="332" y="528" on="1"/>
        <pt x="332" y="474" on="1"/>
        <pt x="310" y="474" on="1"/>
        <pt x="310" y="529" on="1"/>
        <pt x="310" y="599" on="0"/>
        <pt x="251" y="685" on="0"/>
        <pt x="186" y="685" on="1"/>
        <pt x="121" y="685" on="0"/>
        <pt x="61" y="599" on="0"/>
        <pt x="61" y="529" on="1"/>
        <pt x="61" y="171" on="1"/>
        <pt x="61" y="101" on="0"/>
        <pt x="120" y="16" on="0"/>
        <pt x="186" y="16" on="1"/>
        <pt x="251" y="16" on="0"/>
        <pt x="310" y="101" on="0"/>
        <pt x="310" y="171" on="1"/>
        <pt x="310" y="248" on="1"/>
        <pt x="332" y="248" on="1"/>
        <pt x="332" y="172" on="1"/>
        <pt x="332" y="93" on="0"/>
        <pt x="261" y="-5" on="0"/>
        <pt x="185" y="-5" on="1"/>
        <pt x="110" y="-5" on="0"/>
        <pt x="39" y="93" on="0"/>
        <pt x="39" y="172" on="1"/>
        <pt x="39" y="528" on="1"/>
        <pt x="39" y="607" on="0"/>
        <pt x="110" y="705" on="0"/>
        <pt x="185" y="705" on="1"/>
      </contour>
    </TTGlyph>
    <TTGlyph name="Ccaron" xMin="39" yMin="-5" xMax="332" yMax="829">
      <contour>
        <pt x="192" y="762" on="1"/>
        <pt x="259" y="829" on="1"/>
        <pt x="284" y="829" on="1"/>
        <pt x="201" y="747" on="1"/>
        <pt x="183" y="747" on="1"/>
        <pt x="101" y="829" on="1"/>
        <pt x="124" y="829" on="1"/>
      </contour>
      <contour>
        <pt x="261" y="705" on="0"/>
        <pt x="332" y="607" on="0"/>
        <pt x="332" y="528" on="1"/>
        <pt x="332" y="474" on="1"/>
        <pt x="310" y="474" on="1"/>
        <pt x="310" y="529" on="1"/>
        <pt x="310" y="599" on="0"/>
        <pt x="251" y="685" on="0"/>
        <pt x="186" y="685" on="1"/>
        <pt x="121" y="685" on="0"/>
        <pt x="61" y="599" on="0"/>
        <pt x="61" y="529" on="1"/>
        <pt x="61" y="171" on="1"/>
        <pt x="61" y="101" on="0"/>
        <pt x="120" y="16" on="0"/>
        <pt x="186" y="16" on="1"/>
        <pt x="251" y="16" on="0"/>
        <pt x="310" y="101" on="0"/>
        <pt x="310" y="171" on="1"/>
        <pt x="310" y="248" on="1"/>
        <pt x="332" y="248" on="1"/>
        <pt x="332" y="172" on="1"/>
        <pt x="332" y="93" on="0"/>
        <pt x="261" y="-5" on="0"/>
        <pt x="185" y="-5" on="1"/>
        <pt x="110" y="-5" on="0"/>
        <pt x="39" y="93" on="0"/>
        <pt x="39" y="172" on="1"/>
        <pt x="39" y="528" on="1"/>
        <pt x="39" y="607" on="0"/>
        <pt x="110" y="705" on="0"/>
        <pt x="185" y="705" on="1"/>
      </contour>
    </TTGlyph>
    <TTGlyph name="Ccedilla" xMin="39" yMin="-151" xMax="332" yMax="705">
      <contour>
        <pt x="261" y="705" on="0"/>
        <pt x="332" y="607" on="0"/>
        <pt x="332" y="528" on="1"/>
        <pt x="332" y="474" on="1"/>
        <pt x="310" y="474" on="1"/>
        <pt x="310" y="529" on="1"/>
        <pt x="310" y="599" on="0"/>
        <pt x="251" y="685" on="0"/>
        <pt x="186" y="685" on="1"/>
        <pt x="121" y="685" on="0"/>
        <pt x="61" y="599" on="0"/>
        <pt x="61" y="529" on="1"/>
        <pt x="61" y="171" on="1"/>
        <pt x="61" y="101" on="0"/>
        <pt x="120" y="16" on="0"/>
        <pt x="186" y="16" on="1"/>
        <pt x="251" y="16" on="0"/>
        <pt x="310" y="101" on="0"/>
        <pt x="310" y="171" on="1"/>
        <pt x="310" y="248" on="1"/>
        <pt x="332" y="248" on="1"/>
        <pt x="332" y="172" on="1"/>
        <pt x="332" y="95" on="0"/>
        <pt x="263" y="-3" on="0"/>
        <pt x="192" y="-5" on="1"/>
        <pt x="192" y="-39" on="1"/>
        <pt x="226" y="-40" on="0"/>
        <pt x="267" y="-63" on="0"/>
        <pt x="267" y="-92" on="1"/>
        <pt x="267" y="-122" on="0"/>
        <pt x="219" y="-151" on="0"/>
        <pt x="186" y="-151" on="1"/>
        <pt x="151" y="-151" on="0"/>
        <pt x="98" y="-122" on="0"/>
        <pt x="98" y="-92" on="1"/>
        <pt x="98" y="-88" on="1"/>
        <pt x="115" y="-88" on="1"/>
        <pt x="115" y="-91" on="1"/>
        <pt x="115" y="-115" on="0"/>
        <pt x="157" y="-138" on="0"/>
        <pt x="183" y="-139" on="1"/>
        <pt x="208" y="-139" on="0"/>
        <pt x="249" y="-115" on="0"/>
        <pt x="249" y="-92" on="1"/>
        <pt x="249" y="-66" on="0"/>
        <pt x="212" y="-49" on="0"/>
        <pt x="183" y="-49" on="1"/>
        <pt x="178" y="-49" on="1"/>
        <pt x="178" y="-5" on="1"/>
        <pt x="107" y="-2" on="0"/>
        <pt x="39" y="95" on="0"/>
        <pt x="39" y="172" on="1"/>
        <pt x="39" y="528" on="1"/>
        <pt x="39" y="607" on="0"/>
        <pt x="110" y="705" on="0"/>
        <pt x="185" y="705" on="1"/>
      </contour>
    </TTGlyph>
    <TTGlyph name="Ccircumflex" xMin="39" yMin="-5" xMax="332" yMax="828">
      <contour>
        <pt x="99" y="746" on="1"/>
        <pt x="181" y="828" on="1"/>
        <pt x="199" y="828" on="1"/>
        <pt x="282" y="746" on="1"/>
        <pt x="257" y="746" on="1"/>
        <pt x="190" y="812" on="1"/>
        <pt x="123" y="746" on="1"/>
      </contour>
      <contour>
        <pt x="261" y="705" on="0"/>
        <pt x="332" y="607" on="0"/>
        <pt x="332" y="528" on="1"/>
        <pt x="332" y="474" on="1"/>
        <pt x="310" y="474" on="1"/>
        <pt x="310" y="529" on="1"/>
        <pt x="310" y="599" on="0"/>
        <pt x="251" y="685" on="0"/>
        <pt x="186" y="685" on="1"/>
        <pt x="121" y="685" on="0"/>
        <pt x="61" y="599" on="0"/>
        <pt x="61" y="529" on="1"/>
        <pt x="61" y="171" on="1"/>
        <pt x="61" y="101" on="0"/>
        <pt x="120" y="16" on="0"/>
        <pt x="186" y="16" on="1"/>
        <pt x="251" y="16" on="0"/>
        <pt x="310" y="101" on="0"/>
        <pt x="310" y="171" on="1"/>
        <pt x="310" y="248" on="1"/>
        <pt x="332" y="248" on="1"/>
        <pt x="332" y="172" on="1"/>
        <pt x="332" y="93" on="0"/>
        <pt x="261" y="-5" on="0"/>
        <pt x="185" y="-5" on="1"/>
        <pt x="110" y="-5" on="0"/>
        <pt x="39" y="93" on="0"/>
        <pt x="39" y="172" on="1"/>
        <pt x="39" y="528" on="1"/>
        <pt x="39" y="607" on="0"/>
        <pt x="110" y="705" on="0"/>
        <pt x="185" y="705" on="1"/>
      </contour>
    </TTGlyph>
    <TTGlyph name="Cdotaccent" xMin="39" yMin="-5" xMax="332" yMax="821">
      <contour>
        <pt x="195" y="741" on="1"/>
        <pt x="175" y="741" on="1"/>
        <pt x="175" y="821" on="1"/>
        <pt x="195" y="821" on="1"/>
      </contour>
      <contour>
        <pt x="261" y="705" on="0"/>
        <pt x="332" y="607" on="0"/>
        <pt x="332" y="528" on="1"/>
        <pt x="332" y="474" on="1"/>
        <pt x="310" y="474" on="1"/>
        <pt x="310" y="529" on="1"/>
        <pt x="310" y="599" on="0"/>
        <pt x="251" y="685" on="0"/>
        <pt x="186" y="685" on="1"/>
        <pt x="121" y="685" on="0"/>
        <pt x="61" y="599" on="0"/>
        <pt x="61" y="529" on="1"/>
        <pt x="61" y="171" on="1"/>
        <pt x="61" y="101" on="0"/>
        <pt x="120" y="16" on="0"/>
        <pt x="186" y="16" on="1"/>
        <pt x="251" y="16" on="0"/>
        <pt x="310" y="101" on="0"/>
        <pt x="310" y="171" on="1"/>
        <pt x="310" y="248" on="1"/>
        <pt x="332" y="248" on="1"/>
        <pt x="332" y="172" on="1"/>
        <pt x="332" y="93" on="0"/>
        <pt x="261" y="-5" on="0"/>
        <pt x="185" y="-5" on="1"/>
        <pt x="110" y="-5" on="0"/>
        <pt x="39" y="93" on="0"/>
        <pt x="39" y="172" on="1"/>
        <pt x="39" y="528" on="1"/>
        <pt x="39" y="607" on="0"/>
        <pt x="110" y="705" on="0"/>
        <pt x="185" y="705" on="1"/>
      </contour>
    </TTGlyph>
    <TTGlyph name="D" xMin="40" yMin="0" xMax="338" yMax="700">
      <contour>
        <pt x="263" y="700" on="0"/>
        <pt x="338" y="604" on="0"/>
        <pt x="338" y="525" on="1"/>
        <pt x="338" y="174" on="1"/>
        <pt x="338" y="95" on="0"/>
        <pt x="263" y="0" on="0"/>
        <pt x="187" y="0" on="1"/>
        <pt x="40" y="0" on="1"/>
        <pt x="40" y="700" on="1"/>
        <pt x="186" y="700" on="1"/>
      </contour>
      <contour>
        <pt x="253" y="21" on="0"/>
        <pt x="316" y="103" on="0"/>
        <pt x="316" y="173" on="1"/>
        <pt x="316" y="526" on="1"/>
        <pt x="316" y="596" on="0"/>
        <pt x="253" y="679" on="0"/>
        <pt x="186" y="679" on="1"/>
        <pt x="62" y="679" on="1"/>
        <pt x="62" y="21" on="1"/>
        <pt x="186" y="21" on="1"/>
      </contour>
    </TTGlyph>
    <TTGlyph name="Dcaron" xMin="40" yMin="0" xMax="338" yMax="823">
      <contour>
        <pt x="178" y="757" on="1"/>
        <pt x="245" y="823" on="1"/>
        <pt x="270" y="823" on="1"/>
        <pt x="187" y="741" on="1"/>
        <pt x="169" y="741" on="1"/>
        <pt x="87" y="823" on="1"/>
        <pt x="110" y="823" on="1"/>
      </contour>
      <contour>
        <pt x="263" y="700" on="0"/>
        <pt x="338" y="604" on="0"/>
        <pt x="338" y="525" on="1"/>
        <pt x="338" y="174" on="1"/>
        <pt x="338" y="95" on="0"/>
        <pt x="263" y="0" on="0"/>
        <pt x="187" y="0" on="1"/>
        <pt x="40" y="0" on="1"/>
        <pt x="40" y="700" on="1"/>
        <pt x="186" y="700" on="1"/>
      </contour>
      <contour>
        <pt x="253" y="21" on="0"/>
        <pt x="316" y="103" on="0"/>
        <pt x="316" y="173" on="1"/>
        <pt x="316" y="526" on="1"/>
        <pt x="316" y="596" on="0"/>
        <pt x="253" y="679" on="0"/>
        <pt x="186" y="679" on="1"/>
        <pt x="62" y="679" on="1"/>
        <pt x="62" y="21" on="1"/>
        <pt x="186" y="21" on="1"/>
      </contour>
    </TTGlyph>
    <TTGlyph name="Dcroat" xMin="-5" yMin="0" xMax="338" yMax="700">
      <contour>
        <pt x="263" y="700" on="0"/>
        <pt x="338" y="604" on="0"/>
        <pt x="338" y="525" on="1"/>
        <pt x="338" y="174" on="1"/>
        <pt x="338" y="95" on="0"/>
        <pt x="263" y="0" on="0"/>
        <pt x="187" y="0" on="1"/>
        <pt x="40" y="0" on="1"/>
        <pt x="40" y="339" on="1"/>
        <pt x="-5" y="339" on="1"/>
        <pt x="-5" y="358" on="1"/>
        <pt x="40" y="358" on="1"/>
        <pt x="40" y="700" on="1"/>
        <pt x="186" y="700" on="1"/>
      </contour>
      <contour>
        <pt x="62" y="339" on="1"/>
        <pt x="62" y="21" on="1"/>
        <pt x="186" y="21" on="1"/>
        <pt x="253" y="21" on="0"/>
        <pt x="316" y="103" on="0"/>
        <pt x="316" y="173" on="1"/>
        <pt x="316" y="526" on="1"/>
        <pt x="316" y="596" on="0"/>
        <pt x="253" y="679" on="0"/>
        <pt x="186" y="679" on="1"/>
        <pt x="62" y="679" on="1"/>
        <pt x="62" y="358" on="1"/>
        <pt x="160" y="358" on="1"/>
        <pt x="160" y="339" on="1"/>
      </contour>
    </TTGlyph>
    <TTGlyph name="E" xMin="40" yMin="0" xMax="307" yMax="700">
      <contour>
        <pt x="268" y="345" on="1"/>
        <pt x="62" y="345" on="1"/>
        <pt x="62" y="21" on="1"/>
        <pt x="307" y="21" on="1"/>
        <pt x="307" y="0" on="1"/>
        <pt x="40" y="0" on="1"/>
        <pt x="40" y="700" on="1"/>
        <pt x="307" y="700" on="1"/>
        <pt x="307" y="679" on="1"/>
        <pt x="62" y="679" on="1"/>
        <pt x="62" y="365" on="1"/>
        <pt x="268" y="365" on="1"/>
      </contour>
    </TTGlyph>
    <TTGlyph name="Eacute" xMin="40" yMin="0" xMax="307" yMax="830">
      <contour>
        <pt x="165" y="741" on="1"/>
        <pt x="145" y="741" on="1"/>
        <pt x="217" y="830" on="1"/>
        <pt x="243" y="830" on="1"/>
      </contour>
      <contour>
        <pt x="268" y="345" on="1"/>
        <pt x="62" y="345" on="1"/>
        <pt x="62" y="21" on="1"/>
        <pt x="307" y="21" on="1"/>
        <pt x="307" y="0" on="1"/>
        <pt x="40" y="0" on="1"/>
        <pt x="40" y="700" on="1"/>
        <pt x="307" y="700" on="1"/>
        <pt x="307" y="679" on="1"/>
        <pt x="62" y="679" on="1"/>
        <pt x="62" y="365" on="1"/>
        <pt x="268" y="365" on="1"/>
      </contour>
    </TTGlyph>
    <TTGlyph name="Ebreve" xMin="40" yMin="0" xMax="307" yMax="826">
      <contour>
        <pt x="263" y="790" on="0"/>
        <pt x="210" y="748" on="0"/>
        <pt x="172" y="748" on="1"/>
        <pt x="134" y="748" on="0"/>
        <pt x="82" y="789" on="0"/>
        <pt x="81" y="826" on="1"/>
        <pt x="98" y="826" on="1"/>
        <pt x="99" y="796" on="0"/>
        <pt x="141" y="765" on="0"/>
        <pt x="172" y="765" on="1"/>
        <pt x="203" y="765" on="0"/>
        <pt x="246" y="796" on="0"/>
        <pt x="247" y="826" on="1"/>
        <pt x="264" y="826" on="1"/>
      </contour>
      <contour>
        <pt x="268" y="345" on="1"/>
        <pt x="62" y="345" on="1"/>
        <pt x="62" y="21" on="1"/>
        <pt x="307" y="21" on="1"/>
        <pt x="307" y="0" on="1"/>
        <pt x="40" y="0" on="1"/>
        <pt x="40" y="700" on="1"/>
        <pt x="307" y="700" on="1"/>
        <pt x="307" y="679" on="1"/>
        <pt x="62" y="679" on="1"/>
        <pt x="62" y="365" on="1"/>
        <pt x="268" y="365" on="1"/>
      </contour>
    </TTGlyph>
    <TTGlyph name="Ecaron" xMin="40" yMin="0" xMax="307" yMax="824">
      <contour>
        <pt x="177" y="758" on="1"/>
        <pt x="244" y="824" on="1"/>
        <pt x="269" y="824" on="1"/>
        <pt x="186" y="742" on="1"/>
        <pt x="168" y="742" on="1"/>
        <pt x="86" y="824" on="1"/>
        <pt x="110" y="824" on="1"/>
      </contour>
      <contour>
        <pt x="268" y="345" on="1"/>
        <pt x="62" y="345" on="1"/>
        <pt x="62" y="21" on="1"/>
        <pt x="307" y="21" on="1"/>
        <pt x="307" y="0" on="1"/>
        <pt x="40" y="0" on="1"/>
        <pt x="40" y="700" on="1"/>
        <pt x="307" y="700" on="1"/>
        <pt x="307" y="679" on="1"/>
        <pt x="62" y="679" on="1"/>
        <pt x="62" y="365" on="1"/>
        <pt x="268" y="365" on="1"/>
      </contour>
    </TTGlyph>
    <TTGlyph name="Ecircumflex" xMin="40" yMin="0" xMax="307" yMax="825">
      <contour>
        <pt x="82" y="743" on="1"/>
        <pt x="164" y="825" on="1"/>
        <pt x="182" y="825" on="1"/>
        <pt x="265" y="743" on="1"/>
        <pt x="240" y="743" on="1"/>
        <pt x="173" y="810" on="1"/>
        <pt x="105" y="743" on="1"/>
      </contour>
      <contour>
        <pt x="268" y="345" on="1"/>
        <pt x="62" y="345" on="1"/>
        <pt x="62" y="21" on="1"/>
        <pt x="307" y="21" on="1"/>
        <pt x="307" y="0" on="1"/>
        <pt x="40" y="0" on="1"/>
        <pt x="40" y="700" on="1"/>
        <pt x="307" y="700" on="1"/>
        <pt x="307" y="679" on="1"/>
        <pt x="62" y="679" on="1"/>
        <pt x="62" y="365" on="1"/>
        <pt x="268" y="365" on="1"/>
      </contour>
    </TTGlyph>
    <TTGlyph name="Edieresis" xMin="40" yMin="0" xMax="307" yMax="822">
      <contour>
        <pt x="145" y="741" on="1"/>
        <pt x="125" y="741" on="1"/>
        <pt x="125" y="822" on="1"/>
        <pt x="145" y="822" on="1"/>
      </contour>
      <contour>
        <pt x="221" y="741" on="1"/>
        <pt x="201" y="741" on="1"/>
        <pt x="201" y="822" on="1"/>
        <pt x="221" y="822" on="1"/>
      </contour>
      <contour>
        <pt x="268" y="345" on="1"/>
        <pt x="62" y="345" on="1"/>
        <pt x="62" y="21" on="1"/>
        <pt x="307" y="21" on="1"/>
        <pt x="307" y="0" on="1"/>
        <pt x="40" y="0" on="1"/>
        <pt x="40" y="700" on="1"/>
        <pt x="307" y="700" on="1"/>
        <pt x="307" y="679" on="1"/>
        <pt x="62" y="679" on="1"/>
        <pt x="62" y="365" on="1"/>
        <pt x="268" y="365" on="1"/>
      </contour>
    </TTGlyph>
    <TTGlyph name="Edotaccent" xMin="40" yMin="0" xMax="307" yMax="824">
      <contour>
        <pt x="187" y="744" on="1"/>
        <pt x="166" y="744" on="1"/>
        <pt x="166" y="824" on="1"/>
        <pt x="187" y="824" on="1"/>
      </contour>
      <contour>
        <pt x="268" y="345" on="1"/>
        <pt x="62" y="345" on="1"/>
        <pt x="62" y="21" on="1"/>
        <pt x="307" y="21" on="1"/>
        <pt x="307" y="0" on="1"/>
        <pt x="40" y="0" on="1"/>
        <pt x="40" y="700" on="1"/>
        <pt x="307" y="700" on="1"/>
        <pt x="307" y="679" on="1"/>
        <pt x="62" y="679" on="1"/>
        <pt x="62" y="365" on="1"/>
        <pt x="268" y="365" on="1"/>
      </contour>
    </TTGlyph>
    <TTGlyph name="Egrave" xMin="40" yMin="0" xMax="307" yMax="840">
      <contour>
        <pt x="215" y="751" on="1"/>
        <pt x="194" y="751" on="1"/>
        <pt x="116" y="840" on="1"/>
        <pt x="142" y="840" on="1"/>
      </contour>
      <contour>
        <pt x="268" y="345" on="1"/>
        <pt x="62" y="345" on="1"/>
        <pt x="62" y="21" on="1"/>
        <pt x="307" y="21" on="1"/>
        <pt x="307" y="0" on="1"/>
        <pt x="40" y="0" on="1"/>
        <pt x="40" y="700" on="1"/>
        <pt x="307" y="700" on="1"/>
        <pt x="307" y="679" on="1"/>
        <pt x="62" y="679" on="1"/>
        <pt x="62" y="365" on="1"/>
        <pt x="268" y="365" on="1"/>
      </contour>
    </TTGlyph>
    <TTGlyph name="Emacron" xMin="40" yMin="0" xMax="307" yMax="787">
      <contour>
        <pt x="256" y="770" on="1"/>
        <pt x="84" y="770" on="1"/>
        <pt x="84" y="787" on="1"/>
        <pt x="256" y="787" on="1"/>
      </contour>
      <contour>
        <pt x="268" y="345" on="1"/>
        <pt x="62" y="345" on="1"/>
        <pt x="62" y="21" on="1"/>
        <pt x="307" y="21" on="1"/>
        <pt x="307" y="0" on="1"/>
        <pt x="40" y="0" on="1"/>
        <pt x="40" y="700" on="1"/>
        <pt x="307" y="700" on="1"/>
        <pt x="307" y="679" on="1"/>
        <pt x="62" y="679" on="1"/>
        <pt x="62" y="365" on="1"/>
        <pt x="268" y="365" on="1"/>
      </contour>
    </TTGlyph>
    <TTGlyph name="Eogonek" xMin="40" yMin="-137" xMax="328" yMax="700">
      <contour>
        <pt x="268" y="345" on="1"/>
        <pt x="62" y="345" on="1"/>
        <pt x="62" y="21" on="1"/>
        <pt x="307" y="21" on="1"/>
        <pt x="307" y="0" on="1"/>
        <pt x="291" y="0" on="1"/>
        <pt x="272" y="-15" on="0"/>
        <pt x="240" y="-64" on="0"/>
        <pt x="240" y="-85" on="1"/>
        <pt x="240" y="-103" on="0"/>
        <pt x="263" y="-121" on="0"/>
        <pt x="281" y="-121" on="1"/>
        <pt x="310" y="-121" on="0"/>
        <pt x="328" y="-106" on="1"/>
        <pt x="328" y="-124" on="1"/>
        <pt x="306" y="-137" on="0"/>
        <pt x="276" y="-137" on="1"/>
        <pt x="252" y="-136" on="0"/>
        <pt x="221" y="-112" on="0"/>
        <pt x="221" y="-87" on="1"/>
        <pt x="221" y="-65" on="0"/>
        <pt x="250" y="-17" on="0"/>
        <pt x="270" y="0" on="1"/>
        <pt x="40" y="0" on="1"/>
        <pt x="40" y="700" on="1"/>
        <pt x="307" y="700" on="1"/>
        <pt x="307" y="679" on="1"/>
        <pt x="62" y="679" on="1"/>
        <pt x="62" y="365" on="1"/>
        <pt x="268" y="365" on="1"/>
      </contour>
    </TTGlyph>
    <TTGlyph name="Eth" xMin="-10" yMin="0" xMax="338" yMax="700">
      <contour>
        <pt x="263" y="700" on="0"/>
        <pt x="338" y="604" on="0"/>
        <pt x="338" y="525" on="1"/>
        <pt x="338" y="174" on="1"/>
        <pt x="338" y="95" on="0"/>
        <pt x="263" y="0" on="0"/>
        <pt x="187" y="0" on="1"/>
        <pt x="40" y="0" on="1"/>
        <pt x="40" y="341" on="1"/>
        <pt x="-10" y="341" on="1"/>
        <pt x="-10" y="360" on="1"/>
        <pt x="40" y="360" on="1"/>
        <pt x="40" y="700" on="1"/>
        <pt x="186" y="700" on="1"/>
      </contour>
      <contour>
        <pt x="62" y="341" on="1"/>
        <pt x="62" y="21" on="1"/>
        <pt x="186" y="21" on="1"/>
        <pt x="253" y="21" on="0"/>
        <pt x="316" y="103" on="0"/>
        <pt x="316" y="173" on="1"/>
        <pt x="316" y="526" on="1"/>
        <pt x="316" y="596" on="0"/>
        <pt x="253" y="679" on="0"/>
        <pt x="186" y="679" on="1"/>
        <pt x="62" y="679" on="1"/>
        <pt x="62" y="360" on="1"/>
        <pt x="159" y="360" on="1"/>
        <pt x="159" y="341" on="1"/>
      </contour>
    </TTGlyph>
    <TTGlyph name="Euro" xMin="29" yMin="-5" xMax="359" yMax="705">
      <contour>
        <pt x="73" y="607" on="0"/>
        <pt x="142" y="705" on="0"/>
        <pt x="217" y="705" on="1"/>
        <pt x="290" y="705" on="0"/>
        <pt x="359" y="607" on="0"/>
        <pt x="359" y="528" on="1"/>
        <pt x="359" y="495" on="1"/>
        <pt x="338" y="495" on="1"/>
        <pt x="338" y="529" on="1"/>
        <pt x="338" y="598" on="0"/>
        <pt x="281" y="685" on="0"/>
        <pt x="217" y="685" on="1"/>
        <pt x="153" y="685" on="0"/>
        <pt x="95" y="598" on="0"/>
        <pt x="95" y="529" on="1"/>
        <pt x="95" y="414" on="1"/>
        <pt x="302" y="414" on="1"/>
        <pt x="302" y="398" on="1"/>
        <pt x="95" y="398" on="1"/>
        <pt x="95" y="306" on="1"/>
        <pt x="302" y="306" on="1"/>
        <pt x="302" y="290" on="1"/>
        <pt x="95" y="290" on="1"/>
        <pt x="95" y="171" on="1"/>
        <pt x="95" y="102" on="0"/>
        <pt x="153" y="16" on="0"/>
        <pt x="217" y="16" on="1"/>
        <pt x="281" y="16" on="0"/>
        <pt x="338" y="102" on="0"/>
        <pt x="338" y="171" on="1"/>
        <pt x="338" y="211" on="1"/>
        <pt x="359" y="211" on="1"/>
        <pt x="359" y="172" on="1"/>
        <pt x="359" y="94" on="0"/>
        <pt x="290" y="-5" on="0"/>
        <pt x="217" y="-5" on="1"/>
        <pt x="142" y="-5" on="0"/>
        <pt x="73" y="94" on="0"/>
        <pt x="73" y="172" on="1"/>
        <pt x="73" y="290" on="1"/>
        <pt x="29" y="290" on="1"/>
        <pt x="29" y="306" on="1"/>
        <pt x="73" y="306" on="1"/>
        <pt x="73" y="398" on="1"/>
        <pt x="29" y="398" on="1"/>
        <pt x="29" y="414" on="1"/>
        <pt x="73" y="414" on="1"/>
        <pt x="73" y="528" on="1"/>
      </contour>
    </TTGlyph>
    <TTGlyph name="F" xMin="40" yMin="0" xMax="297" yMax="700">
      <contour>
        <pt x="258" y="327" on="1"/>
        <pt x="62" y="327" on="1"/>
        <pt x="62" y="0" on="1"/>
        <pt x="40" y="0" on="1"/>
        <pt x="40" y="700" on="1"/>
        <pt x="297" y="700" on="1"/>
        <pt x="297" y="679" on="1"/>
        <pt x="62" y="679" on="1"/>
        <pt x="62" y="348" on="1"/>
        <pt x="258" y="348" on="1"/>
      </contour>
    </TTGlyph>
    <TTGlyph name="G" xMin="39" yMin="-5" xMax="332" yMax="705">
      <contour>
        <pt x="261" y="705" on="0"/>
        <pt x="332" y="607" on="0"/>
        <pt x="332" y="528" on="1"/>
        <pt x="332" y="482" on="1"/>
        <pt x="310" y="482" on="1"/>
        <pt x="310" y="529" on="1"/>
        <pt x="310" y="599" on="0"/>
        <pt x="251" y="685" on="0"/>
        <pt x="186" y="685" on="1"/>
        <pt x="121" y="685" on="0"/>
        <pt x="61" y="599" on="0"/>
        <pt x="61" y="529" on="1"/>
        <pt x="61" y="171" on="1"/>
        <pt x="61" y="101" on="0"/>
        <pt x="120" y="16" on="0"/>
        <pt x="186" y="16" on="1"/>
        <pt x="251" y="16" on="0"/>
        <pt x="310" y="101" on="0"/>
        <pt x="310" y="171" on="1"/>
        <pt x="310" y="330" on="1"/>
        <pt x="201" y="330" on="1"/>
        <pt x="201" y="350" on="1"/>
        <pt x="332" y="350" on="1"/>
        <pt x="332" y="172" on="1"/>
        <pt x="332" y="93" on="0"/>
        <pt x="261" y="-5" on="0"/>
        <pt x="185" y="-5" on="1"/>
        <pt x="110" y="-5" on="0"/>
        <pt x="39" y="93" on="0"/>
        <pt x="39" y="172" on="1"/>
        <pt x="39" y="528" on="1"/>
        <pt x="39" y="607" on="0"/>
        <pt x="110" y="705" on="0"/>
        <pt x="185" y="705" on="1"/>
      </contour>
    </TTGlyph>
    <TTGlyph name="Gbreve" xMin="39" yMin="-5" xMax="332" yMax="829">
      <contour>
        <pt x="278" y="793" on="0"/>
        <pt x="225" y="751" on="0"/>
        <pt x="187" y="751" on="1"/>
        <pt x="149" y="751" on="0"/>
        <pt x="97" y="792" on="0"/>
        <pt x="96" y="829" on="1"/>
        <pt x="113" y="829" on="1"/>
        <pt x="114" y="799" on="0"/>
        <pt x="156" y="768" on="0"/>
        <pt x="187" y="768" on="1"/>
        <pt x="218" y="768" on="0"/>
        <pt x="261" y="799" on="0"/>
        <pt x="262" y="829" on="1"/>
        <pt x="279" y="829" on="1"/>
      </contour>
      <contour>
        <pt x="261" y="705" on="0"/>
        <pt x="332" y="607" on="0"/>
        <pt x="332" y="528" on="1"/>
        <pt x="332" y="482" on="1"/>
        <pt x="310" y="482" on="1"/>
        <pt x="310" y="529" on="1"/>
        <pt x="310" y="599" on="0"/>
        <pt x="251" y="685" on="0"/>
        <pt x="186" y="685" on="1"/>
        <pt x="121" y="685" on="0"/>
        <pt x="61" y="599" on="0"/>
        <pt x="61" y="529" on="1"/>
        <pt x="61" y="171" on="1"/>
        <pt x="61" y="101" on="0"/>
        <pt x="120" y="16" on="0"/>
        <pt x="186" y="16" on="1"/>
        <pt x="251" y="16" on="0"/>
        <pt x="310" y="101" on="0"/>
        <pt x="310" y="171" on="1"/>
        <pt x="310" y="330" on="1"/>
        <pt x="201" y="330" on="1"/>
        <pt x="201" y="350" on="1"/>
        <pt x="332" y="350" on="1"/>
        <pt x="332" y="172" on="1"/>
        <pt x="332" y="93" on="0"/>
        <pt x="261" y="-5" on="0"/>
        <pt x="185" y="-5" on="1"/>
        <pt x="110" y="-5" on="0"/>
        <pt x="39" y="93" on="0"/>
        <pt x="39" y="172" on="1"/>
        <pt x="39" y="528" on="1"/>
        <pt x="39" y="607" on="0"/>
        <pt x="110" y="705" on="0"/>
        <pt x="185" y="705" on="1"/>
      </contour>
    </TTGlyph>
    <TTGlyph name="Gcircumflex" xMin="39" yMin="-5" xMax="332" yMax="833">
      <contour>
        <pt x="96" y="751" on="1"/>
        <pt x="178" y="833" on="1"/>
        <pt x="196" y="833" on="1"/>
        <pt x="278" y="751" on="1"/>
        <pt x="254" y="751" on="1"/>
        <pt x="187" y="818" on="1"/>
        <pt x="119" y="751" on="1"/>
      </contour>
      <contour>
        <pt x="261" y="705" on="0"/>
        <pt x="332" y="607" on="0"/>
        <pt x="332" y="528" on="1"/>
        <pt x="332" y="482" on="1"/>
        <pt x="310" y="482" on="1"/>
        <pt x="310" y="529" on="1"/>
        <pt x="310" y="599" on="0"/>
        <pt x="251" y="685" on="0"/>
        <pt x="186" y="685" on="1"/>
        <pt x="121" y="685" on="0"/>
        <pt x="61" y="599" on="0"/>
        <pt x="61" y="529" on="1"/>
        <pt x="61" y="171" on="1"/>
        <pt x="61" y="101" on="0"/>
        <pt x="120" y="16" on="0"/>
        <pt x="186" y="16" on="1"/>
        <pt x="251" y="16" on="0"/>
        <pt x="310" y="101" on="0"/>
        <pt x="310" y="171" on="1"/>
        <pt x="310" y="330" on="1"/>
        <pt x="201" y="330" on="1"/>
        <pt x="201" y="350" on="1"/>
        <pt x="332" y="350" on="1"/>
        <pt x="332" y="172" on="1"/>
        <pt x="332" y="93" on="0"/>
        <pt x="261" y="-5" on="0"/>
        <pt x="185" y="-5" on="1"/>
        <pt x="110" y="-5" on="0"/>
        <pt x="39" y="93" on="0"/>
        <pt x="39" y="172" on="1"/>
        <pt x="39" y="528" on="1"/>
        <pt x="39" y="607" on="0"/>
        <pt x="110" y="705" on="0"/>
        <pt x="185" y="705" on="1"/>
      </contour>
    </TTGlyph>
    <TTGlyph name="Gdotaccent" xMin="39" yMin="-5" xMax="332" yMax="826">
      <contour>
        <pt x="204" y="746" on="1"/>
        <pt x="184" y="746" on="1"/>
        <pt x="184" y="826" on="1"/>
        <pt x="204" y="826" on="1"/>
      </contour>
      <contour>
        <pt x="261" y="705" on="0"/>
        <pt x="332" y="607" on="0"/>
        <pt x="332" y="528" on="1"/>
        <pt x="332" y="482" on="1"/>
        <pt x="310" y="482" on="1"/>
        <pt x="310" y="529" on="1"/>
        <pt x="310" y="599" on="0"/>
        <pt x="251" y="685" on="0"/>
        <pt x="186" y="685" on="1"/>
        <pt x="121" y="685" on="0"/>
        <pt x="61" y="599" on="0"/>
        <pt x="61" y="529" on="1"/>
        <pt x="61" y="171" on="1"/>
        <pt x="61" y="101" on="0"/>
        <pt x="120" y="16" on="0"/>
        <pt x="186" y="16" on="1"/>
        <pt x="251" y="16" on="0"/>
        <pt x="310" y="101" on="0"/>
        <pt x="310" y="171" on="1"/>
        <pt x="310" y="330" on="1"/>
        <pt x="201" y="330" on="1"/>
        <pt x="201" y="350" on="1"/>
        <pt x="332" y="350" on="1"/>
        <pt x="332" y="172" on="1"/>
        <pt x="332" y="93" on="0"/>
        <pt x="261" y="-5" on="0"/>
        <pt x="185" y="-5" on="1"/>
        <pt x="110" y="-5" on="0"/>
        <pt x="39" y="93" on="0"/>
        <pt x="39" y="172" on="1"/>
        <pt x="39" y="528" on="1"/>
        <pt x="39" y="607" on="0"/>
        <pt x="110" y="705" on="0"/>
        <pt x="185" y="705" on="1"/>
      </contour>
    </TTGlyph>
    <TTGlyph name="H" xMin="40" yMin="0" xMax="337" yMax="700">
      <contour>
        <pt x="62" y="0" on="1"/>
        <pt x="40" y="0" on="1"/>
        <pt x="40" y="700" on="1"/>
        <pt x="62" y="700" on="1"/>
        <pt x="62" y="360" on="1"/>
        <pt x="315" y="360" on="1"/>
        <pt x="315" y="700" on="1"/>
        <pt x="337" y="700" on="1"/>
        <pt x="337" y="0" on="1"/>
        <pt x="315" y="0" on="1"/>
        <pt x="315" y="340" on="1"/>
        <pt x="62" y="340" on="1"/>
      </contour>
    </TTGlyph>
    <TTGlyph name="Hbar" xMin="1" yMin="0" xMax="375" yMax="700">
      <contour>
        <pt x="337" y="0" on="1"/>
        <pt x="315" y="0" on="1"/>
        <pt x="315" y="340" on="1"/>
        <pt x="63" y="340" on="1"/>
        <pt x="63" y="0" on="1"/>
        <pt x="41" y="0" on="1"/>
        <pt x="41" y="534" on="1"/>
        <pt x="1" y="534" on="1"/>
        <pt x="1" y="551" on="1"/>
        <pt x="41" y="551" on="1"/>
        <pt x="41" y="700" on="1"/>
        <pt x="63" y="700" on="1"/>
        <pt x="63" y="551" on="1"/>
        <pt x="315" y="551" on="1"/>
        <pt x="315" y="700" on="1"/>
        <pt x="337" y="700" on="1"/>
        <pt x="337" y="551" on="1"/>
        <pt x="375" y="551" on="1"/>
        <pt x="375" y="534" on="1"/>
        <pt x="337" y="534" on="1"/>
      </contour>
      <contour>
        <pt x="63" y="534" on="1"/>
        <pt x="63" y="360" on="1"/>
        <pt x="315" y="360" on="1"/>
        <pt x="315" y="534" on="1"/>
      </contour>
    </TTGlyph>
    <TTGlyph name="Hcircumflex" xMin="40" yMin="0" xMax="337" yMax="830">
      <contour>
        <pt x="97" y="748" on="1"/>
        <pt x="179" y="830" on="1"/>
        <pt x="197" y="830" on="1"/>
        <pt x="280" y="748" on="1"/>
        <pt x="255" y="748" on="1"/>
        <pt x="188" y="815" on="1"/>
        <pt x="121" y="748" on="1"/>
      </contour>
      <contour>
        <pt x="62" y="0" on="1"/>
        <pt x="40" y="0" on="1"/>
        <pt x="40" y="700" on="1"/>
        <pt x="62" y="700" on="1"/>
        <pt x="62" y="360" on="1"/>
        <pt x="315" y="360" on="1"/>
        <pt x="315" y="700" on="1"/>
        <pt x="337" y="700" on="1"/>
        <pt x="337" y="0" on="1"/>
        <pt x="315" y="0" on="1"/>
        <pt x="315" y="340" on="1"/>
        <pt x="62" y="340" on="1"/>
      </contour>
    </TTGlyph>
    <TTGlyph name="I" xMin="40" yMin="0" xMax="62" yMax="700">
      <contour>
        <pt x="62" y="0" on="1"/>
        <pt x="40" y="0" on="1"/>
        <pt x="40" y="700" on="1"/>
        <pt x="62" y="700" on="1"/>
      </contour>
    </TTGlyph>
    <TTGlyph name="IJ" xMin="40" yMin="0" xMax="315" yMax="700">
      <contour>
        <pt x="62" y="0" on="1"/>
        <pt x="40" y="0" on="1"/>
        <pt x="40" y="700" on="1"/>
        <pt x="62" y="700" on="1"/>
      </contour>
      <contour>
        <pt x="315" y="84" on="0"/>
        <pt x="246" y="5" on="0"/>
        <pt x="176" y="0" on="1"/>
        <pt x="138" y="0" on="1"/>
        <pt x="138" y="21" on="1"/>
        <pt x="175" y="21" on="1"/>
        <pt x="238" y="26" on="0"/>
        <pt x="293" y="96" on="0"/>
        <pt x="293" y="170" on="1"/>
        <pt x="293" y="700" on="1"/>
        <pt x="315" y="700" on="1"/>
        <pt x="315" y="171" on="1"/>
      </contour>
    </TTGlyph>
    <TTGlyph name="Iacute" xMin="20" yMin="0" xMax="118" yMax="831">
      <contour>
        <pt x="118" y="831" on="1"/>
        <pt x="41" y="742" on="1"/>
        <pt x="20" y="742" on="1"/>
        <pt x="93" y="831" on="1"/>
      </contour>
      <contour>
        <pt x="62" y="700" on="1"/>
        <pt x="62" y="0" on="1"/>
        <pt x="40" y="0" on="1"/>
        <pt x="40" y="700" on="1"/>
      </contour>
    </TTGlyph>
    <TTGlyph name="Ibreve" xMin="-40" yMin="0" xMax="143" yMax="820">
      <contour>
        <pt x="142" y="784" on="0"/>
        <pt x="89" y="742" on="0"/>
        <pt x="51" y="742" on="1"/>
        <pt x="13" y="742" on="0"/>
        <pt x="-39" y="783" on="0"/>
        <pt x="-40" y="820" on="1"/>
        <pt x="-23" y="820" on="1"/>
        <pt x="-22" y="790" on="0"/>
        <pt x="20" y="759" on="0"/>
        <pt x="51" y="759" on="1"/>
        <pt x="82" y="759" on="0"/>
        <pt x="125" y="790" on="0"/>
        <pt x="126" y="820" on="1"/>
        <pt x="143" y="820" on="1"/>
      </contour>
      <contour>
        <pt x="62" y="700" on="1"/>
        <pt x="62" y="0" on="1"/>
        <pt x="40" y="0" on="1"/>
        <pt x="40" y="700" on="1"/>
      </contour>
    </TTGlyph>
    <TTGlyph name="Icircumflex" xMin="-40" yMin="0" xMax="142" yMax="823">
      <contour>
        <pt x="142" y="741" on="1"/>
        <pt x="118" y="741" on="1"/>
        <pt x="51" y="808" on="1"/>
        <pt x="-17" y="741" on="1"/>
        <pt x="-40" y="741" on="1"/>
        <pt x="42" y="823" on="1"/>
        <pt x="60" y="823" on="1"/>
      </contour>
      <contour>
        <pt x="62" y="700" on="1"/>
        <pt x="62" y="0" on="1"/>
        <pt x="40" y="0" on="1"/>
        <pt x="40" y="700" on="1"/>
      </contour>
    </TTGlyph>
    <TTGlyph name="Idieresis" xMin="3" yMin="0" xMax="99" yMax="822">
      <contour>
        <pt x="23" y="742" on="1"/>
        <pt x="3" y="742" on="1"/>
        <pt x="3" y="822" on="1"/>
        <pt x="23" y="822" on="1"/>
      </contour>
      <contour>
        <pt x="99" y="742" on="1"/>
        <pt x="79" y="742" on="1"/>
        <pt x="79" y="822" on="1"/>
        <pt x="99" y="822" on="1"/>
      </contour>
      <contour>
        <pt x="62" y="0" on="1"/>
        <pt x="40" y="0" on="1"/>
        <pt x="40" y="700" on="1"/>
        <pt x="62" y="700" on="1"/>
      </contour>
    </TTGlyph>
    <TTGlyph name="Idotaccent" xMin="40" yMin="0" xMax="62" yMax="822">
      <contour>
        <pt x="61" y="742" on="1"/>
        <pt x="41" y="742" on="1"/>
        <pt x="41" y="822" on="1"/>
        <pt x="61" y="822" on="1"/>
      </contour>
      <contour>
        <pt x="62" y="0" on="1"/>
        <pt x="40" y="0" on="1"/>
        <pt x="40" y="700" on="1"/>
        <pt x="62" y="700" on="1"/>
      </contour>
    </TTGlyph>
    <TTGlyph name="Igrave" xMin="-24" yMin="0" xMax="74" yMax="830">
      <contour>
        <pt x="2" y="830" on="1"/>
        <pt x="74" y="741" on="1"/>
        <pt x="53" y="741" on="1"/>
        <pt x="-24" y="830" on="1"/>
      </contour>
      <contour>
        <pt x="62" y="700" on="1"/>
        <pt x="62" y="0" on="1"/>
        <pt x="40" y="0" on="1"/>
        <pt x="40" y="700" on="1"/>
      </contour>
    </TTGlyph>
    <TTGlyph name="Imacron" xMin="-22" yMin="0" xMax="124" yMax="784">
      <contour>
        <pt x="124" y="767" on="1"/>
        <pt x="-22" y="767" on="1"/>
        <pt x="-22" y="784" on="1"/>
        <pt x="124" y="784" on="1"/>
      </contour>
      <contour>
        <pt x="62" y="0" on="1"/>
        <pt x="40" y="0" on="1"/>
        <pt x="40" y="700" on="1"/>
        <pt x="62" y="700" on="1"/>
      </contour>
    </TTGlyph>
    <TTGlyph name="Iogonek" xMin="-7" yMin="-137" xMax="100" yMax="700">
      <contour>
        <pt x="41" y="-14" on="0"/>
        <pt x="12" y="-64" on="0"/>
        <pt x="12" y="-85" on="1"/>
        <pt x="12" y="-103" on="0"/>
        <pt x="35" y="-121" on="0"/>
        <pt x="53" y="-121" on="1"/>
        <pt x="82" y="-121" on="0"/>
        <pt x="100" y="-106" on="1"/>
        <pt x="100" y="-124" on="1"/>
        <pt x="78" y="-137" on="0"/>
        <pt x="48" y="-137" on="1"/>
        <pt x="24" y="-136" on="0"/>
        <pt x="-7" y="-112" on="0"/>
        <pt x="-7" y="-87" on="1"/>
        <pt x="-7" y="-65" on="0"/>
        <pt x="18" y="-19" on="0"/>
        <pt x="41" y="0" on="1"/>
        <pt x="39" y="0" on="1"/>
        <pt x="40" y="700" on="1"/>
        <pt x="62" y="700" on="1"/>
        <pt x="62" y="0" on="1"/>
        <pt x="59" y="0" on="1"/>
      </contour>
    </TTGlyph>
    <TTGlyph name="Itilde" xMin="-47" yMin="0" xMax="151" yMax="811">
      <contour>
        <pt x="132" y="756" on="0"/>
        <pt x="102" y="756" on="1"/>
        <pt x="90" y="756" on="0"/>
        <pt x="71" y="765" on="0"/>
        <pt x="54" y="775" on="1"/>
        <pt x="38" y="784" on="0"/>
        <pt x="20" y="793" on="0"/>
        <pt x="9" y="793" on="1"/>
        <pt x="-15" y="793" on="0"/>
        <pt x="-33" y="762" on="1"/>
        <pt x="-47" y="771" on="1"/>
        <pt x="-37" y="789" on="0"/>
        <pt x="-9" y="811" on="0"/>
        <pt x="8" y="811" on="1"/>
        <pt x="29" y="811" on="0"/>
        <pt x="59" y="791" on="1"/>
        <pt x="74" y="782" on="0"/>
        <pt x="92" y="774" on="0"/>
        <pt x="101" y="774" on="1"/>
        <pt x="112" y="774" on="0"/>
        <pt x="129" y="791" on="0"/>
        <pt x="137" y="805" on="1"/>
        <pt x="151" y="796" on="1"/>
      </contour>
      <contour>
        <pt x="62" y="0" on="1"/>
        <pt x="40" y="0" on="1"/>
        <pt x="40" y="700" on="1"/>
        <pt x="62" y="700" on="1"/>
      </contour>
    </TTGlyph>
    <TTGlyph name="J" xMin="36" yMin="-1" xMax="213" yMax="700">
      <contour>
        <pt x="49" y="21" on="1"/>
        <pt x="124" y="21" on="0"/>
        <pt x="191" y="89" on="0"/>
        <pt x="191" y="170" on="1"/>
        <pt x="191" y="700" on="1"/>
        <pt x="213" y="700" on="1"/>
        <pt x="213" y="171" on="1"/>
        <pt x="213" y="86" on="0"/>
        <pt x="146" y="6" on="0"/>
        <pt x="80" y="1" on="1"/>
        <pt x="52" y="-1" on="0"/>
        <pt x="36" y="0" on="1"/>
        <pt x="36" y="21" on="1"/>
      </contour>
    </TTGlyph>
    <TTGlyph name="Jcircumflex" xMin="36" yMin="-1" xMax="291" yMax="825">
      <contour>
        <pt x="108" y="743" on="1"/>
        <pt x="190" y="825" on="1"/>
        <pt x="208" y="825" on="1"/>
        <pt x="291" y="743" on="1"/>
        <pt x="267" y="743" on="1"/>
        <pt x="200" y="810" on="1"/>
        <pt x="132" y="743" on="1"/>
      </contour>
      <contour>
        <pt x="213" y="86" on="0"/>
        <pt x="146" y="6" on="0"/>
        <pt x="80" y="1" on="1"/>
        <pt x="52" y="-1" on="0"/>
        <pt x="36" y="0" on="1"/>
        <pt x="36" y="21" on="1"/>
        <pt x="49" y="21" on="1"/>
        <pt x="124" y="21" on="0"/>
        <pt x="191" y="89" on="0"/>
        <pt x="191" y="170" on="1"/>
        <pt x="191" y="700" on="1"/>
        <pt x="213" y="700" on="1"/>
        <pt x="213" y="171" on="1"/>
      </contour>
    </TTGlyph>
    <TTGlyph name="K" xMin="40" yMin="0" xMax="364" yMax="700">
      <contour>
        <pt x="62" y="268" on="1"/>
        <pt x="62" y="0" on="1"/>
        <pt x="40" y="0" on="1"/>
        <pt x="40" y="700" on="1"/>
        <pt x="62" y="700" on="1"/>
        <pt x="62" y="305" on="1"/>
        <pt x="322" y="700" on="1"/>
        <pt x="346" y="700" on="1"/>
        <pt x="129" y="369" on="1"/>
        <pt x="364" y="0" on="1"/>
        <pt x="340" y="0" on="1"/>
        <pt x="115" y="348" on="1"/>
      </contour>
    </TTGlyph>
    <TTGlyph name="L" xMin="40" yMin="0" xMax="297" yMax="700">
      <contour>
        <pt x="40" y="700" on="1"/>
        <pt x="62" y="700" on="1"/>
        <pt x="62" y="21" on="1"/>
        <pt x="297" y="21" on="1"/>
        <pt x="297" y="0" on="1"/>
        <pt x="40" y="0" on="1"/>
      </contour>
    </TTGlyph>
    <TTGlyph name="Lacute" xMin="37" yMin="0" xMax="297" yMax="830">
      <contour>
        <pt x="57" y="741" on="1"/>
        <pt x="37" y="741" on="1"/>
        <pt x="109" y="830" on="1"/>
        <pt x="134" y="830" on="1"/>
      </contour>
      <contour>
        <pt x="40" y="700" on="1"/>
        <pt x="62" y="700" on="1"/>
        <pt x="62" y="21" on="1"/>
        <pt x="297" y="21" on="1"/>
        <pt x="297" y="0" on="1"/>
        <pt x="40" y="0" on="1"/>
      </contour>
    </TTGlyph>
    <TTGlyph name="Lcaron" xMin="40" yMin="0" xMax="297" yMax="700">
      <contour>
        <pt x="40" y="700" on="1"/>
        <pt x="62" y="700" on="1"/>
        <pt x="62" y="21" on="1"/>
        <pt x="297" y="21" on="1"/>
        <pt x="297" y="0" on="1"/>
        <pt x="40" y="0" on="1"/>
      </contour>
      <contour>
        <pt x="217" y="619" on="1"/>
        <pt x="217" y="700" on="1"/>
        <pt x="239" y="700" on="1"/>
        <pt x="239" y="620" on="1"/>
        <pt x="217" y="552" on="1"/>
        <pt x="206" y="552" on="1"/>
        <pt x="223" y="619" on="1"/>
      </contour>
    </TTGlyph>
    <TTGlyph name="Ldot" xMin="40" yMin="0" xMax="297" yMax="700">
      <contour>
        <pt x="40" y="700" on="1"/>
        <pt x="62" y="700" on="1"/>
        <pt x="62" y="21" on="1"/>
        <pt x="297" y="21" on="1"/>
        <pt x="297" y="0" on="1"/>
        <pt x="40" y="0" on="1"/>
      </contour>
      <contour>
        <pt x="197" y="314" on="1"/>
        <pt x="176" y="314" on="1"/>
        <pt x="176" y="395" on="1"/>
        <pt x="197" y="395" on="1"/>
      </contour>
    </TTGlyph>
    <TTGlyph name="Lslash" xMin="0" yMin="0" xMax="311" yMax="700">
      <contour>
        <pt x="76" y="21" on="1"/>
        <pt x="311" y="21" on="1"/>
        <pt x="311" y="0" on="1"/>
        <pt x="54" y="0" on="1"/>
        <pt x="54" y="313" on="1"/>
        <pt x="0" y="266" on="1"/>
        <pt x="0" y="289" on="1"/>
        <pt x="54" y="337" on="1"/>
        <pt x="54" y="700" on="1"/>
        <pt x="76" y="700" on="1"/>
        <pt x="76" y="360" on="1"/>
        <pt x="163" y="442" on="1"/>
        <pt x="163" y="419" on="1"/>
        <pt x="76" y="336" on="1"/>
      </contour>
    </TTGlyph>
    <TTGlyph name="M" xMin="40" yMin="0" xMax="452" yMax="700">
      <contour>
        <pt x="233" y="2" on="1"/>
        <pt x="60" y="667" on="1"/>
        <pt x="60" y="0" on="1"/>
        <pt x="40" y="0" on="1"/>
        <pt x="40" y="700" on="1"/>
        <pt x="74" y="700" on="1"/>
        <pt x="246" y="36" on="1"/>
        <pt x="418" y="700" on="1"/>
        <pt x="452" y="700" on="1"/>
        <pt x="452" y="0" on="1"/>
        <pt x="430" y="0" on="1"/>
        <pt x="430" y="667" on="1"/>
        <pt x="258" y="2" on="1"/>
      </contour>
    </TTGlyph>
    <TTGlyph name="N" xMin="40" yMin="0" xMax="338" yMax="700">
      <contour>
        <pt x="40" y="0" on="1"/>
        <pt x="40" y="700" on="1"/>
        <pt x="71" y="700" on="1"/>
        <pt x="317" y="45" on="1"/>
        <pt x="317" y="700" on="1"/>
        <pt x="338" y="700" on="1"/>
        <pt x="338" y="0" on="1"/>
        <pt x="311" y="0" on="1"/>
        <pt x="61" y="668" on="1"/>
        <pt x="61" y="0" on="1"/>
      </contour>
    </TTGlyph>
    <TTGlyph name="Nacute" xMin="40" yMin="1" xMax="338" yMax="833">
      <contour>
        <pt x="187" y="744" on="1"/>
        <pt x="166" y="744" on="1"/>
        <pt x="239" y="833" on="1"/>
        <pt x="264" y="833" on="1"/>
      </contour>
      <contour>
        <pt x="40" y="1" on="1"/>
        <pt x="40" y="701" on="1"/>
        <pt x="71" y="701" on="1"/>
        <pt x="317" y="46" on="1"/>
        <pt x="317" y="701" on="1"/>
        <pt x="338" y="701" on="1"/>
        <pt x="338" y="1" on="1"/>
        <pt x="311" y="1" on="1"/>
        <pt x="61" y="669" on="1"/>
        <pt x="61" y="1" on="1"/>
      </contour>
    </TTGlyph>
    <TTGlyph name="Ncaron" xMin="40" yMin="0" xMax="338" yMax="830">
      <contour>
        <pt x="191" y="764" on="1"/>
        <pt x="258" y="830" on="1"/>
        <pt x="282" y="830" on="1"/>
        <pt x="200" y="748" on="1"/>
        <pt x="182" y="748" on="1"/>
        <pt x="100" y="830" on="1"/>
        <pt x="123" y="830" on="1"/>
      </contour>
      <contour>
        <pt x="40" y="0" on="1"/>
        <pt x="40" y="700" on="1"/>
        <pt x="71" y="700" on="1"/>
        <pt x="317" y="45" on="1"/>
        <pt x="317" y="700" on="1"/>
        <pt x="338" y="700" on="1"/>
        <pt x="338" y="0" on="1"/>
        <pt x="311" y="0" on="1"/>
        <pt x="61" y="668" on="1"/>
        <pt x="61" y="0" on="1"/>
      </contour>
    </TTGlyph>
    <TTGlyph name="Ntilde" xMin="40" yMin="0" xMax="338" yMax="816">
      <contour>
        <pt x="271" y="762" on="0"/>
        <pt x="238" y="762" on="1"/>
        <pt x="220" y="762" on="0"/>
        <pt x="191" y="781" on="1"/>
        <pt x="181" y="787" on="0"/>
        <pt x="158" y="798" on="0"/>
        <pt x="148" y="798" on="1"/>
        <pt x="123" y="798" on="0"/>
        <pt x="105" y="767" on="1"/>
        <pt x="91" y="776" on="1"/>
        <pt x="101" y="794" on="0"/>
        <pt x="129" y="816" on="0"/>
        <pt x="146" y="816" on="1"/>
        <pt x="158" y="816" on="0"/>
        <pt x="179" y="807" on="0"/>
        <pt x="197" y="797" on="1"/>
        <pt x="213" y="788" on="0"/>
        <pt x="231" y="779" on="0"/>
        <pt x="240" y="780" on="1"/>
        <pt x="258" y="780" on="0"/>
        <pt x="275" y="810" on="1"/>
        <pt x="289" y="801" on="1"/>
      </contour>
      <contour>
        <pt x="40" y="0" on="1"/>
        <pt x="40" y="700" on="1"/>
        <pt x="71" y="700" on="1"/>
        <pt x="317" y="45" on="1"/>
        <pt x="317" y="700" on="1"/>
        <pt x="338" y="700" on="1"/>
        <pt x="338" y="0" on="1"/>
        <pt x="311" y="0" on="1"/>
        <pt x="61" y="668" on="1"/>
        <pt x="61" y="0" on="1"/>
      </contour>
    </TTGlyph>
    <TTGlyph name="O" xMin="39" yMin="-5" xMax="337" yMax="705">
      <contour>
        <pt x="39" y="615" on="0"/>
        <pt x="114" y="705" on="0"/>
        <pt x="187" y="705" on="1"/>
        <pt x="261" y="705" on="0"/>
        <pt x="337" y="615" on="0"/>
        <pt x="337" y="528" on="1"/>
        <pt x="337" y="172" on="1"/>
        <pt x="337" y="85" on="0"/>
        <pt x="261" y="-5" on="0"/>
        <pt x="187" y="-5" on="1"/>
        <pt x="114" y="-5" on="0"/>
        <pt x="39" y="85" on="0"/>
        <pt x="39" y="172" on="1"/>
        <pt x="39" y="528" on="1"/>
      </contour>
      <contour>
        <pt x="61" y="94" on="0"/>
        <pt x="125" y="15" on="0"/>
        <pt x="187" y="15" on="1"/>
        <pt x="250" y="15" on="0"/>
        <pt x="315" y="94" on="0"/>
        <pt x="315" y="171" on="1"/>
        <pt x="315" y="529" on="1"/>
        <pt x="315" y="606" on="0"/>
        <pt x="250" y="685" on="0"/>
        <pt x="187" y="685" on="1"/>
        <pt x="125" y="685" on="0"/>
        <pt x="61" y="606" on="0"/>
        <pt x="61" y="529" on="1"/>
        <pt x="61" y="171" on="1"/>
      </contour>
    </TTGlyph>
    <TTGlyph name="OE" xMin="39" yMin="0" xMax="523" yMax="700">
      <contour>
        <pt x="489" y="345" on="1"/>
        <pt x="312" y="345" on="1"/>
        <pt x="312" y="21" on="1"/>
        <pt x="523" y="21" on="1"/>
        <pt x="523" y="0" on="1"/>
        <pt x="177" y="0" on="1"/>
        <pt x="105" y="0" on="0"/>
        <pt x="39" y="98" on="0"/>
        <pt x="39" y="175" on="1"/>
        <pt x="39" y="525" on="1"/>
        <pt x="39" y="602" on="0"/>
        <pt x="105" y="700" on="0"/>
        <pt x="177" y="700" on="1"/>
        <pt x="523" y="700" on="1"/>
        <pt x="523" y="679" on="1"/>
        <pt x="312" y="679" on="1"/>
        <pt x="312" y="365" on="1"/>
        <pt x="489" y="365" on="1"/>
      </contour>
      <contour>
        <pt x="116" y="679" on="0"/>
        <pt x="61" y="593" on="0"/>
        <pt x="61" y="526" on="1"/>
        <pt x="61" y="174" on="1"/>
        <pt x="61" y="107" on="0"/>
        <pt x="116" y="21" on="0"/>
        <pt x="178" y="21" on="1"/>
        <pt x="290" y="21" on="1"/>
        <pt x="290" y="679" on="1"/>
        <pt x="178" y="679" on="1"/>
      </contour>
    </TTGlyph>
    <TTGlyph name="Oacute" xMin="39" yMin="-5" xMax="337" yMax="839">
      <contour>
        <pt x="177" y="750" on="1"/>
        <pt x="157" y="750" on="1"/>
        <pt x="229" y="839" on="1"/>
        <pt x="254" y="839" on="1"/>
      </contour>
      <contour>
        <pt x="264" y="705" on="0"/>
        <pt x="337" y="607" on="0"/>
        <pt x="337" y="528" on="1"/>
        <pt x="337" y="172" on="1"/>
        <pt x="337" y="93" on="0"/>
        <pt x="264" y="-5" on="0"/>
        <pt x="187" y="-5" on="1"/>
        <pt x="112" y="-5" on="0"/>
        <pt x="39" y="93" on="0"/>
        <pt x="39" y="172" on="1"/>
        <pt x="39" y="528" on="1"/>
        <pt x="39" y="607" on="0"/>
        <pt x="112" y="705" on="0"/>
        <pt x="187" y="705" on="1"/>
      </contour>
      <contour>
        <pt x="121" y="685" on="0"/>
        <pt x="61" y="599" on="0"/>
        <pt x="61" y="529" on="1"/>
        <pt x="61" y="171" on="1"/>
        <pt x="61" y="101" on="0"/>
        <pt x="121" y="15" on="0"/>
        <pt x="187" y="15" on="1"/>
        <pt x="253" y="15" on="0"/>
        <pt x="315" y="101" on="0"/>
        <pt x="315" y="171" on="1"/>
        <pt x="315" y="529" on="1"/>
        <pt x="315" y="599" on="0"/>
        <pt x="253" y="685" on="0"/>
        <pt x="187" y="685" on="1"/>
      </contour>
    </TTGlyph>
    <TTGlyph name="Obreve" xMin="39" yMin="-5" xMax="337" yMax="829">
      <contour>
        <pt x="278" y="793" on="0"/>
        <pt x="225" y="751" on="0"/>
        <pt x="187" y="751" on="1"/>
        <pt x="150" y="751" on="0"/>
        <pt x="98" y="792" on="0"/>
        <pt x="97" y="829" on="1"/>
        <pt x="113" y="829" on="1"/>
        <pt x="114" y="799" on="0"/>
        <pt x="157" y="768" on="0"/>
        <pt x="187" y="768" on="1"/>
        <pt x="218" y="768" on="0"/>
        <pt x="261" y="799" on="0"/>
        <pt x="263" y="829" on="1"/>
        <pt x="279" y="829" on="1"/>
      </contour>
      <contour>
        <pt x="264" y="705" on="0"/>
        <pt x="337" y="607" on="0"/>
        <pt x="337" y="528" on="1"/>
        <pt x="337" y="172" on="1"/>
        <pt x="337" y="93" on="0"/>
        <pt x="264" y="-5" on="0"/>
        <pt x="187" y="-5" on="1"/>
        <pt x="112" y="-5" on="0"/>
        <pt x="39" y="93" on="0"/>
        <pt x="39" y="172" on="1"/>
        <pt x="39" y="528" on="1"/>
        <pt x="39" y="607" on="0"/>
        <pt x="112" y="705" on="0"/>
        <pt x="187" y="705" on="1"/>
      </contour>
      <contour>
        <pt x="121" y="685" on="0"/>
        <pt x="61" y="599" on="0"/>
        <pt x="61" y="529" on="1"/>
        <pt x="61" y="171" on="1"/>
        <pt x="61" y="101" on="0"/>
        <pt x="121" y="15" on="0"/>
        <pt x="187" y="15" on="1"/>
        <pt x="253" y="15" on="0"/>
        <pt x="315" y="101" on="0"/>
        <pt x="315" y="171" on="1"/>
        <pt x="315" y="529" on="1"/>
        <pt x="315" y="599" on="0"/>
        <pt x="253" y="685" on="0"/>
        <pt x="187" y="685" on="1"/>
      </contour>
    </TTGlyph>
    <TTGlyph name="Ocircumflex" xMin="39" yMin="-5" xMax="337" yMax="830">
      <contour>
        <pt x="96" y="748" on="1"/>
        <pt x="178" y="830" on="1"/>
        <pt x="196" y="830" on="1"/>
        <pt x="279" y="748" on="1"/>
        <pt x="254" y="748" on="1"/>
        <pt x="187" y="815" on="1"/>
        <pt x="120" y="748" on="1"/>
      </contour>
      <contour>
        <pt x="264" y="705" on="0"/>
        <pt x="337" y="607" on="0"/>
        <pt x="337" y="528" on="1"/>
        <pt x="337" y="172" on="1"/>
        <pt x="337" y="93" on="0"/>
        <pt x="264" y="-5" on="0"/>
        <pt x="187" y="-5" on="1"/>
        <pt x="112" y="-5" on="0"/>
        <pt x="39" y="93" on="0"/>
        <pt x="39" y="172" on="1"/>
        <pt x="39" y="528" on="1"/>
        <pt x="39" y="607" on="0"/>
        <pt x="112" y="705" on="0"/>
        <pt x="187" y="705" on="1"/>
      </contour>
      <contour>
        <pt x="121" y="685" on="0"/>
        <pt x="61" y="599" on="0"/>
        <pt x="61" y="529" on="1"/>
        <pt x="61" y="171" on="1"/>
        <pt x="61" y="101" on="0"/>
        <pt x="121" y="15" on="0"/>
        <pt x="187" y="15" on="1"/>
        <pt x="253" y="15" on="0"/>
        <pt x="315" y="101" on="0"/>
        <pt x="315" y="171" on="1"/>
        <pt x="315" y="529" on="1"/>
        <pt x="315" y="599" on="0"/>
        <pt x="253" y="685" on="0"/>
        <pt x="187" y="685" on="1"/>
      </contour>
    </TTGlyph>
    <TTGlyph name="Odieresis" xMin="39" yMin="-5" xMax="337" yMax="829">
      <contour>
        <pt x="159" y="748" on="1"/>
        <pt x="139" y="748" on="1"/>
        <pt x="139" y="829" on="1"/>
        <pt x="159" y="829" on="1"/>
      </contour>
      <contour>
        <pt x="236" y="748" on="1"/>
        <pt x="215" y="748" on="1"/>
        <pt x="215" y="829" on="1"/>
        <pt x="236" y="829" on="1"/>
      </contour>
      <contour>
        <pt x="264" y="705" on="0"/>
        <pt x="337" y="607" on="0"/>
        <pt x="337" y="528" on="1"/>
        <pt x="337" y="172" on="1"/>
        <pt x="337" y="93" on="0"/>
        <pt x="264" y="-5" on="0"/>
        <pt x="187" y="-5" on="1"/>
        <pt x="112" y="-5" on="0"/>
        <pt x="39" y="93" on="0"/>
        <pt x="39" y="172" on="1"/>
        <pt x="39" y="528" on="1"/>
        <pt x="39" y="607" on="0"/>
        <pt x="112" y="705" on="0"/>
        <pt x="187" y="705" on="1"/>
      </contour>
      <contour>
        <pt x="121" y="685" on="0"/>
        <pt x="61" y="599" on="0"/>
        <pt x="61" y="529" on="1"/>
        <pt x="61" y="171" on="1"/>
        <pt x="61" y="101" on="0"/>
        <pt x="121" y="15" on="0"/>
        <pt x="187" y="15" on="1"/>
        <pt x="253" y="15" on="0"/>
        <pt x="315" y="101" on="0"/>
        <pt x="315" y="171" on="1"/>
        <pt x="315" y="529" on="1"/>
        <pt x="315" y="599" on="0"/>
        <pt x="253" y="685" on="0"/>
        <pt x="187" y="685" on="1"/>
      </contour>
    </TTGlyph>
    <TTGlyph name="Ograve" xMin="39" yMin="-5" xMax="337" yMax="839">
      <contour>
        <pt x="218" y="750" on="1"/>
        <pt x="197" y="750" on="1"/>
        <pt x="120" y="839" on="1"/>
        <pt x="146" y="839" on="1"/>
      </contour>
      <contour>
        <pt x="264" y="705" on="0"/>
        <pt x="337" y="607" on="0"/>
        <pt x="337" y="528" on="1"/>
        <pt x="337" y="172" on="1"/>
        <pt x="337" y="93" on="0"/>
        <pt x="264" y="-5" on="0"/>
        <pt x="187" y="-5" on="1"/>
        <pt x="112" y="-5" on="0"/>
        <pt x="39" y="93" on="0"/>
        <pt x="39" y="172" on="1"/>
        <pt x="39" y="528" on="1"/>
        <pt x="39" y="607" on="0"/>
        <pt x="112" y="705" on="0"/>
        <pt x="187" y="705" on="1"/>
      </contour>
      <contour>
        <pt x="121" y="685" on="0"/>
        <pt x="61" y="599" on="0"/>
        <pt x="61" y="529" on="1"/>
        <pt x="61" y="171" on="1"/>
        <pt x="61" y="101" on="0"/>
        <pt x="121" y="15" on="0"/>
        <pt x="187" y="15" on="1"/>
        <pt x="253" y="15" on="0"/>
        <pt x="315" y="101" on="0"/>
        <pt x="315" y="171" on="1"/>
        <pt x="315" y="529" on="1"/>
        <pt x="315" y="599" on="0"/>
        <pt x="253" y="685" on="0"/>
        <pt x="187" y="685" on="1"/>
      </contour>
    </TTGlyph>
    <TTGlyph name="Ohungarumlaut" xMin="39" yMin="-5" xMax="337" yMax="839">
      <contour>
        <pt x="152" y="750" on="1"/>
        <pt x="132" y="750" on="1"/>
        <pt x="202" y="839" on="1"/>
        <pt x="227" y="839" on="1"/>
      </contour>
      <contour>
        <pt x="219" y="750" on="1"/>
        <pt x="200" y="750" on="1"/>
        <pt x="270" y="839" on="1"/>
        <pt x="294" y="839" on="1"/>
      </contour>
      <contour>
        <pt x="264" y="705" on="0"/>
        <pt x="337" y="607" on="0"/>
        <pt x="337" y="528" on="1"/>
        <pt x="337" y="172" on="1"/>
        <pt x="337" y="93" on="0"/>
        <pt x="264" y="-5" on="0"/>
        <pt x="187" y="-5" on="1"/>
        <pt x="112" y="-5" on="0"/>
        <pt x="39" y="93" on="0"/>
        <pt x="39" y="172" on="1"/>
        <pt x="39" y="528" on="1"/>
        <pt x="39" y="607" on="0"/>
        <pt x="112" y="705" on="0"/>
        <pt x="187" y="705" on="1"/>
      </contour>
      <contour>
        <pt x="121" y="685" on="0"/>
        <pt x="61" y="599" on="0"/>
        <pt x="61" y="529" on="1"/>
        <pt x="61" y="171" on="1"/>
        <pt x="61" y="101" on="0"/>
        <pt x="121" y="15" on="0"/>
        <pt x="187" y="15" on="1"/>
        <pt x="253" y="15" on="0"/>
        <pt x="315" y="101" on="0"/>
        <pt x="315" y="171" on="1"/>
        <pt x="315" y="529" on="1"/>
        <pt x="315" y="599" on="0"/>
        <pt x="253" y="685" on="0"/>
        <pt x="187" y="685" on="1"/>
      </contour>
    </TTGlyph>
    <TTGlyph name="Omacron" xMin="39" yMin="-5" xMax="337" yMax="785">
      <contour>
        <pt x="274" y="767" on="1"/>
        <pt x="104" y="767" on="1"/>
        <pt x="104" y="785" on="1"/>
        <pt x="274" y="785" on="1"/>
      </contour>
      <contour>
        <pt x="264" y="705" on="0"/>
        <pt x="337" y="607" on="0"/>
        <pt x="337" y="528" on="1"/>
        <pt x="337" y="172" on="1"/>
        <pt x="337" y="93" on="0"/>
        <pt x="264" y="-5" on="0"/>
        <pt x="187" y="-5" on="1"/>
        <pt x="112" y="-5" on="0"/>
        <pt x="39" y="93" on="0"/>
        <pt x="39" y="172" on="1"/>
        <pt x="39" y="528" on="1"/>
        <pt x="39" y="607" on="0"/>
        <pt x="112" y="705" on="0"/>
        <pt x="187" y="705" on="1"/>
      </contour>
      <contour>
        <pt x="121" y="685" on="0"/>
        <pt x="61" y="599" on="0"/>
        <pt x="61" y="529" on="1"/>
        <pt x="61" y="171" on="1"/>
        <pt x="61" y="101" on="0"/>
        <pt x="121" y="15" on="0"/>
        <pt x="187" y="15" on="1"/>
        <pt x="253" y="15" on="0"/>
        <pt x="315" y="101" on="0"/>
        <pt x="315" y="171" on="1"/>
        <pt x="315" y="529" on="1"/>
        <pt x="315" y="599" on="0"/>
        <pt x="253" y="685" on="0"/>
        <pt x="187" y="685" on="1"/>
      </contour>
    </TTGlyph>
    <TTGlyph name="Oslash" xMin="39" yMin="-7" xMax="337" yMax="705">
      <contour>
        <pt x="337" y="600" on="0"/>
        <pt x="337" y="528" on="1"/>
        <pt x="337" y="172" on="1"/>
        <pt x="337" y="85" on="0"/>
        <pt x="261" y="-5" on="0"/>
        <pt x="187" y="-5" on="1"/>
        <pt x="114" y="-5" on="0"/>
        <pt x="76" y="41" on="1"/>
        <pt x="57" y="-7" on="1"/>
        <pt x="41" y="-2" on="1"/>
        <pt x="64" y="58" on="1"/>
        <pt x="39" y="102" on="0"/>
        <pt x="39" y="172" on="1"/>
        <pt x="39" y="528" on="1"/>
        <pt x="39" y="615" on="0"/>
        <pt x="114" y="705" on="0"/>
        <pt x="187" y="705" on="1"/>
        <pt x="262" y="705" on="0"/>
        <pt x="299" y="660" on="1"/>
        <pt x="316" y="704" on="1"/>
        <pt x="332" y="699" on="1"/>
        <pt x="311" y="644" on="1"/>
      </contour>
      <contour>
        <pt x="61" y="121" on="0"/>
        <pt x="75" y="85" on="1"/>
        <pt x="290" y="636" on="1"/>
        <pt x="257" y="685" on="0"/>
        <pt x="187" y="685" on="1"/>
        <pt x="125" y="685" on="0"/>
        <pt x="61" y="606" on="0"/>
        <pt x="61" y="529" on="1"/>
        <pt x="61" y="171" on="1"/>
      </contour>
      <contour>
        <pt x="315" y="581" on="0"/>
        <pt x="300" y="617" on="1"/>
        <pt x="85" y="65" on="1"/>
        <pt x="117" y="15" on="0"/>
        <pt x="187" y="15" on="1"/>
        <pt x="250" y="15" on="0"/>
        <pt x="315" y="94" on="0"/>
        <pt x="315" y="171" on="1"/>
        <pt x="315" y="529" on="1"/>
      </contour>
    </TTGlyph>
    <TTGlyph name="Oslashacute" xMin="39" yMin="-7" xMax="337" yMax="839">
      <contour>
        <pt x="263" y="839" on="1"/>
        <pt x="186" y="750" on="1"/>
        <pt x="166" y="750" on="1"/>
        <pt x="238" y="839" on="1"/>
      </contour>
      <contour>
        <pt x="337" y="600" on="0"/>
        <pt x="337" y="528" on="1"/>
        <pt x="337" y="172" on="1"/>
        <pt x="337" y="85" on="0"/>
        <pt x="261" y="-5" on="0"/>
        <pt x="187" y="-5" on="1"/>
        <pt x="114" y="-5" on="0"/>
        <pt x="76" y="41" on="1"/>
        <pt x="57" y="-7" on="1"/>
        <pt x="41" y="-2" on="1"/>
        <pt x="64" y="58" on="1"/>
        <pt x="39" y="102" on="0"/>
        <pt x="39" y="172" on="1"/>
        <pt x="39" y="528" on="1"/>
        <pt x="39" y="615" on="0"/>
        <pt x="114" y="705" on="0"/>
        <pt x="187" y="705" on="1"/>
        <pt x="262" y="705" on="0"/>
        <pt x="299" y="660" on="1"/>
        <pt x="316" y="704" on="1"/>
        <pt x="332" y="699" on="1"/>
        <pt x="311" y="644" on="1"/>
      </contour>
      <contour>
        <pt x="61" y="121" on="0"/>
        <pt x="75" y="85" on="1"/>
        <pt x="290" y="636" on="1"/>
        <pt x="257" y="685" on="0"/>
        <pt x="187" y="685" on="1"/>
        <pt x="125" y="685" on="0"/>
        <pt x="61" y="606" on="0"/>
        <pt x="61" y="529" on="1"/>
        <pt x="61" y="171" on="1"/>
      </contour>
      <contour>
        <pt x="315" y="581" on="0"/>
        <pt x="300" y="617" on="1"/>
        <pt x="85" y="65" on="1"/>
        <pt x="117" y="15" on="0"/>
        <pt x="187" y="15" on="1"/>
        <pt x="250" y="15" on="0"/>
        <pt x="315" y="94" on="0"/>
        <pt x="315" y="171" on="1"/>
        <pt x="315" y="529" on="1"/>
      </contour>
    </TTGlyph>
    <TTGlyph name="Otilde" xMin="39" yMin="-5" xMax="337" yMax="812">
      <contour>
        <pt x="274" y="758" on="0"/>
        <pt x="241" y="758" on="1"/>
        <pt x="222" y="758" on="0"/>
        <pt x="194" y="777" on="1"/>
        <pt x="178" y="786" on="0"/>
        <pt x="160" y="795" on="0"/>
        <pt x="149" y="795" on="1"/>
        <pt x="124" y="795" on="0"/>
        <pt x="108" y="764" on="1"/>
        <pt x="94" y="773" on="1"/>
        <pt x="104" y="791" on="0"/>
        <pt x="132" y="812" on="0"/>
        <pt x="149" y="812" on="1"/>
        <pt x="162" y="812" on="0"/>
        <pt x="183" y="803" on="0"/>
        <pt x="199" y="793" on="1"/>
        <pt x="212" y="784" on="0"/>
        <pt x="231" y="776" on="0"/>
        <pt x="240" y="776" on="1"/>
        <pt x="263" y="776" on="0"/>
        <pt x="277" y="807" on="1"/>
        <pt x="292" y="798" on="1"/>
      </contour>
      <contour>
        <pt x="264" y="705" on="0"/>
        <pt x="337" y="607" on="0"/>
        <pt x="337" y="528" on="1"/>
        <pt x="337" y="172" on="1"/>
        <pt x="337" y="93" on="0"/>
        <pt x="264" y="-5" on="0"/>
        <pt x="187" y="-5" on="1"/>
        <pt x="112" y="-5" on="0"/>
        <pt x="39" y="93" on="0"/>
        <pt x="39" y="172" on="1"/>
        <pt x="39" y="528" on="1"/>
        <pt x="39" y="607" on="0"/>
        <pt x="112" y="705" on="0"/>
        <pt x="187" y="705" on="1"/>
      </contour>
      <contour>
        <pt x="121" y="685" on="0"/>
        <pt x="61" y="599" on="0"/>
        <pt x="61" y="529" on="1"/>
        <pt x="61" y="171" on="1"/>
        <pt x="61" y="101" on="0"/>
        <pt x="121" y="15" on="0"/>
        <pt x="187" y="15" on="1"/>
        <pt x="253" y="15" on="0"/>
        <pt x="315" y="101" on="0"/>
        <pt x="315" y="171" on="1"/>
        <pt x="315" y="529" on="1"/>
        <pt x="315" y="599" on="0"/>
        <pt x="253" y="685" on="0"/>
        <pt x="187" y="685" on="1"/>
      </contour>
    </TTGlyph>
    <TTGlyph name="P" xMin="40" yMin="0" xMax="323" yMax="700">
      <contour>
        <pt x="323" y="700" on="0"/>
        <pt x="323" y="531" on="1"/>
        <pt x="323" y="461" on="1"/>
        <pt x="323" y="377" on="0"/>
        <pt x="245" y="297" on="0"/>
        <pt x="162" y="297" on="1"/>
        <pt x="62" y="297" on="1"/>
        <pt x="62" y="0" on="1"/>
        <pt x="40" y="0" on="1"/>
        <pt x="40" y="700" on="1"/>
        <pt x="178" y="700" on="1"/>
      </contour>
      <contour>
        <pt x="235" y="318" on="0"/>
        <pt x="301" y="386" on="0"/>
        <pt x="301" y="460" on="1"/>
        <pt x="301" y="532" on="1"/>
        <pt x="301" y="602" on="0"/>
        <pt x="245" y="679" on="0"/>
        <pt x="178" y="679" on="1"/>
        <pt x="62" y="679" on="1"/>
        <pt x="62" y="318" on="1"/>
        <pt x="162" y="318" on="1"/>
      </contour>
    </TTGlyph>
    <TTGlyph name="Q" xMin="39" yMin="-10" xMax="375" yMax="705">
      <contour>
        <pt x="264" y="705" on="0"/>
        <pt x="338" y="607" on="0"/>
        <pt x="338" y="528" on="1"/>
        <pt x="338" y="172" on="1"/>
        <pt x="338" y="90" on="0"/>
        <pt x="300" y="43" on="1"/>
        <pt x="311" y="25" on="0"/>
        <pt x="342" y="10" on="0"/>
        <pt x="364" y="10" on="1"/>
        <pt x="375" y="10" on="1"/>
        <pt x="375" y="-10" on="1"/>
        <pt x="364" y="-10" on="1"/>
        <pt x="310" y="-10" on="0"/>
        <pt x="286" y="29" on="1"/>
        <pt x="249" y="-5" on="0"/>
        <pt x="188" y="-5" on="1"/>
        <pt x="112" y="-5" on="0"/>
        <pt x="39" y="93" on="0"/>
        <pt x="39" y="172" on="1"/>
        <pt x="39" y="528" on="1"/>
        <pt x="39" y="607" on="0"/>
        <pt x="112" y="705" on="0"/>
        <pt x="188" y="705" on="1"/>
      </contour>
      <contour>
        <pt x="122" y="685" on="0"/>
        <pt x="61" y="599" on="0"/>
        <pt x="61" y="529" on="1"/>
        <pt x="61" y="171" on="1"/>
        <pt x="61" y="101" on="0"/>
        <pt x="122" y="15" on="0"/>
        <pt x="188" y="15" on="1"/>
        <pt x="254" y="15" on="0"/>
        <pt x="316" y="101" on="0"/>
        <pt x="316" y="171" on="1"/>
        <pt x="316" y="529" on="1"/>
        <pt x="316" y="599" on="0"/>
        <pt x="254" y="685" on="0"/>
        <pt x="188" y="685" on="1"/>
      </contour>
    </TTGlyph>
    <TTGlyph name="R" xMin="40" yMin="0" xMax="342" yMax="700">
      <contour>
        <pt x="323" y="700" on="0"/>
        <pt x="323" y="543" on="1"/>
        <pt x="323" y="480" on="1"/>
        <pt x="323" y="415" on="0"/>
        <pt x="269" y="343" on="0"/>
        <pt x="212" y="333" on="1"/>
        <pt x="323" y="316" on="0"/>
        <pt x="323" y="193" on="1"/>
        <pt x="323" y="83" on="1"/>
        <pt x="323" y="26" on="0"/>
        <pt x="342" y="0" on="1"/>
        <pt x="318" y="0" on="1"/>
        <pt x="301" y="27" on="0"/>
        <pt x="301" y="83" on="1"/>
        <pt x="301" y="193" on="1"/>
        <pt x="301" y="266" on="0"/>
        <pt x="223" y="323" on="0"/>
        <pt x="148" y="323" on="1"/>
        <pt x="62" y="323" on="1"/>
        <pt x="62" y="0" on="1"/>
        <pt x="40" y="0" on="1"/>
        <pt x="40" y="700" on="1"/>
        <pt x="179" y="700" on="1"/>
      </contour>
      <contour>
        <pt x="226" y="344" on="0"/>
        <pt x="301" y="400" on="0"/>
        <pt x="301" y="477" on="1"/>
        <pt x="301" y="541" on="1"/>
        <pt x="301" y="608" on="0"/>
        <pt x="243" y="679" on="0"/>
        <pt x="178" y="679" on="1"/>
        <pt x="62" y="679" on="1"/>
        <pt x="62" y="344" on="1"/>
        <pt x="148" y="344" on="1"/>
      </contour>
    </TTGlyph>
    <TTGlyph name="Racute" xMin="40" yMin="0" xMax="342" yMax="839">
      <contour>
        <pt x="164" y="750" on="1"/>
        <pt x="144" y="750" on="1"/>
        <pt x="216" y="839" on="1"/>
        <pt x="242" y="839" on="1"/>
      </contour>
      <contour>
        <pt x="323" y="700" on="0"/>
        <pt x="323" y="543" on="1"/>
        <pt x="323" y="480" on="1"/>
        <pt x="323" y="415" on="0"/>
        <pt x="269" y="343" on="0"/>
        <pt x="212" y="333" on="1"/>
        <pt x="323" y="316" on="0"/>
        <pt x="323" y="193" on="1"/>
        <pt x="323" y="83" on="1"/>
        <pt x="323" y="26" on="0"/>
        <pt x="342" y="0" on="1"/>
        <pt x="318" y="0" on="1"/>
        <pt x="301" y="27" on="0"/>
        <pt x="301" y="83" on="1"/>
        <pt x="301" y="193" on="1"/>
        <pt x="301" y="266" on="0"/>
        <pt x="223" y="323" on="0"/>
        <pt x="148" y="323" on="1"/>
        <pt x="62" y="323" on="1"/>
        <pt x="62" y="0" on="1"/>
        <pt x="40" y="0" on="1"/>
        <pt x="40" y="700" on="1"/>
        <pt x="179" y="700" on="1"/>
      </contour>
      <contour>
        <pt x="226" y="344" on="0"/>
        <pt x="301" y="400" on="0"/>
        <pt x="301" y="477" on="1"/>
        <pt x="301" y="541" on="1"/>
        <pt x="301" y="608" on="0"/>
        <pt x="243" y="679" on="0"/>
        <pt x="178" y="679" on="1"/>
        <pt x="62" y="679" on="1"/>
        <pt x="62" y="344" on="1"/>
        <pt x="148" y="344" on="1"/>
      </contour>
    </TTGlyph>
    <TTGlyph name="Rcaron" xMin="40" yMin="0" xMax="342" yMax="831">
      <contour>
        <pt x="171" y="765" on="1"/>
        <pt x="238" y="831" on="1"/>
        <pt x="263" y="831" on="1"/>
        <pt x="180" y="749" on="1"/>
        <pt x="162" y="749" on="1"/>
        <pt x="80" y="831" on="1"/>
        <pt x="103" y="831" on="1"/>
      </contour>
      <contour>
        <pt x="323" y="700" on="0"/>
        <pt x="323" y="543" on="1"/>
        <pt x="323" y="480" on="1"/>
        <pt x="323" y="415" on="0"/>
        <pt x="269" y="343" on="0"/>
        <pt x="212" y="333" on="1"/>
        <pt x="323" y="316" on="0"/>
        <pt x="323" y="193" on="1"/>
        <pt x="323" y="83" on="1"/>
        <pt x="323" y="26" on="0"/>
        <pt x="342" y="0" on="1"/>
        <pt x="318" y="0" on="1"/>
        <pt x="301" y="27" on="0"/>
        <pt x="301" y="83" on="1"/>
        <pt x="301" y="193" on="1"/>
        <pt x="301" y="266" on="0"/>
        <pt x="223" y="323" on="0"/>
        <pt x="148" y="323" on="1"/>
        <pt x="62" y="323" on="1"/>
        <pt x="62" y="0" on="1"/>
        <pt x="40" y="0" on="1"/>
        <pt x="40" y="700" on="1"/>
        <pt x="179" y="700" on="1"/>
      </contour>
      <contour>
        <pt x="226" y="344" on="0"/>
        <pt x="301" y="400" on="0"/>
        <pt x="301" y="477" on="1"/>
        <pt x="301" y="541" on="1"/>
        <pt x="301" y="608" on="0"/>
        <pt x="243" y="679" on="0"/>
        <pt x="178" y="679" on="1"/>
        <pt x="62" y="679" on="1"/>
        <pt x="62" y="344" on="1"/>
        <pt x="148" y="344" on="1"/>
      </contour>
    </TTGlyph>
    <TTGlyph name="S" xMin="38" yMin="-5" xMax="331" yMax="705">
      <contour>
        <pt x="260" y="705" on="0"/>
        <pt x="330" y="609" on="0"/>
        <pt x="330" y="531" on="1"/>
        <pt x="330" y="518" on="1"/>
        <pt x="308" y="518" on="1"/>
        <pt x="308" y="532" on="1"/>
        <pt x="308" y="600" on="0"/>
        <pt x="250" y="685" on="0"/>
        <pt x="186" y="685" on="1"/>
        <pt x="121" y="685" on="0"/>
        <pt x="63" y="601" on="0"/>
        <pt x="63" y="533" on="1"/>
        <pt x="63" y="492" on="0"/>
        <pt x="98" y="430" on="0"/>
        <pt x="151" y="386" on="0"/>
        <pt x="194" y="357" on="1"/>
        <pt x="239" y="327" on="0"/>
        <pt x="294" y="281" on="0"/>
        <pt x="331" y="214" on="0"/>
        <pt x="331" y="169" on="1"/>
        <pt x="331" y="90" on="0"/>
        <pt x="260" y="-5" on="0"/>
        <pt x="184" y="-5" on="1"/>
        <pt x="109" y="-5" on="0"/>
        <pt x="38" y="90" on="0"/>
        <pt x="38" y="169" on="1"/>
        <pt x="38" y="203" on="1"/>
        <pt x="59" y="203" on="1"/>
        <pt x="59" y="168" on="1"/>
        <pt x="59" y="99" on="0"/>
        <pt x="119" y="16" on="0"/>
        <pt x="184" y="16" on="1"/>
        <pt x="249" y="16" on="0"/>
        <pt x="309" y="99" on="0"/>
        <pt x="309" y="168" on="1"/>
        <pt x="309" y="209" on="0"/>
        <pt x="274" y="269" on="0"/>
        <pt x="223" y="312" on="0"/>
        <pt x="179" y="341" on="1"/>
        <pt x="133" y="372" on="0"/>
        <pt x="79" y="418" on="0"/>
        <pt x="41" y="486" on="0"/>
        <pt x="41" y="532" on="1"/>
        <pt x="41" y="612" on="0"/>
        <pt x="112" y="704" on="0"/>
        <pt x="185" y="705" on="1"/>
      </contour>
    </TTGlyph>
    <TTGlyph name="Sacute" xMin="38" yMin="-5" xMax="331" yMax="839">
      <contour>
        <pt x="184" y="750" on="1"/>
        <pt x="163" y="750" on="1"/>
        <pt x="236" y="839" on="1"/>
        <pt x="261" y="839" on="1"/>
      </contour>
      <contour>
        <pt x="260" y="705" on="0"/>
        <pt x="330" y="609" on="0"/>
        <pt x="330" y="531" on="1"/>
        <pt x="330" y="518" on="1"/>
        <pt x="308" y="518" on="1"/>
        <pt x="308" y="532" on="1"/>
        <pt x="308" y="600" on="0"/>
        <pt x="250" y="685" on="0"/>
        <pt x="186" y="685" on="1"/>
        <pt x="121" y="685" on="0"/>
        <pt x="63" y="601" on="0"/>
        <pt x="63" y="533" on="1"/>
        <pt x="63" y="492" on="0"/>
        <pt x="98" y="430" on="0"/>
        <pt x="151" y="386" on="0"/>
        <pt x="194" y="357" on="1"/>
        <pt x="239" y="327" on="0"/>
        <pt x="294" y="281" on="0"/>
        <pt x="331" y="214" on="0"/>
        <pt x="331" y="169" on="1"/>
        <pt x="331" y="90" on="0"/>
        <pt x="260" y="-5" on="0"/>
        <pt x="184" y="-5" on="1"/>
        <pt x="109" y="-5" on="0"/>
        <pt x="38" y="90" on="0"/>
        <pt x="38" y="169" on="1"/>
        <pt x="38" y="203" on="1"/>
        <pt x="59" y="203" on="1"/>
        <pt x="59" y="168" on="1"/>
        <pt x="59" y="99" on="0"/>
        <pt x="119" y="16" on="0"/>
        <pt x="184" y="16" on="1"/>
        <pt x="249" y="16" on="0"/>
        <pt x="309" y="99" on="0"/>
        <pt x="309" y="168" on="1"/>
        <pt x="309" y="209" on="0"/>
        <pt x="274" y="269" on="0"/>
        <pt x="223" y="312" on="0"/>
        <pt x="179" y="341" on="1"/>
        <pt x="133" y="372" on="0"/>
        <pt x="79" y="418" on="0"/>
        <pt x="41" y="486" on="0"/>
        <pt x="41" y="532" on="1"/>
        <pt x="41" y="612" on="0"/>
        <pt x="112" y="704" on="0"/>
        <pt x="185" y="705" on="1"/>
      </contour>
    </TTGlyph>
    <TTGlyph name="Scaron" xMin="38" yMin="-5" xMax="331" yMax="831">
      <contour>
        <pt x="188" y="765" on="1"/>
        <pt x="255" y="831" on="1"/>
        <pt x="279" y="831" on="1"/>
        <pt x="197" y="749" on="1"/>
        <pt x="178" y="749" on="1"/>
        <pt x="97" y="831" on="1"/>
        <pt x="120" y="831" on="1"/>
      </contour>
      <contour>
        <pt x="260" y="705" on="0"/>
        <pt x="330" y="609" on="0"/>
        <pt x="330" y="531" on="1"/>
        <pt x="330" y="518" on="1"/>
        <pt x="308" y="518" on="1"/>
        <pt x="308" y="532" on="1"/>
        <pt x="308" y="600" on="0"/>
        <pt x="250" y="685" on="0"/>
        <pt x="186" y="685" on="1"/>
        <pt x="121" y="685" on="0"/>
        <pt x="63" y="601" on="0"/>
        <pt x="63" y="533" on="1"/>
        <pt x="63" y="492" on="0"/>
        <pt x="98" y="430" on="0"/>
        <pt x="151" y="386" on="0"/>
        <pt x="194" y="357" on="1"/>
        <pt x="239" y="327" on="0"/>
        <pt x="294" y="281" on="0"/>
        <pt x="331" y="214" on="0"/>
        <pt x="331" y="169" on="1"/>
        <pt x="331" y="90" on="0"/>
        <pt x="260" y="-5" on="0"/>
        <pt x="184" y="-5" on="1"/>
        <pt x="109" y="-5" on="0"/>
        <pt x="38" y="90" on="0"/>
        <pt x="38" y="169" on="1"/>
        <pt x="38" y="203" on="1"/>
        <pt x="59" y="203" on="1"/>
        <pt x="59" y="168" on="1"/>
        <pt x="59" y="99" on="0"/>
        <pt x="119" y="16" on="0"/>
        <pt x="184" y="16" on="1"/>
        <pt x="249" y="16" on="0"/>
        <pt x="309" y="99" on="0"/>
        <pt x="309" y="168" on="1"/>
        <pt x="309" y="209" on="0"/>
        <pt x="274" y="269" on="0"/>
        <pt x="223" y="312" on="0"/>
        <pt x="179" y="341" on="1"/>
        <pt x="133" y="372" on="0"/>
        <pt x="79" y="418" on="0"/>
        <pt x="41" y="486" on="0"/>
        <pt x="41" y="532" on="1"/>
        <pt x="41" y="612" on="0"/>
        <pt x="112" y="704" on="0"/>
        <pt x="185" y="705" on="1"/>
      </contour>
    </TTGlyph>
    <TTGlyph name="Scedilla" xMin="38" yMin="-152" xMax="331" yMax="705">
      <contour>
        <pt x="260" y="705" on="0"/>
        <pt x="330" y="609" on="0"/>
        <pt x="330" y="531" on="1"/>
        <pt x="330" y="518" on="1"/>
        <pt x="308" y="518" on="1"/>
        <pt x="308" y="532" on="1"/>
        <pt x="308" y="600" on="0"/>
        <pt x="250" y="685" on="0"/>
        <pt x="186" y="685" on="1"/>
        <pt x="121" y="685" on="0"/>
        <pt x="63" y="601" on="0"/>
        <pt x="63" y="533" on="1"/>
        <pt x="63" y="492" on="0"/>
        <pt x="98" y="430" on="0"/>
        <pt x="151" y="386" on="0"/>
        <pt x="194" y="357" on="1"/>
        <pt x="239" y="327" on="0"/>
        <pt x="294" y="281" on="0"/>
        <pt x="331" y="214" on="0"/>
        <pt x="331" y="169" on="1"/>
        <pt x="331" y="93" on="0"/>
        <pt x="264" y="-2" on="0"/>
        <pt x="194" y="-5" on="1"/>
        <pt x="194" y="-36" on="1"/>
        <pt x="226" y="-37" on="0"/>
        <pt x="268" y="-63" on="0"/>
        <pt x="268" y="-92" on="1"/>
        <pt x="268" y="-122" on="0"/>
        <pt x="219" y="-152" on="0"/>
        <pt x="187" y="-152" on="1"/>
        <pt x="153" y="-152" on="0"/>
        <pt x="99" y="-122" on="0"/>
        <pt x="99" y="-92" on="1"/>
        <pt x="99" y="-88" on="1"/>
        <pt x="115" y="-88" on="1"/>
        <pt x="115" y="-91" on="1"/>
        <pt x="115" y="-115" on="0"/>
        <pt x="157" y="-136" on="0"/>
        <pt x="184" y="-137" on="1"/>
        <pt x="210" y="-137" on="0"/>
        <pt x="251" y="-115" on="0"/>
        <pt x="251" y="-92" on="1"/>
        <pt x="251" y="-66" on="0"/>
        <pt x="214" y="-49" on="0"/>
        <pt x="185" y="-49" on="1"/>
        <pt x="179" y="-49" on="1"/>
        <pt x="179" y="-5" on="1"/>
        <pt x="106" y="-4" on="0"/>
        <pt x="38" y="92" on="0"/>
        <pt x="38" y="169" on="1"/>
        <pt x="38" y="203" on="1"/>
        <pt x="59" y="203" on="1"/>
        <pt x="59" y="168" on="1"/>
        <pt x="59" y="99" on="0"/>
        <pt x="119" y="16" on="0"/>
        <pt x="184" y="16" on="1"/>
        <pt x="249" y="16" on="0"/>
        <pt x="309" y="99" on="0"/>
        <pt x="309" y="168" on="1"/>
        <pt x="309" y="209" on="0"/>
        <pt x="274" y="269" on="0"/>
        <pt x="223" y="312" on="0"/>
        <pt x="179" y="341" on="1"/>
        <pt x="133" y="372" on="0"/>
        <pt x="79" y="418" on="0"/>
        <pt x="41" y="486" on="0"/>
        <pt x="41" y="532" on="1"/>
        <pt x="41" y="612" on="0"/>
        <pt x="112" y="704" on="0"/>
        <pt x="185" y="705" on="1"/>
      </contour>
    </TTGlyph>
    <TTGlyph name="Scircumflex" xMin="38" yMin="-5" xMax="331" yMax="830">
      <contour>
        <pt x="100" y="748" on="1"/>
        <pt x="182" y="830" on="1"/>
        <pt x="200" y="830" on="1"/>
        <pt x="283" y="748" on="1"/>
        <pt x="258" y="748" on="1"/>
        <pt x="191" y="815" on="1"/>
        <pt x="124" y="748" on="1"/>
      </contour>
      <contour>
        <pt x="260" y="705" on="0"/>
        <pt x="330" y="609" on="0"/>
        <pt x="330" y="531" on="1"/>
        <pt x="330" y="518" on="1"/>
        <pt x="308" y="518" on="1"/>
        <pt x="308" y="532" on="1"/>
        <pt x="308" y="600" on="0"/>
        <pt x="250" y="685" on="0"/>
        <pt x="186" y="685" on="1"/>
        <pt x="121" y="685" on="0"/>
        <pt x="63" y="601" on="0"/>
        <pt x="63" y="533" on="1"/>
        <pt x="63" y="492" on="0"/>
        <pt x="98" y="430" on="0"/>
        <pt x="151" y="386" on="0"/>
        <pt x="194" y="357" on="1"/>
        <pt x="239" y="327" on="0"/>
        <pt x="294" y="281" on="0"/>
        <pt x="331" y="214" on="0"/>
        <pt x="331" y="169" on="1"/>
        <pt x="331" y="90" on="0"/>
        <pt x="260" y="-5" on="0"/>
        <pt x="184" y="-5" on="1"/>
        <pt x="109" y="-5" on="0"/>
        <pt x="38" y="90" on="0"/>
        <pt x="38" y="169" on="1"/>
        <pt x="38" y="203" on="1"/>
        <pt x="59" y="203" on="1"/>
        <pt x="59" y="168" on="1"/>
        <pt x="59" y="99" on="0"/>
        <pt x="119" y="16" on="0"/>
        <pt x="184" y="16" on="1"/>
        <pt x="249" y="16" on="0"/>
        <pt x="309" y="99" on="0"/>
        <pt x="309" y="168" on="1"/>
        <pt x="309" y="209" on="0"/>
        <pt x="274" y="269" on="0"/>
        <pt x="223" y="312" on="0"/>
        <pt x="179" y="341" on="1"/>
        <pt x="133" y="372" on="0"/>
        <pt x="79" y="418" on="0"/>
        <pt x="41" y="486" on="0"/>
        <pt x="41" y="532" on="1"/>
        <pt x="41" y="612" on="0"/>
        <pt x="112" y="704" on="0"/>
        <pt x="185" y="705" on="1"/>
      </contour>
    </TTGlyph>
    <TTGlyph name="T" xMin="22" yMin="0" xMax="350" yMax="700">
      <contour>
        <pt x="175" y="679" on="1"/>
        <pt x="22" y="679" on="1"/>
        <pt x="22" y="700" on="1"/>
        <pt x="350" y="700" on="1"/>
        <pt x="350" y="679" on="1"/>
        <pt x="197" y="679" on="1"/>
        <pt x="197" y="0" on="1"/>
        <pt x="175" y="0" on="1"/>
      </contour>
    </TTGlyph>
    <TTGlyph name="Tbar" xMin="36" yMin="0" xMax="364" yMax="700">
      <contour>
        <pt x="291" y="439" on="1"/>
        <pt x="211" y="439" on="1"/>
        <pt x="211" y="0" on="1"/>
        <pt x="189" y="0" on="1"/>
        <pt x="189" y="439" on="1"/>
        <pt x="109" y="439" on="1"/>
        <pt x="109" y="457" on="1"/>
        <pt x="189" y="457" on="1"/>
        <pt x="189" y="679" on="1"/>
        <pt x="36" y="679" on="1"/>
        <pt x="36" y="700" on="1"/>
        <pt x="364" y="700" on="1"/>
        <pt x="364" y="679" on="1"/>
        <pt x="211" y="679" on="1"/>
        <pt x="211" y="457" on="1"/>
        <pt x="291" y="457" on="1"/>
      </contour>
    </TTGlyph>
    <TTGlyph name="Tcaron" xMin="36" yMin="0" xMax="364" yMax="825">
      <contour>
        <pt x="200" y="759" on="1"/>
        <pt x="267" y="825" on="1"/>
        <pt x="291" y="825" on="1"/>
        <pt x="209" y="743" on="1"/>
        <pt x="190" y="743" on="1"/>
        <pt x="109" y="825" on="1"/>
        <pt x="132" y="825" on="1"/>
      </contour>
      <contour>
        <pt x="189" y="679" on="1"/>
        <pt x="36" y="679" on="1"/>
        <pt x="36" y="700" on="1"/>
        <pt x="364" y="700" on="1"/>
        <pt x="364" y="679" on="1"/>
        <pt x="211" y="679" on="1"/>
        <pt x="211" y="0" on="1"/>
        <pt x="189" y="0" on="1"/>
      </contour>
    </TTGlyph>
    <TTGlyph name="Thorn" xMin="40" yMin="0" xMax="323" yMax="700">
      <contour>
        <pt x="323" y="562" on="0"/>
        <pt x="323" y="393" on="1"/>
        <pt x="323" y="323" on="1"/>
        <pt x="323" y="239" on="0"/>
        <pt x="245" y="159" on="0"/>
        <pt x="162" y="159" on="1"/>
        <pt x="62" y="159" on="1"/>
        <pt x="62" y="0" on="1"/>
        <pt x="40" y="0" on="1"/>
        <pt x="40" y="700" on="1"/>
        <pt x="62" y="700" on="1"/>
        <pt x="62" y="562" on="1"/>
        <pt x="178" y="562" on="1"/>
      </contour>
      <contour>
        <pt x="235" y="180" on="0"/>
        <pt x="301" y="248" on="0"/>
        <pt x="301" y="322" on="1"/>
        <pt x="301" y="394" on="1"/>
        <pt x="301" y="464" on="0"/>
        <pt x="245" y="541" on="0"/>
        <pt x="178" y="541" on="1"/>
        <pt x="62" y="541" on="1"/>
        <pt x="62" y="180" on="1"/>
        <pt x="162" y="180" on="1"/>
      </contour>
    </TTGlyph>
    <TTGlyph name="U" xMin="39" yMin="-5" xMax="328" yMax="700">
      <contour>
        <pt x="61" y="102" on="0"/>
        <pt x="119" y="15" on="0"/>
        <pt x="184" y="15" on="1"/>
        <pt x="249" y="15" on="0"/>
        <pt x="307" y="102" on="0"/>
        <pt x="307" y="172" on="1"/>
        <pt x="307" y="700" on="1"/>
        <pt x="328" y="700" on="1"/>
        <pt x="328" y="173" on="1"/>
        <pt x="328" y="94" on="0"/>
        <pt x="259" y="-5" on="0"/>
        <pt x="184" y="-5" on="1"/>
        <pt x="109" y="-5" on="0"/>
        <pt x="39" y="94" on="0"/>
        <pt x="39" y="173" on="1"/>
        <pt x="39" y="700" on="1"/>
        <pt x="61" y="700" on="1"/>
        <pt x="61" y="172" on="1"/>
      </contour>
    </TTGlyph>
    <TTGlyph name="Uacute" xMin="39" yMin="-5" xMax="328" yMax="839">
      <contour>
        <pt x="182" y="750" on="1"/>
        <pt x="161" y="750" on="1"/>
        <pt x="234" y="839" on="1"/>
        <pt x="259" y="839" on="1"/>
      </contour>
      <contour>
        <pt x="328" y="94" on="0"/>
        <pt x="259" y="-5" on="0"/>
        <pt x="184" y="-5" on="1"/>
        <pt x="109" y="-5" on="0"/>
        <pt x="39" y="94" on="0"/>
        <pt x="39" y="173" on="1"/>
        <pt x="39" y="700" on="1"/>
        <pt x="61" y="700" on="1"/>
        <pt x="61" y="172" on="1"/>
        <pt x="61" y="102" on="0"/>
        <pt x="119" y="15" on="0"/>
        <pt x="184" y="15" on="1"/>
        <pt x="249" y="15" on="0"/>
        <pt x="307" y="102" on="0"/>
        <pt x="307" y="172" on="1"/>
        <pt x="307" y="700" on="1"/>
        <pt x="328" y="700" on="1"/>
        <pt x="328" y="173" on="1"/>
      </contour>
    </TTGlyph>
    <TTGlyph name="Ubreve" xMin="39" yMin="-5" xMax="328" yMax="820">
      <contour>
        <pt x="276" y="784" on="0"/>
        <pt x="223" y="742" on="0"/>
        <pt x="185" y="742" on="1"/>
        <pt x="147" y="742" on="0"/>
        <pt x="95" y="783" on="0"/>
        <pt x="94" y="820" on="1"/>
        <pt x="111" y="820" on="1"/>
        <pt x="112" y="790" on="0"/>
        <pt x="154" y="759" on="0"/>
        <pt x="185" y="759" on="1"/>
        <pt x="216" y="759" on="0"/>
        <pt x="259" y="790" on="0"/>
        <pt x="260" y="820" on="1"/>
        <pt x="277" y="820" on="1"/>
      </contour>
      <contour>
        <pt x="328" y="94" on="0"/>
        <pt x="259" y="-5" on="0"/>
        <pt x="184" y="-5" on="1"/>
        <pt x="109" y="-5" on="0"/>
        <pt x="39" y="94" on="0"/>
        <pt x="39" y="173" on="1"/>
        <pt x="39" y="700" on="1"/>
        <pt x="61" y="700" on="1"/>
        <pt x="61" y="172" on="1"/>
        <pt x="61" y="102" on="0"/>
        <pt x="119" y="15" on="0"/>
        <pt x="184" y="15" on="1"/>
        <pt x="249" y="15" on="0"/>
        <pt x="307" y="102" on="0"/>
        <pt x="307" y="172" on="1"/>
        <pt x="307" y="700" on="1"/>
        <pt x="328" y="700" on="1"/>
        <pt x="328" y="173" on="1"/>
      </contour>
    </TTGlyph>
    <TTGlyph name="Ucircumflex" xMin="39" yMin="-5" xMax="328" yMax="830">
      <contour>
        <pt x="94" y="748" on="1"/>
        <pt x="176" y="830" on="1"/>
        <pt x="194" y="830" on="1"/>
        <pt x="277" y="748" on="1"/>
        <pt x="252" y="748" on="1"/>
        <pt x="185" y="815" on="1"/>
        <pt x="117" y="748" on="1"/>
      </contour>
      <contour>
        <pt x="328" y="94" on="0"/>
        <pt x="259" y="-5" on="0"/>
        <pt x="184" y="-5" on="1"/>
        <pt x="109" y="-5" on="0"/>
        <pt x="39" y="94" on="0"/>
        <pt x="39" y="173" on="1"/>
        <pt x="39" y="700" on="1"/>
        <pt x="61" y="700" on="1"/>
        <pt x="61" y="172" on="1"/>
        <pt x="61" y="102" on="0"/>
        <pt x="119" y="15" on="0"/>
        <pt x="184" y="15" on="1"/>
        <pt x="249" y="15" on="0"/>
        <pt x="307" y="102" on="0"/>
        <pt x="307" y="172" on="1"/>
        <pt x="307" y="700" on="1"/>
        <pt x="328" y="700" on="1"/>
        <pt x="328" y="173" on="1"/>
      </contour>
    </TTGlyph>
    <TTGlyph name="Udieresis" xMin="39" yMin="-5" xMax="328" yMax="826">
      <contour>
        <pt x="155" y="746" on="1"/>
        <pt x="135" y="746" on="1"/>
        <pt x="135" y="826" on="1"/>
        <pt x="155" y="826" on="1"/>
      </contour>
      <contour>
        <pt x="232" y="746" on="1"/>
        <pt x="211" y="746" on="1"/>
        <pt x="211" y="826" on="1"/>
        <pt x="232" y="826" on="1"/>
      </contour>
      <contour>
        <pt x="328" y="94" on="0"/>
        <pt x="259" y="-5" on="0"/>
        <pt x="184" y="-5" on="1"/>
        <pt x="109" y="-5" on="0"/>
        <pt x="39" y="94" on="0"/>
        <pt x="39" y="173" on="1"/>
        <pt x="39" y="700" on="1"/>
        <pt x="61" y="700" on="1"/>
        <pt x="61" y="172" on="1"/>
        <pt x="61" y="102" on="0"/>
        <pt x="119" y="15" on="0"/>
        <pt x="184" y="15" on="1"/>
        <pt x="249" y="15" on="0"/>
        <pt x="307" y="102" on="0"/>
        <pt x="307" y="172" on="1"/>
        <pt x="307" y="700" on="1"/>
        <pt x="328" y="700" on="1"/>
        <pt x="328" y="173" on="1"/>
      </contour>
    </TTGlyph>
    <TTGlyph name="Ugrave" xMin="39" yMin="-5" xMax="328" yMax="831">
      <contour>
        <pt x="213" y="742" on="1"/>
        <pt x="192" y="742" on="1"/>
        <pt x="115" y="831" on="1"/>
        <pt x="141" y="831" on="1"/>
      </contour>
      <contour>
        <pt x="328" y="94" on="0"/>
        <pt x="259" y="-5" on="0"/>
        <pt x="184" y="-5" on="1"/>
        <pt x="109" y="-5" on="0"/>
        <pt x="39" y="94" on="0"/>
        <pt x="39" y="173" on="1"/>
        <pt x="39" y="700" on="1"/>
        <pt x="61" y="700" on="1"/>
        <pt x="61" y="172" on="1"/>
        <pt x="61" y="102" on="0"/>
        <pt x="119" y="15" on="0"/>
        <pt x="184" y="15" on="1"/>
        <pt x="249" y="15" on="0"/>
        <pt x="307" y="102" on="0"/>
        <pt x="307" y="172" on="1"/>
        <pt x="307" y="700" on="1"/>
        <pt x="328" y="700" on="1"/>
        <pt x="328" y="173" on="1"/>
      </contour>
    </TTGlyph>
    <TTGlyph name="Uhungarumlaut" xMin="39" yMin="-5" xMax="328" yMax="837">
      <contour>
        <pt x="147" y="748" on="1"/>
        <pt x="127" y="748" on="1"/>
        <pt x="197" y="837" on="1"/>
        <pt x="222" y="837" on="1"/>
      </contour>
      <contour>
        <pt x="214" y="748" on="1"/>
        <pt x="195" y="748" on="1"/>
        <pt x="265" y="837" on="1"/>
        <pt x="289" y="837" on="1"/>
      </contour>
      <contour>
        <pt x="328" y="94" on="0"/>
        <pt x="259" y="-5" on="0"/>
        <pt x="184" y="-5" on="1"/>
        <pt x="109" y="-5" on="0"/>
        <pt x="39" y="94" on="0"/>
        <pt x="39" y="173" on="1"/>
        <pt x="39" y="700" on="1"/>
        <pt x="61" y="700" on="1"/>
        <pt x="61" y="172" on="1"/>
        <pt x="61" y="102" on="0"/>
        <pt x="119" y="15" on="0"/>
        <pt x="184" y="15" on="1"/>
        <pt x="249" y="15" on="0"/>
        <pt x="307" y="102" on="0"/>
        <pt x="307" y="172" on="1"/>
        <pt x="307" y="700" on="1"/>
        <pt x="328" y="700" on="1"/>
        <pt x="328" y="173" on="1"/>
      </contour>
    </TTGlyph>
    <TTGlyph name="Umacron" xMin="39" yMin="-5" xMax="328" yMax="784">
      <contour>
        <pt x="269" y="767" on="1"/>
        <pt x="106" y="767" on="1"/>
        <pt x="106" y="784" on="1"/>
        <pt x="269" y="784" on="1"/>
      </contour>
      <contour>
        <pt x="328" y="94" on="0"/>
        <pt x="259" y="-5" on="0"/>
        <pt x="184" y="-5" on="1"/>
        <pt x="109" y="-5" on="0"/>
        <pt x="39" y="94" on="0"/>
        <pt x="39" y="173" on="1"/>
        <pt x="39" y="700" on="1"/>
        <pt x="61" y="700" on="1"/>
        <pt x="61" y="172" on="1"/>
        <pt x="61" y="102" on="0"/>
        <pt x="119" y="15" on="0"/>
        <pt x="184" y="15" on="1"/>
        <pt x="249" y="15" on="0"/>
        <pt x="307" y="102" on="0"/>
        <pt x="307" y="172" on="1"/>
        <pt x="307" y="700" on="1"/>
        <pt x="328" y="700" on="1"/>
        <pt x="328" y="173" on="1"/>
      </contour>
    </TTGlyph>
    <TTGlyph name="Uogonek" xMin="39" yMin="-137" xMax="328" yMax="700">
      <contour>
        <pt x="328" y="109" on="0"/>
        <pt x="283" y="16" on="0"/>
        <pt x="232" y="1" on="1"/>
        <pt x="214" y="-13" on="0"/>
        <pt x="184" y="-64" on="0"/>
        <pt x="184" y="-85" on="1"/>
        <pt x="184" y="-103" on="0"/>
        <pt x="207" y="-121" on="0"/>
        <pt x="225" y="-121" on="1"/>
        <pt x="254" y="-121" on="0"/>
        <pt x="272" y="-106" on="1"/>
        <pt x="272" y="-124" on="1"/>
        <pt x="250" y="-137" on="0"/>
        <pt x="221" y="-137" on="1"/>
        <pt x="196" y="-136" on="0"/>
        <pt x="165" y="-112" on="0"/>
        <pt x="165" y="-89" on="1"/>
        <pt x="165" y="-68" on="0"/>
        <pt x="191" y="-21" on="0"/>
        <pt x="210" y="-3" on="1"/>
        <pt x="194" y="-5" on="0"/>
        <pt x="184" y="-5" on="1"/>
        <pt x="109" y="-5" on="0"/>
        <pt x="39" y="94" on="0"/>
        <pt x="39" y="173" on="1"/>
        <pt x="39" y="700" on="1"/>
        <pt x="61" y="700" on="1"/>
        <pt x="61" y="172" on="1"/>
        <pt x="61" y="102" on="0"/>
        <pt x="119" y="15" on="0"/>
        <pt x="184" y="15" on="1"/>
        <pt x="249" y="15" on="0"/>
        <pt x="307" y="102" on="0"/>
        <pt x="307" y="172" on="1"/>
        <pt x="307" y="700" on="1"/>
        <pt x="328" y="700" on="1"/>
        <pt x="328" y="173" on="1"/>
      </contour>
    </TTGlyph>
    <TTGlyph name="Uring" xMin="39" yMin="-5" xMax="328" yMax="859">
      <contour>
        <pt x="215" y="859" on="0"/>
        <pt x="252" y="824" on="0"/>
        <pt x="252" y="798" on="1"/>
        <pt x="252" y="772" on="0"/>
        <pt x="215" y="737" on="0"/>
        <pt x="189" y="737" on="1"/>
        <pt x="163" y="737" on="0"/>
        <pt x="127" y="772" on="0"/>
        <pt x="127" y="798" on="1"/>
        <pt x="127" y="824" on="0"/>
        <pt x="163" y="859" on="0"/>
        <pt x="189" y="859" on="1"/>
      </contour>
      <contour>
        <pt x="169" y="844" on="0"/>
        <pt x="142" y="818" on="0"/>
        <pt x="142" y="798" on="1"/>
        <pt x="142" y="778" on="0"/>
        <pt x="169" y="751" on="0"/>
        <pt x="189" y="751" on="1"/>
        <pt x="209" y="751" on="0"/>
        <pt x="237" y="778" on="0"/>
        <pt x="237" y="798" on="1"/>
        <pt x="237" y="818" on="0"/>
        <pt x="209" y="844" on="0"/>
        <pt x="189" y="844" on="1"/>
      </contour>
      <contour>
        <pt x="328" y="94" on="0"/>
        <pt x="259" y="-5" on="0"/>
        <pt x="184" y="-5" on="1"/>
        <pt x="109" y="-5" on="0"/>
        <pt x="39" y="94" on="0"/>
        <pt x="39" y="173" on="1"/>
        <pt x="39" y="700" on="1"/>
        <pt x="61" y="700" on="1"/>
        <pt x="61" y="172" on="1"/>
        <pt x="61" y="102" on="0"/>
        <pt x="119" y="15" on="0"/>
        <pt x="184" y="15" on="1"/>
        <pt x="249" y="15" on="0"/>
        <pt x="307" y="102" on="0"/>
        <pt x="307" y="172" on="1"/>
        <pt x="307" y="700" on="1"/>
        <pt x="328" y="700" on="1"/>
        <pt x="328" y="173" on="1"/>
      </contour>
    </TTGlyph>
    <TTGlyph name="Utilde" xMin="39" yMin="-5" xMax="328" yMax="812">
      <contour>
        <pt x="266" y="758" on="0"/>
        <pt x="233" y="758" on="1"/>
        <pt x="222" y="758" on="0"/>
        <pt x="203" y="767" on="0"/>
        <pt x="186" y="777" on="1"/>
        <pt x="170" y="787" on="0"/>
        <pt x="152" y="795" on="0"/>
        <pt x="142" y="795" on="1"/>
        <pt x="118" y="795" on="0"/>
        <pt x="100" y="764" on="1"/>
        <pt x="86" y="773" on="1"/>
        <pt x="96" y="791" on="0"/>
        <pt x="124" y="812" on="0"/>
        <pt x="141" y="812" on="1"/>
        <pt x="153" y="812" on="0"/>
        <pt x="174" y="803" on="0"/>
        <pt x="192" y="793" on="1"/>
        <pt x="205" y="784" on="0"/>
        <pt x="224" y="776" on="0"/>
        <pt x="233" y="776" on="1"/>
        <pt x="255" y="776" on="0"/>
        <pt x="270" y="807" on="1"/>
        <pt x="284" y="798" on="1"/>
      </contour>
      <contour>
        <pt x="328" y="94" on="0"/>
        <pt x="259" y="-5" on="0"/>
        <pt x="184" y="-5" on="1"/>
        <pt x="109" y="-5" on="0"/>
        <pt x="39" y="94" on="0"/>
        <pt x="39" y="173" on="1"/>
        <pt x="39" y="700" on="1"/>
        <pt x="61" y="700" on="1"/>
        <pt x="61" y="172" on="1"/>
        <pt x="61" y="102" on="0"/>
        <pt x="119" y="15" on="0"/>
        <pt x="184" y="15" on="1"/>
        <pt x="249" y="15" on="0"/>
        <pt x="307" y="102" on="0"/>
        <pt x="307" y="172" on="1"/>
        <pt x="307" y="700" on="1"/>
        <pt x="328" y="700" on="1"/>
        <pt x="328" y="173" on="1"/>
      </contour>
    </TTGlyph>
    <TTGlyph name="V" xMin="37" yMin="0" xMax="409" yMax="700">
      <contour>
        <pt x="224" y="25" on="1"/>
        <pt x="388" y="700" on="1"/>
        <pt x="409" y="700" on="1"/>
        <pt x="241" y="0" on="1"/>
        <pt x="208" y="0" on="1"/>
        <pt x="37" y="700" on="1"/>
        <pt x="60" y="700" on="1"/>
      </contour>
    </TTGlyph>
    <TTGlyph name="W" xMin="37" yMin="0" xMax="581" yMax="700">
      <contour>
        <pt x="163" y="0" on="1"/>
        <pt x="37" y="700" on="1"/>
        <pt x="59" y="700" on="1"/>
        <pt x="181" y="30" on="1"/>
        <pt x="302" y="696" on="1"/>
        <pt x="329" y="696" on="1"/>
        <pt x="443" y="34" on="1"/>
        <pt x="561" y="700" on="1"/>
        <pt x="581" y="700" on="1"/>
        <pt x="457" y="0" on="1"/>
        <pt x="428" y="0" on="1"/>
        <pt x="315" y="648" on="1"/>
        <pt x="195" y="0" on="1"/>
      </contour>
    </TTGlyph>
    <TTGlyph name="Wacute" xMin="37" yMin="0" xMax="581" yMax="831">
      <contour>
        <pt x="299" y="742" on="1"/>
        <pt x="278" y="742" on="1"/>
        <pt x="351" y="831" on="1"/>
        <pt x="376" y="831" on="1"/>
      </contour>
      <contour>
        <pt x="163" y="0" on="1"/>
        <pt x="37" y="700" on="1"/>
        <pt x="59" y="700" on="1"/>
        <pt x="181" y="30" on="1"/>
        <pt x="302" y="696" on="1"/>
        <pt x="329" y="696" on="1"/>
        <pt x="443" y="34" on="1"/>
        <pt x="561" y="700" on="1"/>
        <pt x="581" y="700" on="1"/>
        <pt x="457" y="0" on="1"/>
        <pt x="428" y="0" on="1"/>
        <pt x="315" y="648" on="1"/>
        <pt x="195" y="0" on="1"/>
      </contour>
    </TTGlyph>
    <TTGlyph name="Wcircumflex" xMin="37" yMin="0" xMax="581" yMax="828">
      <contour>
        <pt x="221" y="746" on="1"/>
        <pt x="303" y="828" on="1"/>
        <pt x="321" y="828" on="1"/>
        <pt x="404" y="746" on="1"/>
        <pt x="380" y="746" on="1"/>
        <pt x="313" y="812" on="1"/>
        <pt x="245" y="746" on="1"/>
      </contour>
      <contour>
        <pt x="163" y="0" on="1"/>
        <pt x="37" y="700" on="1"/>
        <pt x="59" y="700" on="1"/>
        <pt x="181" y="30" on="1"/>
        <pt x="302" y="696" on="1"/>
        <pt x="329" y="696" on="1"/>
        <pt x="443" y="34" on="1"/>
        <pt x="561" y="700" on="1"/>
        <pt x="581" y="700" on="1"/>
        <pt x="457" y="0" on="1"/>
        <pt x="428" y="0" on="1"/>
        <pt x="315" y="648" on="1"/>
        <pt x="195" y="0" on="1"/>
      </contour>
    </TTGlyph>
    <TTGlyph name="Wdieresis" xMin="37" yMin="0" xMax="581" yMax="829">
      <contour>
        <pt x="286" y="748" on="1"/>
        <pt x="266" y="748" on="1"/>
        <pt x="266" y="829" on="1"/>
        <pt x="286" y="829" on="1"/>
      </contour>
      <contour>
        <pt x="363" y="748" on="1"/>
        <pt x="342" y="748" on="1"/>
        <pt x="342" y="829" on="1"/>
        <pt x="363" y="829" on="1"/>
      </contour>
      <contour>
        <pt x="163" y="0" on="1"/>
        <pt x="37" y="700" on="1"/>
        <pt x="59" y="700" on="1"/>
        <pt x="181" y="30" on="1"/>
        <pt x="302" y="696" on="1"/>
        <pt x="329" y="696" on="1"/>
        <pt x="443" y="34" on="1"/>
        <pt x="561" y="700" on="1"/>
        <pt x="581" y="700" on="1"/>
        <pt x="457" y="0" on="1"/>
        <pt x="428" y="0" on="1"/>
        <pt x="315" y="648" on="1"/>
        <pt x="195" y="0" on="1"/>
      </contour>
    </TTGlyph>
    <TTGlyph name="Wgrave" xMin="37" yMin="0" xMax="581" yMax="839">
      <contour>
        <pt x="353" y="750" on="1"/>
        <pt x="333" y="750" on="1"/>
        <pt x="255" y="839" on="1"/>
        <pt x="281" y="839" on="1"/>
      </contour>
      <contour>
        <pt x="163" y="0" on="1"/>
        <pt x="37" y="700" on="1"/>
        <pt x="59" y="700" on="1"/>
        <pt x="181" y="30" on="1"/>
        <pt x="302" y="696" on="1"/>
        <pt x="329" y="696" on="1"/>
        <pt x="443" y="34" on="1"/>
        <pt x="561" y="700" on="1"/>
        <pt x="581" y="700" on="1"/>
        <pt x="457" y="0" on="1"/>
        <pt x="428" y="0" on="1"/>
        <pt x="315" y="648" on="1"/>
        <pt x="195" y="0" on="1"/>
      </contour>
    </TTGlyph>
    <TTGlyph name="X" xMin="37" yMin="0" xMax="407" yMax="700">
      <contour>
        <pt x="60" y="0" on="1"/>
        <pt x="37" y="0" on="1"/>
        <pt x="208" y="364" on="1"/>
        <pt x="49" y="700" on="1"/>
        <pt x="72" y="700" on="1"/>
        <pt x="223" y="383" on="1"/>
        <pt x="374" y="700" on="1"/>
        <pt x="396" y="700" on="1"/>
        <pt x="237" y="364" on="1"/>
        <pt x="407" y="0" on="1"/>
        <pt x="383" y="0" on="1"/>
        <pt x="221" y="344" on="1"/>
      </contour>
    </TTGlyph>
    <TTGlyph name="Y" xMin="36" yMin="0" xMax="387" yMax="700">
      <contour>
        <pt x="36" y="700" on="1"/>
        <pt x="58" y="700" on="1"/>
        <pt x="211" y="313" on="1"/>
        <pt x="364" y="700" on="1"/>
        <pt x="387" y="700" on="1"/>
        <pt x="221" y="283" on="1"/>
        <pt x="221" y="0" on="1"/>
        <pt x="199" y="0" on="1"/>
        <pt x="199" y="283" on="1"/>
      </contour>
    </TTGlyph>
    <TTGlyph name="Yacute" xMin="36" yMin="0" xMax="387" yMax="830">
      <contour>
        <pt x="207" y="741" on="1"/>
        <pt x="187" y="741" on="1"/>
        <pt x="260" y="830" on="1"/>
        <pt x="285" y="830" on="1"/>
      </contour>
      <contour>
        <pt x="36" y="700" on="1"/>
        <pt x="58" y="700" on="1"/>
        <pt x="211" y="313" on="1"/>
        <pt x="364" y="700" on="1"/>
        <pt x="387" y="700" on="1"/>
        <pt x="221" y="283" on="1"/>
        <pt x="221" y="0" on="1"/>
        <pt x="199" y="0" on="1"/>
        <pt x="199" y="283" on="1"/>
      </contour>
    </TTGlyph>
    <TTGlyph name="Ycircumflex" xMin="36" yMin="0" xMax="387" yMax="827">
      <contour>
        <pt x="120" y="745" on="1"/>
        <pt x="202" y="827" on="1"/>
        <pt x="220" y="827" on="1"/>
        <pt x="303" y="745" on="1"/>
        <pt x="279" y="745" on="1"/>
        <pt x="212" y="811" on="1"/>
        <pt x="144" y="745" on="1"/>
      </contour>
      <contour>
        <pt x="36" y="700" on="1"/>
        <pt x="58" y="700" on="1"/>
        <pt x="211" y="313" on="1"/>
        <pt x="364" y="700" on="1"/>
        <pt x="387" y="700" on="1"/>
        <pt x="221" y="283" on="1"/>
        <pt x="221" y="0" on="1"/>
        <pt x="199" y="0" on="1"/>
        <pt x="199" y="283" on="1"/>
      </contour>
    </TTGlyph>
    <TTGlyph name="Ydieresis" xMin="36" yMin="0" xMax="387" yMax="822">
      <contour>
        <pt x="183" y="742" on="1"/>
        <pt x="162" y="742" on="1"/>
        <pt x="162" y="822" on="1"/>
        <pt x="183" y="822" on="1"/>
      </contour>
      <contour>
        <pt x="259" y="742" on="1"/>
        <pt x="239" y="742" on="1"/>
        <pt x="239" y="822" on="1"/>
        <pt x="259" y="822" on="1"/>
      </contour>
      <contour>
        <pt x="36" y="700" on="1"/>
        <pt x="58" y="700" on="1"/>
        <pt x="211" y="313" on="1"/>
        <pt x="364" y="700" on="1"/>
        <pt x="387" y="700" on="1"/>
        <pt x="221" y="283" on="1"/>
        <pt x="221" y="0" on="1"/>
        <pt x="199" y="0" on="1"/>
        <pt x="199" y="283" on="1"/>
      </contour>
    </TTGlyph>
    <TTGlyph name="Ygrave" xMin="36" yMin="0" xMax="387" yMax="839">
      <contour>
        <pt x="242" y="750" on="1"/>
        <pt x="221" y="750" on="1"/>
        <pt x="144" y="839" on="1"/>
        <pt x="169" y="839" on="1"/>
      </contour>
      <contour>
        <pt x="36" y="700" on="1"/>
        <pt x="58" y="700" on="1"/>
        <pt x="211" y="313" on="1"/>
        <pt x="364" y="700" on="1"/>
        <pt x="387" y="700" on="1"/>
        <pt x="221" y="283" on="1"/>
        <pt x="221" y="0" on="1"/>
        <pt x="199" y="0" on="1"/>
        <pt x="199" y="283" on="1"/>
      </contour>
    </TTGlyph>
    <TTGlyph name="Z" xMin="38" yMin="0" xMax="356" yMax="700">
      <contour>
        <pt x="38" y="0" on="1"/>
        <pt x="38" y="21" on="1"/>
        <pt x="332" y="679" on="1"/>
        <pt x="52" y="679" on="1"/>
        <pt x="52" y="700" on="1"/>
        <pt x="356" y="700" on="1"/>
        <pt x="356" y="678" on="1"/>
        <pt x="61" y="21" on="1"/>
        <pt x="351" y="21" on="1"/>
        <pt x="351" y="0" on="1"/>
      </contour>
    </TTGlyph>
    <TTGlyph name="Zacute" xMin="38" yMin="0" xMax="356" yMax="839">
      <contour>
        <pt x="207" y="750" on="1"/>
        <pt x="187" y="750" on="1"/>
        <pt x="259" y="839" on="1"/>
        <pt x="285" y="839" on="1"/>
      </contour>
      <contour>
        <pt x="38" y="0" on="1"/>
        <pt x="38" y="21" on="1"/>
        <pt x="332" y="679" on="1"/>
        <pt x="52" y="679" on="1"/>
        <pt x="52" y="700" on="1"/>
        <pt x="356" y="700" on="1"/>
        <pt x="356" y="678" on="1"/>
        <pt x="61" y="21" on="1"/>
        <pt x="351" y="21" on="1"/>
        <pt x="351" y="0" on="1"/>
      </contour>
    </TTGlyph>
    <TTGlyph name="Zcaron" xMin="38" yMin="0" xMax="356" yMax="830">
      <contour>
        <pt x="206" y="764" on="1"/>
        <pt x="273" y="830" on="1"/>
        <pt x="298" y="830" on="1"/>
        <pt x="215" y="748" on="1"/>
        <pt x="197" y="748" on="1"/>
        <pt x="115" y="830" on="1"/>
        <pt x="138" y="830" on="1"/>
      </contour>
      <contour>
        <pt x="38" y="0" on="1"/>
        <pt x="38" y="21" on="1"/>
        <pt x="332" y="679" on="1"/>
        <pt x="52" y="679" on="1"/>
        <pt x="52" y="700" on="1"/>
        <pt x="356" y="700" on="1"/>
        <pt x="356" y="678" on="1"/>
        <pt x="61" y="21" on="1"/>
        <pt x="351" y="21" on="1"/>
        <pt x="351" y="0" on="1"/>
      </contour>
    </TTGlyph>
    <TTGlyph name="Zdotaccent" xMin="38" yMin="0" xMax="356" yMax="829">
      <contour>
        <pt x="225" y="749" on="1"/>
        <pt x="205" y="749" on="1"/>
        <pt x="205" y="829" on="1"/>
        <pt x="225" y="829" on="1"/>
      </contour>
      <contour>
        <pt x="38" y="0" on="1"/>
        <pt x="38" y="21" on="1"/>
        <pt x="332" y="679" on="1"/>
        <pt x="52" y="679" on="1"/>
        <pt x="52" y="700" on="1"/>
        <pt x="356" y="700" on="1"/>
        <pt x="356" y="678" on="1"/>
        <pt x="61" y="21" on="1"/>
        <pt x="351" y="21" on="1"/>
        <pt x="351" y="0" on="1"/>
      </contour>
    </TTGlyph>
    <TTGlyph name="a" xMin="37" yMin="0" xMax="410" yMax="701">
      <contour>
        <pt x="57" y="0" on="1"/>
        <pt x="37" y="0" on="1"/>
        <pt x="206" y="701" on="1"/>
        <pt x="237" y="701" on="1"/>
        <pt x="410" y="0" on="1"/>
        <pt x="388" y="0" on="1"/>
        <pt x="347" y="165" on="1"/>
        <pt x="98" y="165" on="1"/>
      </contour>
      <contour>
        <pt x="343" y="185" on="1"/>
        <pt x="221" y="675" on="1"/>
        <pt x="102" y="185" on="1"/>
      </contour>
    </TTGlyph>
    <TTGlyph name="aacute" xMin="37" yMin="0" xMax="410" yMax="827">
      <contour>
        <pt x="201" y="738" on="1"/>
        <pt x="181" y="738" on="1"/>
        <pt x="253" y="827" on="1"/>
        <pt x="279" y="827" on="1"/>
      </contour>
      <contour>
        <pt x="57" y="0" on="1"/>
        <pt x="37" y="0" on="1"/>
        <pt x="206" y="701" on="1"/>
        <pt x="237" y="701" on="1"/>
        <pt x="410" y="0" on="1"/>
        <pt x="388" y="0" on="1"/>
        <pt x="347" y="165" on="1"/>
        <pt x="98" y="165" on="1"/>
      </contour>
      <contour>
        <pt x="343" y="185" on="1"/>
        <pt x="221" y="675" on="1"/>
        <pt x="102" y="185" on="1"/>
      </contour>
    </TTGlyph>
    <TTGlyph name="abreve" xMin="37" yMin="0" xMax="410" yMax="811">
      <contour>
        <pt x="312" y="775" on="0"/>
        <pt x="259" y="733" on="0"/>
        <pt x="221" y="733" on="1"/>
        <pt x="184" y="733" on="0"/>
        <pt x="132" y="774" on="0"/>
        <pt x="131" y="811" on="1"/>
        <pt x="147" y="811" on="1"/>
        <pt x="148" y="782" on="0"/>
        <pt x="191" y="750" on="0"/>
        <pt x="221" y="750" on="1"/>
        <pt x="252" y="750" on="0"/>
        <pt x="296" y="782" on="0"/>
        <pt x="297" y="811" on="1"/>
        <pt x="313" y="811" on="1"/>
      </contour>
      <contour>
        <pt x="57" y="0" on="1"/>
        <pt x="37" y="0" on="1"/>
        <pt x="206" y="701" on="1"/>
        <pt x="237" y="701" on="1"/>
        <pt x="410" y="0" on="1"/>
        <pt x="388" y="0" on="1"/>
        <pt x="347" y="165" on="1"/>
        <pt x="98" y="165" on="1"/>
      </contour>
      <contour>
        <pt x="343" y="185" on="1"/>
        <pt x="221" y="675" on="1"/>
        <pt x="102" y="185" on="1"/>
      </contour>
    </TTGlyph>
    <TTGlyph name="acircumflex" xMin="37" yMin="0" xMax="410" yMax="819">
      <contour>
        <pt x="130" y="737" on="1"/>
        <pt x="212" y="819" on="1"/>
        <pt x="230" y="819" on="1"/>
        <pt x="313" y="737" on="1"/>
        <pt x="288" y="737" on="1"/>
        <pt x="221" y="803" on="1"/>
        <pt x="154" y="737" on="1"/>
      </contour>
      <contour>
        <pt x="57" y="0" on="1"/>
        <pt x="37" y="0" on="1"/>
        <pt x="206" y="701" on="1"/>
        <pt x="237" y="701" on="1"/>
        <pt x="410" y="0" on="1"/>
        <pt x="388" y="0" on="1"/>
        <pt x="347" y="165" on="1"/>
        <pt x="98" y="165" on="1"/>
      </contour>
      <contour>
        <pt x="343" y="185" on="1"/>
        <pt x="221" y="675" on="1"/>
        <pt x="102" y="185" on="1"/>
      </contour>
    </TTGlyph>
    <TTGlyph name="acute" xMin="38" yMin="759" xMax="136" yMax="848">
      <contour>
        <pt x="59" y="759" on="1"/>
        <pt x="38" y="759" on="1"/>
        <pt x="111" y="848" on="1"/>
        <pt x="136" y="848" on="1"/>
      </contour>
    </TTGlyph>
    <TTGlyph name="adieresis" xMin="37" yMin="0" xMax="410" yMax="817">
      <contour>
        <pt x="193" y="737" on="1"/>
        <pt x="173" y="737" on="1"/>
        <pt x="173" y="817" on="1"/>
        <pt x="193" y="817" on="1"/>
      </contour>
      <contour>
        <pt x="270" y="737" on="1"/>
        <pt x="249" y="737" on="1"/>
        <pt x="249" y="817" on="1"/>
        <pt x="270" y="817" on="1"/>
      </contour>
      <contour>
        <pt x="57" y="0" on="1"/>
        <pt x="37" y="0" on="1"/>
        <pt x="206" y="701" on="1"/>
        <pt x="237" y="701" on="1"/>
        <pt x="410" y="0" on="1"/>
        <pt x="388" y="0" on="1"/>
        <pt x="347" y="165" on="1"/>
        <pt x="98" y="165" on="1"/>
      </contour>
      <contour>
        <pt x="343" y="185" on="1"/>
        <pt x="221" y="675" on="1"/>
        <pt x="102" y="185" on="1"/>
      </contour>
    </TTGlyph>
    <TTGlyph name="ae" xMin="36" yMin="0" xMax="554" yMax="700">
      <contour>
        <pt x="520" y="345" on="1"/>
        <pt x="344" y="345" on="1"/>
        <pt x="344" y="21" on="1"/>
        <pt x="554" y="21" on="1"/>
        <pt x="554" y="0" on="1"/>
        <pt x="322" y="0" on="1"/>
        <pt x="322" y="168" on="1"/>
        <pt x="123" y="168" on="1"/>
        <pt x="57" y="0" on="1"/>
        <pt x="36" y="0" on="1"/>
        <pt x="308" y="700" on="1"/>
        <pt x="554" y="700" on="1"/>
        <pt x="554" y="679" on="1"/>
        <pt x="344" y="679" on="1"/>
        <pt x="344" y="365" on="1"/>
        <pt x="520" y="365" on="1"/>
      </contour>
      <contour>
        <pt x="322" y="189" on="1"/>
        <pt x="322" y="674" on="1"/>
        <pt x="130" y="189" on="1"/>
      </contour>
    </TTGlyph>
    <TTGlyph name="aeacute" xMin="36" yMin="0" xMax="554" yMax="837">
      <contour>
        <pt x="336" y="748" on="1"/>
        <pt x="316" y="748" on="1"/>
        <pt x="388" y="837" on="1"/>
        <pt x="413" y="837" on="1"/>
      </contour>
      <contour>
        <pt x="520" y="345" on="1"/>
        <pt x="344" y="345" on="1"/>
        <pt x="344" y="21" on="1"/>
        <pt x="554" y="21" on="1"/>
        <pt x="554" y="0" on="1"/>
        <pt x="322" y="0" on="1"/>
        <pt x="322" y="168" on="1"/>
        <pt x="123" y="168" on="1"/>
        <pt x="57" y="0" on="1"/>
        <pt x="36" y="0" on="1"/>
        <pt x="308" y="700" on="1"/>
        <pt x="554" y="700" on="1"/>
        <pt x="554" y="679" on="1"/>
        <pt x="344" y="679" on="1"/>
        <pt x="344" y="365" on="1"/>
        <pt x="520" y="365" on="1"/>
      </contour>
      <contour>
        <pt x="322" y="189" on="1"/>
        <pt x="322" y="674" on="1"/>
        <pt x="130" y="189" on="1"/>
      </contour>
    </TTGlyph>
    <TTGlyph name="agrave" xMin="37" yMin="0" xMax="410" yMax="826">
      <contour>
        <pt x="253" y="737" on="1"/>
        <pt x="233" y="737" on="1"/>
        <pt x="155" y="826" on="1"/>
        <pt x="181" y="826" on="1"/>
      </contour>
      <contour>
        <pt x="57" y="0" on="1"/>
        <pt x="37" y="0" on="1"/>
        <pt x="206" y="701" on="1"/>
        <pt x="237" y="701" on="1"/>
        <pt x="410" y="0" on="1"/>
        <pt x="388" y="0" on="1"/>
        <pt x="347" y="165" on="1"/>
        <pt x="98" y="165" on="1"/>
      </contour>
      <contour>
        <pt x="343" y="185" on="1"/>
        <pt x="221" y="675" on="1"/>
        <pt x="102" y="185" on="1"/>
      </contour>
    </TTGlyph>
    <TTGlyph name="amacron" xMin="37" yMin="0" xMax="410" yMax="784">
      <contour>
        <pt x="312" y="767" on="1"/>
        <pt x="131" y="767" on="1"/>
        <pt x="131" y="784" on="1"/>
        <pt x="312" y="784" on="1"/>
      </contour>
      <contour>
        <pt x="57" y="0" on="1"/>
        <pt x="37" y="0" on="1"/>
        <pt x="206" y="701" on="1"/>
        <pt x="237" y="701" on="1"/>
        <pt x="410" y="0" on="1"/>
        <pt x="388" y="0" on="1"/>
        <pt x="347" y="165" on="1"/>
        <pt x="98" y="165" on="1"/>
      </contour>
      <contour>
        <pt x="343" y="185" on="1"/>
        <pt x="221" y="675" on="1"/>
        <pt x="102" y="185" on="1"/>
      </contour>
    </TTGlyph>
    <TTGlyph name="ampersand" xMin="40" yMin="-5" xMax="363" yMax="700">
      <contour>
        <pt x="62" y="679" on="0"/>
        <pt x="62" y="527" on="1"/>
        <pt x="62" y="504" on="1"/>
        <pt x="62" y="452" on="0"/>
        <pt x="119" y="379" on="0"/>
        <pt x="169" y="375" on="1"/>
        <pt x="299" y="375" on="1"/>
        <pt x="299" y="453" on="1"/>
        <pt x="321" y="453" on="1"/>
        <pt x="321" y="375" on="1"/>
        <pt x="363" y="375" on="1"/>
        <pt x="363" y="355" on="1"/>
        <pt x="321" y="355" on="1"/>
        <pt x="321" y="95" on="1"/>
        <pt x="321" y="61" on="0"/>
        <pt x="328" y="20" on="0"/>
        <pt x="341" y="0" on="1"/>
        <pt x="317" y="0" on="1"/>
        <pt x="300" y="30" on="0"/>
        <pt x="300" y="71" on="1"/>
        <pt x="285" y="34" on="0"/>
        <pt x="219" y="-5" on="0"/>
        <pt x="177" y="-5" on="1"/>
        <pt x="107" y="-5" on="0"/>
        <pt x="40" y="83" on="0"/>
        <pt x="40" y="157" on="1"/>
        <pt x="40" y="221" on="1"/>
        <pt x="40" y="272" on="0"/>
        <pt x="90" y="352" on="0"/>
        <pt x="137" y="366" on="1"/>
        <pt x="89" y="377" on="0"/>
        <pt x="40" y="456" on="0"/>
        <pt x="40" y="507" on="1"/>
        <pt x="40" y="526" on="1"/>
        <pt x="40" y="610" on="0"/>
        <pt x="125" y="700" on="0"/>
        <pt x="209" y="700" on="1"/>
        <pt x="298" y="700" on="1"/>
        <pt x="298" y="679" on="1"/>
        <pt x="209" y="679" on="1"/>
      </contour>
      <contour>
        <pt x="122" y="351" on="0"/>
        <pt x="62" y="277" on="0"/>
        <pt x="62" y="222" on="1"/>
        <pt x="62" y="158" on="1"/>
        <pt x="62" y="93" on="0"/>
        <pt x="121" y="15" on="0"/>
        <pt x="182" y="15" on="1"/>
        <pt x="233" y="15" on="0"/>
        <pt x="299" y="76" on="0"/>
        <pt x="299" y="127" on="1"/>
        <pt x="299" y="355" on="1"/>
        <pt x="175" y="355" on="1"/>
      </contour>
    </TTGlyph>
    <TTGlyph name="aogonek" xMin="37" yMin="-137" xMax="445" yMax="701">
      <contour>
        <pt x="387" y="-15" on="0"/>
        <pt x="357" y="-64" on="0"/>
        <pt x="357" y="-85" on="1"/>
        <pt x="357" y="-103" on="0"/>
        <pt x="380" y="-120" on="0"/>
        <pt x="399" y="-120" on="1"/>
        <pt x="428" y="-120" on="0"/>
        <pt x="445" y="-106" on="1"/>
        <pt x="445" y="-124" on="1"/>
        <pt x="423" y="-137" on="0"/>
        <pt x="394" y="-137" on="1"/>
        <pt x="370" y="-136" on="0"/>
        <pt x="339" y="-112" on="0"/>
        <pt x="339" y="-87" on="1"/>
        <pt x="339" y="-65" on="0"/>
        <pt x="366" y="-17" on="0"/>
        <pt x="387" y="1" on="1"/>
        <pt x="347" y="165" on="1"/>
        <pt x="98" y="165" on="1"/>
        <pt x="57" y="0" on="1"/>
        <pt x="37" y="0" on="1"/>
        <pt x="206" y="701" on="1"/>
        <pt x="237" y="701" on="1"/>
        <pt x="410" y="0" on="1"/>
        <pt x="406" y="0" on="1"/>
      </contour>
      <contour>
        <pt x="343" y="185" on="1"/>
        <pt x="221" y="675" on="1"/>
        <pt x="102" y="185" on="1"/>
      </contour>
    </TTGlyph>
    <TTGlyph name="approxequal" xMin="36" yMin="229" xMax="361" yMax="469">
      <contour>
        <pt x="147" y="469" on="0"/>
        <pt x="183" y="453" on="0"/>
        <pt x="210" y="436" on="1"/>
        <pt x="233" y="421" on="0"/>
        <pt x="265" y="407" on="0"/>
        <pt x="282" y="407" on="1"/>
        <pt x="303" y="407" on="0"/>
        <pt x="333" y="435" on="0"/>
        <pt x="347" y="460" on="1"/>
        <pt x="361" y="450" on="1"/>
        <pt x="329" y="388" on="0"/>
        <pt x="283" y="388" on="1"/>
        <pt x="265" y="388" on="0"/>
        <pt x="231" y="403" on="0"/>
        <pt x="203" y="419" on="1"/>
        <pt x="179" y="434" on="0"/>
        <pt x="144" y="450" on="0"/>
        <pt x="126" y="450" on="1"/>
        <pt x="82" y="450" on="0"/>
        <pt x="50" y="398" on="1"/>
        <pt x="36" y="408" on="1"/>
        <pt x="56" y="438" on="0"/>
        <pt x="98" y="469" on="0"/>
        <pt x="126" y="469" on="1"/>
      </contour>
      <contour>
        <pt x="145" y="310" on="0"/>
        <pt x="182" y="294" on="0"/>
        <pt x="209" y="277" on="1"/>
        <pt x="234" y="262" on="0"/>
        <pt x="265" y="248" on="0"/>
        <pt x="281" y="248" on="1"/>
        <pt x="303" y="248" on="0"/>
        <pt x="332" y="276" on="0"/>
        <pt x="347" y="301" on="1"/>
        <pt x="361" y="291" on="1"/>
        <pt x="328" y="229" on="0"/>
        <pt x="283" y="229" on="1"/>
        <pt x="264" y="229" on="0"/>
        <pt x="229" y="244" on="0"/>
        <pt x="203" y="260" on="1"/>
        <pt x="178" y="276" on="0"/>
        <pt x="143" y="291" on="0"/>
        <pt x="124" y="291" on="1"/>
        <pt x="82" y="291" on="0"/>
        <pt x="50" y="239" on="1"/>
        <pt x="36" y="249" on="1"/>
        <pt x="55" y="278" on="0"/>
        <pt x="97" y="310" on="0"/>
        <pt x="124" y="310" on="1"/>
      </contour>
    </TTGlyph>
    <TTGlyph name="aring" xMin="37" yMin="0" xMax="410" yMax="863">
      <contour>
        <pt x="247" y="863" on="0"/>
        <pt x="283" y="828" on="0"/>
        <pt x="283" y="803" on="1"/>
        <pt x="283" y="776" on="0"/>
        <pt x="247" y="741" on="0"/>
        <pt x="221" y="741" on="1"/>
        <pt x="194" y="741" on="0"/>
        <pt x="158" y="776" on="0"/>
        <pt x="158" y="803" on="1"/>
        <pt x="158" y="828" on="0"/>
        <pt x="195" y="863" on="0"/>
        <pt x="221" y="863" on="1"/>
      </contour>
      <contour>
        <pt x="201" y="848" on="0"/>
        <pt x="173" y="822" on="0"/>
        <pt x="173" y="803" on="1"/>
        <pt x="173" y="782" on="0"/>
        <pt x="200" y="756" on="0"/>
        <pt x="221" y="756" on="1"/>
        <pt x="240" y="756" on="0"/>
        <pt x="268" y="783" on="0"/>
        <pt x="268" y="803" on="1"/>
        <pt x="268" y="822" on="0"/>
        <pt x="240" y="848" on="0"/>
        <pt x="221" y="848" on="1"/>
      </contour>
      <contour>
        <pt x="57" y="0" on="1"/>
        <pt x="37" y="0" on="1"/>
        <pt x="206" y="701" on="1"/>
        <pt x="237" y="701" on="1"/>
        <pt x="410" y="0" on="1"/>
        <pt x="388" y="0" on="1"/>
        <pt x="347" y="165" on="1"/>
        <pt x="98" y="165" on="1"/>
      </contour>
      <contour>
        <pt x="343" y="185" on="1"/>
        <pt x="221" y="675" on="1"/>
        <pt x="102" y="185" on="1"/>
      </contour>
    </TTGlyph>
    <TTGlyph name="asciicircum" xMin="38" yMin="391" xMax="376" yMax="700">
      <contour>
        <pt x="38" y="391" on="1"/>
        <pt x="197" y="700" on="1"/>
        <pt x="217" y="700" on="1"/>
        <pt x="376" y="391" on="1"/>
        <pt x="355" y="391" on="1"/>
        <pt x="207" y="678" on="1"/>
        <pt x="59" y="391" on="1"/>
      </contour>
    </TTGlyph>
    <TTGlyph name="asciitilde" xMin="36" yMin="309" xMax="361" yMax="389">
      <contour>
        <pt x="146" y="389" on="0"/>
        <pt x="185" y="372" on="0"/>
        <pt x="210" y="357" on="1"/>
        <pt x="233" y="342" on="0"/>
        <pt x="265" y="328" on="0"/>
        <pt x="282" y="328" on="1"/>
        <pt x="303" y="328" on="0"/>
        <pt x="333" y="356" on="0"/>
        <pt x="347" y="381" on="1"/>
        <pt x="361" y="370" on="1"/>
        <pt x="344" y="341" on="0"/>
        <pt x="306" y="309" on="0"/>
        <pt x="281" y="309" on="1"/>
        <pt x="263" y="309" on="0"/>
        <pt x="229" y="324" on="0"/>
        <pt x="201" y="340" on="1"/>
        <pt x="177" y="355" on="0"/>
        <pt x="142" y="371" on="0"/>
        <pt x="123" y="371" on="1"/>
        <pt x="81" y="371" on="0"/>
        <pt x="49" y="318" on="1"/>
        <pt x="36" y="328" on="1"/>
        <pt x="72" y="389" on="0"/>
        <pt x="126" y="389" on="1"/>
      </contour>
    </TTGlyph>
    <TTGlyph name="asterisk" xMin="44" yMin="403" xMax="349" yMax="693">
      <contour>
        <pt x="293" y="414" on="1"/>
        <pt x="278" y="403" on="1"/>
        <pt x="196" y="525" on="1"/>
        <pt x="115" y="404" on="1"/>
        <pt x="99" y="414" on="1"/>
        <pt x="186" y="533" on="1"/>
        <pt x="44" y="571" on="1"/>
        <pt x="50" y="590" on="1"/>
        <pt x="190" y="545" on="1"/>
        <pt x="186" y="693" on="1"/>
        <pt x="206" y="693" on="1"/>
        <pt x="203" y="545" on="1"/>
        <pt x="343" y="587" on="1"/>
        <pt x="349" y="568" on="1"/>
        <pt x="206" y="533" on="1"/>
      </contour>
    </TTGlyph>
    <TTGlyph name="at" xMin="38" yMin="-42" xMax="651" yMax="726">
      <contour>
        <pt x="522" y="726" on="0"/>
        <pt x="651" y="580" on="0"/>
        <pt x="651" y="448" on="1"/>
        <pt x="651" y="382" on="0"/>
        <pt x="618" y="245" on="0"/>
        <pt x="545" y="149" on="0"/>
        <pt x="488" y="149" on="1"/>
        <pt x="458" y="149" on="0"/>
        <pt x="427" y="189" on="0"/>
        <pt x="426" y="220" on="1"/>
        <pt x="410" y="181" on="0"/>
        <pt x="354" y="138" on="0"/>
        <pt x="314" y="138" on="1"/>
        <pt x="262" y="139" on="0"/>
        <pt x="215" y="208" on="0"/>
        <pt x="215" y="261" on="1"/>
        <pt x="215" y="271" on="0"/>
        <pt x="217" y="291" on="1"/>
        <pt x="227" y="389" on="1"/>
        <pt x="233" y="452" on="0"/>
        <pt x="298" y="532" on="0"/>
        <pt x="355" y="532" on="1"/>
        <pt x="431" y="530" on="0"/>
        <pt x="449" y="458" on="1"/>
        <pt x="456" y="526" on="1"/>
        <pt x="477" y="526" on="1"/>
        <pt x="447" y="242" on="1"/>
        <pt x="444" y="212" on="0"/>
        <pt x="465" y="169" on="0"/>
        <pt x="492" y="169" on="1"/>
        <pt x="543" y="169" on="0"/>
        <pt x="606" y="260" on="0"/>
        <pt x="632" y="385" on="0"/>
        <pt x="632" y="442" on="1"/>
        <pt x="632" y="570" on="0"/>
        <pt x="512" y="707" on="0"/>
        <pt x="388" y="707" on="1"/>
        <pt x="275" y="707" on="0"/>
        <pt x="127" y="590" on="0"/>
        <pt x="58" y="398" on="0"/>
        <pt x="58" y="283" on="1"/>
        <pt x="58" y="134" on="0"/>
        <pt x="200" y="-23" on="0"/>
        <pt x="346" y="-23" on="1"/>
        <pt x="396" y="-23" on="0"/>
        <pt x="489" y="4" on="0"/>
        <pt x="525" y="32" on="1"/>
        <pt x="524" y="9" on="1"/>
        <pt x="450" y="-42" on="0"/>
        <pt x="345" y="-42" on="1"/>
        <pt x="189" y="-42" on="0"/>
        <pt x="38" y="126" on="0"/>
        <pt x="38" y="284" on="1"/>
        <pt x="38" y="403" on="0"/>
        <pt x="111" y="603" on="0"/>
        <pt x="269" y="726" on="0"/>
        <pt x="389" y="726" on="1"/>
      </contour>
      <contour>
        <pt x="308" y="511" on="0"/>
        <pt x="254" y="442" on="0"/>
        <pt x="247" y="387" on="1"/>
        <pt x="237" y="289" on="1"/>
        <pt x="236" y="281" on="0"/>
        <pt x="236" y="264" on="1"/>
        <pt x="236" y="218" on="0"/>
        <pt x="275" y="158" on="0"/>
        <pt x="320" y="158" on="1"/>
        <pt x="371" y="158" on="0"/>
        <pt x="426" y="234" on="0"/>
        <pt x="431" y="291" on="1"/>
        <pt x="442" y="388" on="1"/>
        <pt x="443" y="396" on="0"/>
        <pt x="443" y="412" on="1"/>
        <pt x="443" y="457" on="0"/>
        <pt x="403" y="511" on="0"/>
        <pt x="359" y="511" on="1"/>
      </contour>
    </TTGlyph>
    <TTGlyph name="atilde" xMin="37" yMin="0" xMax="410" yMax="805">
      <contour>
        <pt x="197" y="805" on="0"/>
        <pt x="227" y="785" on="1"/>
        <pt x="242" y="776" on="0"/>
        <pt x="260" y="768" on="0"/>
        <pt x="269" y="768" on="1"/>
        <pt x="293" y="768" on="0"/>
        <pt x="306" y="798" on="1"/>
        <pt x="320" y="790" on="1"/>
        <pt x="300" y="750" on="0"/>
        <pt x="269" y="750" on="1"/>
        <pt x="251" y="750" on="0"/>
        <pt x="222" y="769" on="1"/>
        <pt x="206" y="778" on="0"/>
        <pt x="188" y="787" on="0"/>
        <pt x="177" y="787" on="1"/>
        <pt x="151" y="787" on="0"/>
        <pt x="135" y="757" on="1"/>
        <pt x="122" y="765" on="1"/>
        <pt x="142" y="804" on="0"/>
        <pt x="176" y="805" on="1"/>
      </contour>
      <contour>
        <pt x="57" y="0" on="1"/>
        <pt x="37" y="0" on="1"/>
        <pt x="206" y="701" on="1"/>
        <pt x="237" y="701" on="1"/>
        <pt x="410" y="0" on="1"/>
        <pt x="388" y="0" on="1"/>
        <pt x="347" y="165" on="1"/>
        <pt x="98" y="165" on="1"/>
      </contour>
      <contour>
        <pt x="343" y="185" on="1"/>
        <pt x="221" y="675" on="1"/>
        <pt x="102" y="185" on="1"/>
      </contour>
    </TTGlyph>
    <TTGlyph name="b" xMin="40" yMin="0" xMax="329" yMax="700">
      <contour>
        <pt x="254" y="700" on="0"/>
        <pt x="315" y="629" on="0"/>
        <pt x="315" y="555" on="1"/>
        <pt x="315" y="510" on="1"/>
        <pt x="315" y="448" on="0"/>
        <pt x="271" y="382" on="0"/>
        <pt x="215" y="373" on="1"/>
        <pt x="329" y="357" on="0"/>
        <pt x="329" y="223" on="1"/>
        <pt x="329" y="161" on="1"/>
        <pt x="329" y="0" on="0"/>
        <pt x="181" y="0" on="1"/>
        <pt x="40" y="0" on="1"/>
        <pt x="40" y="700" on="1"/>
        <pt x="180" y="700" on="1"/>
      </contour>
      <contour>
        <pt x="204" y="382" on="0"/>
        <pt x="264" y="403" on="0"/>
        <pt x="293" y="457" on="0"/>
        <pt x="293" y="507" on="1"/>
        <pt x="293" y="554" on="1"/>
        <pt x="293" y="619" on="0"/>
        <pt x="243" y="679" on="0"/>
        <pt x="180" y="679" on="1"/>
        <pt x="62" y="679" on="1"/>
        <pt x="62" y="382" on="1"/>
        <pt x="153" y="382" on="1"/>
      </contour>
      <contour>
        <pt x="248" y="21" on="0"/>
        <pt x="307" y="92" on="0"/>
        <pt x="307" y="161" on="1"/>
        <pt x="307" y="224" on="1"/>
        <pt x="307" y="298" on="0"/>
        <pt x="237" y="362" on="0"/>
        <pt x="163" y="362" on="1"/>
        <pt x="62" y="362" on="1"/>
        <pt x="62" y="21" on="1"/>
        <pt x="181" y="21" on="1"/>
      </contour>
    </TTGlyph>
    <TTGlyph name="backslash" xMin="36" yMin="0" xMax="332" yMax="700">
      <contour>
        <pt x="332" y="0" on="1"/>
        <pt x="312" y="0" on="1"/>
        <pt x="36" y="700" on="1"/>
        <pt x="56" y="700" on="1"/>
      </contour>
    </TTGlyph>
    <TTGlyph name="bar" xMin="69" yMin="-8" xMax="89" yMax="709">
      <contour>
        <pt x="89" y="-8" on="1"/>
        <pt x="69" y="-8" on="1"/>
        <pt x="69" y="709" on="1"/>
        <pt x="89" y="709" on="1"/>
      </contour>
    </TTGlyph>
    <TTGlyph name="braceleft" xMin="37" yMin="0" xMax="219" yMax="701">
      <contour>
        <pt x="158" y="681" on="0"/>
        <pt x="134" y="637" on="0"/>
        <pt x="131" y="594" on="1"/>
        <pt x="124" y="458" on="1"/>
        <pt x="122" y="412" on="0"/>
        <pt x="98" y="362" on="0"/>
        <pt x="59" y="350" on="1"/>
        <pt x="98" y="339" on="0"/>
        <pt x="122" y="288" on="0"/>
        <pt x="124" y="242" on="1"/>
        <pt x="131" y="107" on="1"/>
        <pt x="134" y="63" on="0"/>
        <pt x="158" y="20" on="0"/>
        <pt x="194" y="20" on="1"/>
        <pt x="219" y="20" on="1"/>
        <pt x="219" y="0" on="1"/>
        <pt x="189" y="0" on="1"/>
        <pt x="146" y="0" on="0"/>
        <pt x="113" y="53" on="0"/>
        <pt x="110" y="101" on="1"/>
        <pt x="103" y="240" on="1"/>
        <pt x="102" y="273" on="0"/>
        <pt x="93" y="308" on="0"/>
        <pt x="66" y="333" on="0"/>
        <pt x="37" y="338" on="1"/>
        <pt x="37" y="362" on="1"/>
        <pt x="66" y="368" on="0"/>
        <pt x="93" y="392" on="0"/>
        <pt x="102" y="428" on="0"/>
        <pt x="103" y="461" on="1"/>
        <pt x="110" y="600" on="1"/>
        <pt x="113" y="648" on="0"/>
        <pt x="146" y="701" on="0"/>
        <pt x="189" y="701" on="1"/>
        <pt x="219" y="701" on="1"/>
        <pt x="219" y="681" on="1"/>
        <pt x="194" y="681" on="1"/>
      </contour>
    </TTGlyph>
    <TTGlyph name="braceright" xMin="37" yMin="0" xMax="220" yMax="701">
      <contour>
        <pt x="110" y="701" on="0"/>
        <pt x="143" y="648" on="0"/>
        <pt x="146" y="600" on="1"/>
        <pt x="153" y="461" on="1"/>
        <pt x="154" y="428" on="0"/>
        <pt x="163" y="392" on="0"/>
        <pt x="191" y="368" on="0"/>
        <pt x="220" y="362" on="1"/>
        <pt x="220" y="338" on="1"/>
        <pt x="191" y="333" on="0"/>
        <pt x="163" y="308" on="0"/>
        <pt x="154" y="273" on="0"/>
        <pt x="153" y="240" on="1"/>
        <pt x="146" y="101" on="1"/>
        <pt x="143" y="52" on="0"/>
        <pt x="110" y="0" on="0"/>
        <pt x="67" y="0" on="1"/>
        <pt x="37" y="0" on="1"/>
        <pt x="37" y="20" on="1"/>
        <pt x="62" y="20" on="1"/>
        <pt x="98" y="20" on="0"/>
        <pt x="122" y="63" on="0"/>
        <pt x="125" y="107" on="1"/>
        <pt x="132" y="242" on="1"/>
        <pt x="134" y="288" on="0"/>
        <pt x="158" y="339" on="0"/>
        <pt x="197" y="350" on="1"/>
        <pt x="158" y="362" on="0"/>
        <pt x="134" y="412" on="0"/>
        <pt x="132" y="458" on="1"/>
        <pt x="125" y="594" on="1"/>
        <pt x="122" y="637" on="0"/>
        <pt x="98" y="681" on="0"/>
        <pt x="62" y="681" on="1"/>
        <pt x="37" y="681" on="1"/>
        <pt x="37" y="701" on="1"/>
        <pt x="67" y="701" on="1"/>
      </contour>
    </TTGlyph>
    <TTGlyph name="bracketleft" xMin="41" yMin="0" xMax="188" yMax="701">
      <contour>
        <pt x="188" y="0" on="1"/>
        <pt x="41" y="0" on="1"/>
        <pt x="41" y="701" on="1"/>
        <pt x="188" y="701" on="1"/>
        <pt x="188" y="681" on="1"/>
        <pt x="63" y="681" on="1"/>
        <pt x="63" y="20" on="1"/>
        <pt x="188" y="20" on="1"/>
      </contour>
    </TTGlyph>
    <TTGlyph name="bracketright" xMin="38" yMin="0" xMax="185" yMax="701">
      <contour>
        <pt x="163" y="681" on="1"/>
        <pt x="38" y="681" on="1"/>
        <pt x="38" y="701" on="1"/>
        <pt x="185" y="701" on="1"/>
        <pt x="185" y="0" on="1"/>
        <pt x="38" y="0" on="1"/>
        <pt x="38" y="20" on="1"/>
        <pt x="163" y="20" on="1"/>
      </contour>
    </TTGlyph>
    <TTGlyph name="breve" xMin="37" yMin="733" xMax="219" yMax="811">
      <contour>
        <pt x="218" y="775" on="0"/>
        <pt x="166" y="733" on="0"/>
        <pt x="128" y="733" on="1"/>
        <pt x="90" y="733" on="0"/>
        <pt x="38" y="774" on="0"/>
        <pt x="37" y="811" on="1"/>
        <pt x="53" y="811" on="1"/>
        <pt x="54" y="782" on="0"/>
        <pt x="98" y="750" on="0"/>
        <pt x="128" y="750" on="1"/>
        <pt x="158" y="750" on="0"/>
        <pt x="202" y="782" on="0"/>
        <pt x="203" y="811" on="1"/>
        <pt x="219" y="811" on="1"/>
      </contour>
    </TTGlyph>
    <TTGlyph name="brokenbar" xMin="69" yMin="-8" xMax="90" yMax="708">
      <contour>
        <pt x="90" y="708" on="1"/>
        <pt x="90" y="409" on="1"/>
        <pt x="69" y="409" on="1"/>
        <pt x="69" y="708" on="1"/>
      </contour>
      <contour>
        <pt x="90" y="291" on="1"/>
        <pt x="90" y="-8" on="1"/>
        <pt x="69" y="-8" on="1"/>
        <pt x="69" y="291" on="1"/>
      </contour>
    </TTGlyph>
    <TTGlyph name="bullet" xMin="60" yMin="303" xMax="153" yMax="397">
      <contour>
        <pt x="126" y="397" on="0"/>
        <pt x="153" y="370" on="0"/>
        <pt x="153" y="350" on="1"/>
        <pt x="153" y="331" on="0"/>
        <pt x="126" y="303" on="0"/>
        <pt x="106" y="303" on="1"/>
        <pt x="87" y="303" on="0"/>
        <pt x="60" y="331" on="0"/>
        <pt x="60" y="350" on="1"/>
        <pt x="60" y="369" on="0"/>
        <pt x="87" y="397" on="0"/>
        <pt x="106" y="397" on="1"/>
      </contour>
    </TTGlyph>
    <TTGlyph name="c" xMin="39" yMin="-5" xMax="332" yMax="705">
      <contour>
        <pt x="261" y="705" on="0"/>
        <pt x="332" y="607" on="0"/>
        <pt x="332" y="528" on="1"/>
        <pt x="332" y="474" on="1"/>
        <pt x="310" y="474" on="1"/>
        <pt x="310" y="529" on="1"/>
        <pt x="310" y="599" on="0"/>
        <pt x="251" y="685" on="0"/>
        <pt x="186" y="685" on="1"/>
        <pt x="121" y="685" on="0"/>
        <pt x="61" y="599" on="0"/>
        <pt x="61" y="529" on="1"/>
        <pt x="61" y="171" on="1"/>
        <pt x="61" y="101" on="0"/>
        <pt x="120" y="16" on="0"/>
        <pt x="186" y="16" on="1"/>
        <pt x="251" y="16" on="0"/>
        <pt x="310" y="101" on="0"/>
        <pt x="310" y="171" on="1"/>
        <pt x="310" y="248" on="1"/>
        <pt x="332" y="248" on="1"/>
        <pt x="332" y="172" on="1"/>
        <pt x="332" y="93" on="0"/>
        <pt x="261" y="-5" on="0"/>
        <pt x="185" y="-5" on="1"/>
        <pt x="110" y="-5" on="0"/>
        <pt x="39" y="93" on="0"/>
        <pt x="39" y="172" on="1"/>
        <pt x="39" y="528" on="1"/>
        <pt x="39" y="607" on="0"/>
        <pt x="110" y="705" on="0"/>
        <pt x="185" y="705" on="1"/>
      </contour>
    </TTGlyph>
    <TTGlyph name="cacute" xMin="39" yMin="-5" xMax="332" yMax="839">
      <contour>
        <pt x="180" y="750" on="1"/>
        <pt x="160" y="750" on="1"/>
        <pt x="232" y="839" on="1"/>
        <pt x="258" y="839" on="1"/>
      </contour>
      <contour>
        <pt x="261" y="705" on="0"/>
        <pt x="332" y="607" on="0"/>
        <pt x="332" y="528" on="1"/>
        <pt x="332" y="474" on="1"/>
        <pt x="310" y="474" on="1"/>
        <pt x="310" y="529" on="1"/>
        <pt x="310" y="599" on="0"/>
        <pt x="251" y="685" on="0"/>
        <pt x="186" y="685" on="1"/>
        <pt x="121" y="685" on="0"/>
        <pt x="61" y="599" on="0"/>
        <pt x="61" y="529" on="1"/>
        <pt x="61" y="171" on="1"/>
        <pt x="61" y="101" on="0"/>
        <pt x="120" y="16" on="0"/>
        <pt x="186" y="16" on="1"/>
        <pt x="251" y="16" on="0"/>
        <pt x="310" y="101" on="0"/>
        <pt x="310" y="171" on="1"/>
        <pt x="310" y="248" on="1"/>
        <pt x="332" y="248" on="1"/>
        <pt x="332" y="172" on="1"/>
        <pt x="332" y="93" on="0"/>
        <pt x="261" y="-5" on="0"/>
        <pt x="185" y="-5" on="1"/>
        <pt x="110" y="-5" on="0"/>
        <pt x="39" y="93" on="0"/>
        <pt x="39" y="172" on="1"/>
        <pt x="39" y="528" on="1"/>
        <pt x="39" y="607" on="0"/>
        <pt x="110" y="705" on="0"/>
        <pt x="185" y="705" on="1"/>
      </contour>
    </TTGlyph>
    <TTGlyph name="caron" xMin="34" yMin="766" xMax="216" yMax="848">
      <contour>
        <pt x="125" y="781" on="1"/>
        <pt x="192" y="848" on="1"/>
        <pt x="216" y="848" on="1"/>
        <pt x="134" y="766" on="1"/>
        <pt x="116" y="766" on="1"/>
        <pt x="34" y="848" on="1"/>
        <pt x="57" y="848" on="1"/>
      </contour>
    </TTGlyph>
    <TTGlyph name="ccaron" xMin="39" yMin="-5" xMax="332" yMax="829">
      <contour>
        <pt x="192" y="762" on="1"/>
        <pt x="259" y="829" on="1"/>
        <pt x="284" y="829" on="1"/>
        <pt x="201" y="747" on="1"/>
        <pt x="183" y="747" on="1"/>
        <pt x="101" y="829" on="1"/>
        <pt x="124" y="829" on="1"/>
      </contour>
      <contour>
        <pt x="261" y="705" on="0"/>
        <pt x="332" y="607" on="0"/>
        <pt x="332" y="528" on="1"/>
        <pt x="332" y="474" on="1"/>
        <pt x="310" y="474" on="1"/>
        <pt x="310" y="529" on="1"/>
        <pt x="310" y="599" on="0"/>
        <pt x="251" y="685" on="0"/>
        <pt x="186" y="685" on="1"/>
        <pt x="121" y="685" on="0"/>
        <pt x="61" y="599" on="0"/>
        <pt x="61" y="529" on="1"/>
        <pt x="61" y="171" on="1"/>
        <pt x="61" y="101" on="0"/>
        <pt x="120" y="16" on="0"/>
        <pt x="186" y="16" on="1"/>
        <pt x="251" y="16" on="0"/>
        <pt x="310" y="101" on="0"/>
        <pt x="310" y="171" on="1"/>
        <pt x="310" y="248" on="1"/>
        <pt x="332" y="248" on="1"/>
        <pt x="332" y="172" on="1"/>
        <pt x="332" y="93" on="0"/>
        <pt x="261" y="-5" on="0"/>
        <pt x="185" y="-5" on="1"/>
        <pt x="110" y="-5" on="0"/>
        <pt x="39" y="93" on="0"/>
        <pt x="39" y="172" on="1"/>
        <pt x="39" y="528" on="1"/>
        <pt x="39" y="607" on="0"/>
        <pt x="110" y="705" on="0"/>
        <pt x="185" y="705" on="1"/>
      </contour>
    </TTGlyph>
    <TTGlyph name="ccedilla" xMin="39" yMin="-153" xMax="332" yMax="705">
      <contour>
        <pt x="261" y="705" on="0"/>
        <pt x="332" y="607" on="0"/>
        <pt x="332" y="528" on="1"/>
        <pt x="332" y="474" on="1"/>
        <pt x="310" y="474" on="1"/>
        <pt x="310" y="529" on="1"/>
        <pt x="310" y="599" on="0"/>
        <pt x="251" y="685" on="0"/>
        <pt x="186" y="685" on="1"/>
        <pt x="121" y="685" on="0"/>
        <pt x="61" y="599" on="0"/>
        <pt x="61" y="529" on="1"/>
        <pt x="61" y="171" on="1"/>
        <pt x="61" y="101" on="0"/>
        <pt x="120" y="16" on="0"/>
        <pt x="186" y="16" on="1"/>
        <pt x="251" y="16" on="0"/>
        <pt x="310" y="101" on="0"/>
        <pt x="310" y="171" on="1"/>
        <pt x="310" y="248" on="1"/>
        <pt x="332" y="248" on="1"/>
        <pt x="332" y="172" on="1"/>
        <pt x="332" y="95" on="0"/>
        <pt x="263" y="-3" on="0"/>
        <pt x="192" y="-5" on="1"/>
        <pt x="192" y="-35" on="1"/>
        <pt x="224" y="-36" on="0"/>
        <pt x="267" y="-63" on="0"/>
        <pt x="267" y="-92" on="1"/>
        <pt x="267" y="-122" on="0"/>
        <pt x="218" y="-153" on="0"/>
        <pt x="186" y="-153" on="1"/>
        <pt x="152" y="-153" on="0"/>
        <pt x="98" y="-122" on="0"/>
        <pt x="98" y="-92" on="1"/>
        <pt x="98" y="-88" on="1"/>
        <pt x="114" y="-88" on="1"/>
        <pt x="114" y="-91" on="1"/>
        <pt x="114" y="-115" on="0"/>
        <pt x="156" y="-137" on="0"/>
        <pt x="183" y="-138" on="1"/>
        <pt x="208" y="-138" on="0"/>
        <pt x="249" y="-115" on="0"/>
        <pt x="249" y="-92" on="1"/>
        <pt x="249" y="-66" on="0"/>
        <pt x="212" y="-49" on="0"/>
        <pt x="183" y="-49" on="1"/>
        <pt x="178" y="-49" on="1"/>
        <pt x="178" y="-5" on="1"/>
        <pt x="107" y="-2" on="0"/>
        <pt x="39" y="95" on="0"/>
        <pt x="39" y="172" on="1"/>
        <pt x="39" y="528" on="1"/>
        <pt x="39" y="607" on="0"/>
        <pt x="110" y="705" on="0"/>
        <pt x="185" y="705" on="1"/>
      </contour>
    </TTGlyph>
    <TTGlyph name="ccircumflex" xMin="39" yMin="-5" xMax="332" yMax="828">
      <contour>
        <pt x="99" y="746" on="1"/>
        <pt x="181" y="828" on="1"/>
        <pt x="199" y="828" on="1"/>
        <pt x="282" y="746" on="1"/>
        <pt x="257" y="746" on="1"/>
        <pt x="190" y="812" on="1"/>
        <pt x="123" y="746" on="1"/>
      </contour>
      <contour>
        <pt x="261" y="705" on="0"/>
        <pt x="332" y="607" on="0"/>
        <pt x="332" y="528" on="1"/>
        <pt x="332" y="474" on="1"/>
        <pt x="310" y="474" on="1"/>
        <pt x="310" y="529" on="1"/>
        <pt x="310" y="599" on="0"/>
        <pt x="251" y="685" on="0"/>
        <pt x="186" y="685" on="1"/>
        <pt x="121" y="685" on="0"/>
        <pt x="61" y="599" on="0"/>
        <pt x="61" y="529" on="1"/>
        <pt x="61" y="171" on="1"/>
        <pt x="61" y="101" on="0"/>
        <pt x="120" y="16" on="0"/>
        <pt x="186" y="16" on="1"/>
        <pt x="251" y="16" on="0"/>
        <pt x="310" y="101" on="0"/>
        <pt x="310" y="171" on="1"/>
        <pt x="310" y="248" on="1"/>
        <pt x="332" y="248" on="1"/>
        <pt x="332" y="172" on="1"/>
        <pt x="332" y="93" on="0"/>
        <pt x="261" y="-5" on="0"/>
        <pt x="185" y="-5" on="1"/>
        <pt x="110" y="-5" on="0"/>
        <pt x="39" y="93" on="0"/>
        <pt x="39" y="172" on="1"/>
        <pt x="39" y="528" on="1"/>
        <pt x="39" y="607" on="0"/>
        <pt x="110" y="705" on="0"/>
        <pt x="185" y="705" on="1"/>
      </contour>
    </TTGlyph>
    <TTGlyph name="cdotaccent" xMin="39" yMin="-5" xMax="332" yMax="821">
      <contour>
        <pt x="195" y="741" on="1"/>
        <pt x="175" y="741" on="1"/>
        <pt x="175" y="821" on="1"/>
        <pt x="195" y="821" on="1"/>
      </contour>
      <contour>
        <pt x="261" y="705" on="0"/>
        <pt x="332" y="607" on="0"/>
        <pt x="332" y="528" on="1"/>
        <pt x="332" y="474" on="1"/>
        <pt x="310" y="474" on="1"/>
        <pt x="310" y="529" on="1"/>
        <pt x="310" y="599" on="0"/>
        <pt x="251" y="685" on="0"/>
        <pt x="186" y="685" on="1"/>
        <pt x="121" y="685" on="0"/>
        <pt x="61" y="599" on="0"/>
        <pt x="61" y="529" on="1"/>
        <pt x="61" y="171" on="1"/>
        <pt x="61" y="101" on="0"/>
        <pt x="120" y="16" on="0"/>
        <pt x="186" y="16" on="1"/>
        <pt x="251" y="16" on="0"/>
        <pt x="310" y="101" on="0"/>
        <pt x="310" y="171" on="1"/>
        <pt x="310" y="248" on="1"/>
        <pt x="332" y="248" on="1"/>
        <pt x="332" y="172" on="1"/>
        <pt x="332" y="93" on="0"/>
        <pt x="261" y="-5" on="0"/>
        <pt x="185" y="-5" on="1"/>
        <pt x="110" y="-5" on="0"/>
        <pt x="39" y="93" on="0"/>
        <pt x="39" y="172" on="1"/>
        <pt x="39" y="528" on="1"/>
        <pt x="39" y="607" on="0"/>
        <pt x="110" y="705" on="0"/>
        <pt x="185" y="705" on="1"/>
      </contour>
    </TTGlyph>
    <TTGlyph name="cedilla" xMin="38" yMin="-151" xMax="208" yMax="2">
      <contour>
        <pt x="167" y="-40" on="0"/>
        <pt x="208" y="-63" on="0"/>
        <pt x="208" y="-92" on="1"/>
        <pt x="208" y="-122" on="0"/>
        <pt x="160" y="-151" on="0"/>
        <pt x="127" y="-151" on="1"/>
        <pt x="92" y="-151" on="0"/>
        <pt x="38" y="-122" on="0"/>
        <pt x="38" y="-92" on="1"/>
        <pt x="38" y="-88" on="1"/>
        <pt x="56" y="-88" on="1"/>
        <pt x="56" y="-91" on="1"/>
        <pt x="56" y="-115" on="0"/>
        <pt x="98" y="-138" on="0"/>
        <pt x="124" y="-139" on="1"/>
        <pt x="149" y="-139" on="0"/>
        <pt x="190" y="-115" on="0"/>
        <pt x="190" y="-92" on="1"/>
        <pt x="190" y="-66" on="0"/>
        <pt x="153" y="-49" on="0"/>
        <pt x="124" y="-49" on="1"/>
        <pt x="119" y="-49" on="1"/>
        <pt x="119" y="2" on="1"/>
        <pt x="133" y="2" on="1"/>
        <pt x="133" y="-39" on="1"/>
      </contour>
    </TTGlyph>
    <TTGlyph name="cent" xMin="40" yMin="-2" xMax="331" yMax="702">
      <contour>
        <pt x="266" y="653" on="0"/>
        <pt x="331" y="562" on="0"/>
        <pt x="331" y="486" on="1"/>
        <pt x="331" y="461" on="1"/>
        <pt x="310" y="461" on="1"/>
        <pt x="310" y="487" on="1"/>
        <pt x="310" y="556" on="0"/>
        <pt x="251" y="636" on="0"/>
        <pt x="185" y="636" on="1"/>
        <pt x="120" y="636" on="0"/>
        <pt x="62" y="550" on="0"/>
        <pt x="62" y="481" on="1"/>
        <pt x="62" y="221" on="1"/>
        <pt x="62" y="152" on="0"/>
        <pt x="120" y="66" on="0"/>
        <pt x="185" y="66" on="1"/>
        <pt x="251" y="66" on="0"/>
        <pt x="310" y="150" on="0"/>
        <pt x="310" y="219" on="1"/>
        <pt x="310" y="264" on="1"/>
        <pt x="331" y="264" on="1"/>
        <pt x="331" y="220" on="1"/>
        <pt x="331" y="144" on="0"/>
        <pt x="265" y="49" on="0"/>
        <pt x="195" y="46" on="1"/>
        <pt x="195" y="-2" on="1"/>
        <pt x="175" y="-2" on="1"/>
        <pt x="175" y="46" on="1"/>
        <pt x="105" y="49" on="0"/>
        <pt x="40" y="146" on="0"/>
        <pt x="40" y="222" on="1"/>
        <pt x="40" y="480" on="1"/>
        <pt x="40" y="556" on="0"/>
        <pt x="105" y="652" on="0"/>
        <pt x="175" y="656" on="1"/>
        <pt x="175" y="702" on="1"/>
        <pt x="195" y="702" on="1"/>
        <pt x="195" y="656" on="1"/>
      </contour>
    </TTGlyph>
    <TTGlyph name="circumflex" xMin="34" yMin="766" xMax="216" yMax="848">
      <contour>
        <pt x="34" y="766" on="1"/>
        <pt x="116" y="848" on="1"/>
        <pt x="134" y="848" on="1"/>
        <pt x="216" y="766" on="1"/>
        <pt x="192" y="766" on="1"/>
        <pt x="125" y="832" on="1"/>
        <pt x="57" y="766" on="1"/>
      </contour>
    </TTGlyph>
    <TTGlyph name="colon" xMin="40" yMin="0" xMax="62" yMax="462">
      <contour>
        <pt x="62" y="381" on="1"/>
        <pt x="40" y="381" on="1"/>
        <pt x="40" y="462" on="1"/>
        <pt x="62" y="462" on="1"/>
      </contour>
      <contour>
        <pt x="62" y="0" on="1"/>
        <pt x="40" y="0" on="1"/>
        <pt x="40" y="81" on="1"/>
        <pt x="62" y="81" on="1"/>
      </contour>
    </TTGlyph>
    <TTGlyph name="comma" xMin="42" yMin="-67" xMax="75" yMax="81">
      <contour>
        <pt x="53" y="81" on="1"/>
        <pt x="75" y="81" on="1"/>
        <pt x="75" y="1" on="1"/>
        <pt x="53" y="-67" on="1"/>
        <pt x="42" y="-67" on="1"/>
        <pt x="53" y="0" on="1"/>
      </contour>
    </TTGlyph>
    <TTGlyph name="copyright" xMin="38" yMin="3" xMax="714" yMax="697">
      <contour>
        <pt x="473" y="697" on="0"/>
        <pt x="627" y="606" on="0"/>
        <pt x="714" y="448" on="0"/>
        <pt x="714" y="350" on="1"/>
        <pt x="714" y="252" on="0"/>
        <pt x="627" y="94" on="0"/>
        <pt x="473" y="3" on="0"/>
        <pt x="376" y="3" on="1"/>
        <pt x="279" y="3" on="0"/>
        <pt x="125" y="94" on="0"/>
        <pt x="38" y="252" on="0"/>
        <pt x="38" y="350" on="1"/>
        <pt x="38" y="448" on="0"/>
        <pt x="125" y="606" on="0"/>
        <pt x="279" y="697" on="0"/>
        <pt x="376" y="697" on="1"/>
      </contour>
      <contour>
        <pt x="284" y="680" on="0"/>
        <pt x="137" y="593" on="0"/>
        <pt x="55" y="442" on="0"/>
        <pt x="55" y="350" on="1"/>
        <pt x="55" y="258" on="0"/>
        <pt x="137" y="106" on="0"/>
        <pt x="284" y="19" on="0"/>
        <pt x="376" y="19" on="1"/>
        <pt x="468" y="19" on="0"/>
        <pt x="615" y="106" on="0"/>
        <pt x="697" y="258" on="0"/>
        <pt x="697" y="350" on="1"/>
        <pt x="697" y="442" on="0"/>
        <pt x="615" y="593" on="0"/>
        <pt x="468" y="680" on="0"/>
        <pt x="376" y="680" on="1"/>
      </contour>
      <contour>
        <pt x="424" y="569" on="0"/>
        <pt x="473" y="501" on="0"/>
        <pt x="473" y="446" on="1"/>
        <pt x="473" y="427" on="1"/>
        <pt x="456" y="427" on="1"/>
        <pt x="456" y="447" on="1"/>
        <pt x="456" y="494" on="0"/>
        <pt x="416" y="552" on="0"/>
        <pt x="372" y="552" on="1"/>
        <pt x="328" y="552" on="0"/>
        <pt x="287" y="494" on="0"/>
        <pt x="287" y="447" on="1"/>
        <pt x="287" y="253" on="1"/>
        <pt x="287" y="206" on="0"/>
        <pt x="328" y="147" on="0"/>
        <pt x="372" y="147" on="1"/>
        <pt x="416" y="147" on="0"/>
        <pt x="456" y="206" on="0"/>
        <pt x="456" y="253" on="1"/>
        <pt x="456" y="282" on="1"/>
        <pt x="473" y="282" on="1"/>
        <pt x="473" y="254" on="1"/>
        <pt x="473" y="199" on="0"/>
        <pt x="424" y="130" on="0"/>
        <pt x="372" y="130" on="1"/>
        <pt x="320" y="130" on="0"/>
        <pt x="269" y="199" on="0"/>
        <pt x="269" y="254" on="1"/>
        <pt x="269" y="446" on="1"/>
        <pt x="269" y="501" on="0"/>
        <pt x="319" y="569" on="0"/>
        <pt x="372" y="569" on="1"/>
      </contour>
    </TTGlyph>
    <TTGlyph name="currency" xMin="39" yMin="224" xMax="293" yMax="476">
      <contour>
        <pt x="275" y="391" on="0"/>
        <pt x="275" y="350" on="1"/>
        <pt x="275" y="309" on="0"/>
        <pt x="248" y="279" on="1"/>
        <pt x="293" y="235" on="1"/>
        <pt x="281" y="224" on="1"/>
        <pt x="237" y="267" on="1"/>
        <pt x="206" y="241" on="0"/>
        <pt x="165" y="241" on="1"/>
        <pt x="126" y="241" on="0"/>
        <pt x="95" y="267" on="1"/>
        <pt x="50" y="224" on="1"/>
        <pt x="39" y="235" on="1"/>
        <pt x="83" y="278" on="1"/>
        <pt x="57" y="311" on="0"/>
        <pt x="57" y="350" on="1"/>
        <pt x="57" y="390" on="0"/>
        <pt x="83" y="421" on="1"/>
        <pt x="39" y="465" on="1"/>
        <pt x="50" y="476" on="1"/>
        <pt x="95" y="432" on="1"/>
        <pt x="125" y="459" on="0"/>
        <pt x="165" y="459" on="1"/>
        <pt x="207" y="459" on="0"/>
        <pt x="237" y="432" on="1"/>
        <pt x="281" y="476" on="1"/>
        <pt x="293" y="465" on="1"/>
        <pt x="248" y="421" on="1"/>
      </contour>
      <contour>
        <pt x="127" y="442" on="0"/>
        <pt x="73" y="388" on="0"/>
        <pt x="73" y="350" on="1"/>
        <pt x="73" y="312" on="0"/>
        <pt x="127" y="258" on="0"/>
        <pt x="165" y="258" on="1"/>
        <pt x="204" y="258" on="0"/>
        <pt x="258" y="312" on="0"/>
        <pt x="258" y="350" on="1"/>
        <pt x="258" y="388" on="0"/>
        <pt x="204" y="442" on="0"/>
        <pt x="165" y="442" on="1"/>
      </contour>
    </TTGlyph>
    <TTGlyph name="d" xMin="40" yMin="0" xMax="338" yMax="700">
      <contour>
        <pt x="263" y="700" on="0"/>
        <pt x="338" y="604" on="0"/>
        <pt x="338" y="525" on="1"/>
        <pt x="338" y="174" on="1"/>
        <pt x="338" y="95" on="0"/>
        <pt x="263" y="0" on="0"/>
        <pt x="187" y="0" on="1"/>
        <pt x="40" y="0" on="1"/>
        <pt x="40" y="700" on="1"/>
        <pt x="186" y="700" on="1"/>
      </contour>
      <contour>
        <pt x="253" y="21" on="0"/>
        <pt x="316" y="103" on="0"/>
        <pt x="316" y="173" on="1"/>
        <pt x="316" y="526" on="1"/>
        <pt x="316" y="596" on="0"/>
        <pt x="253" y="679" on="0"/>
        <pt x="186" y="679" on="1"/>
        <pt x="62" y="679" on="1"/>
        <pt x="62" y="21" on="1"/>
        <pt x="186" y="21" on="1"/>
      </contour>
    </TTGlyph>
    <TTGlyph name="dagger" xMin="38" yMin="-65" xMax="353" yMax="700">
      <contour>
        <pt x="353" y="492" on="1"/>
        <pt x="353" y="473" on="1"/>
        <pt x="206" y="473" on="1"/>
        <pt x="206" y="-65" on="1"/>
        <pt x="186" y="-65" on="1"/>
        <pt x="186" y="473" on="1"/>
        <pt x="38" y="473" on="1"/>
        <pt x="38" y="492" on="1"/>
        <pt x="186" y="492" on="1"/>
        <pt x="186" y="700" on="1"/>
        <pt x="206" y="700" on="1"/>
        <pt x="206" y="492" on="1"/>
      </contour>
    </TTGlyph>
    <TTGlyph name="daggerdbl" xMin="38" yMin="-65" xMax="353" yMax="700">
      <contour>
        <pt x="353" y="492" on="1"/>
        <pt x="353" y="473" on="1"/>
        <pt x="206" y="473" on="1"/>
        <pt x="206" y="164" on="1"/>
        <pt x="353" y="164" on="1"/>
        <pt x="353" y="144" on="1"/>
        <pt x="206" y="144" on="1"/>
        <pt x="206" y="-65" on="1"/>
        <pt x="186" y="-65" on="1"/>
        <pt x="186" y="144" on="1"/>
        <pt x="38" y="144" on="1"/>
        <pt x="38" y="164" on="1"/>
        <pt x="186" y="164" on="1"/>
        <pt x="186" y="473" on="1"/>
        <pt x="38" y="473" on="1"/>
        <pt x="38" y="492" on="1"/>
        <pt x="186" y="492" on="1"/>
        <pt x="186" y="700" on="1"/>
        <pt x="206" y="700" on="1"/>
        <pt x="206" y="492" on="1"/>
      </contour>
    </TTGlyph>
    <TTGlyph name="dcaron" xMin="40" yMin="0" xMax="338" yMax="823">
      <contour>
        <pt x="178" y="757" on="1"/>
        <pt x="245" y="823" on="1"/>
        <pt x="270" y="823" on="1"/>
        <pt x="187" y="741" on="1"/>
        <pt x="169" y="741" on="1"/>
        <pt x="87" y="823" on="1"/>
        <pt x="110" y="823" on="1"/>
      </contour>
      <contour>
        <pt x="263" y="700" on="0"/>
        <pt x="338" y="604" on="0"/>
        <pt x="338" y="525" on="1"/>
        <pt x="338" y="174" on="1"/>
        <pt x="338" y="95" on="0"/>
        <pt x="263" y="0" on="0"/>
        <pt x="187" y="0" on="1"/>
        <pt x="40" y="0" on="1"/>
        <pt x="40" y="700" on="1"/>
        <pt x="186" y="700" on="1"/>
      </contour>
      <contour>
        <pt x="253" y="21" on="0"/>
        <pt x="316" y="103" on="0"/>
        <pt x="316" y="173" on="1"/>
        <pt x="316" y="526" on="1"/>
        <pt x="316" y="596" on="0"/>
        <pt x="253" y="679" on="0"/>
        <pt x="186" y="679" on="1"/>
        <pt x="62" y="679" on="1"/>
        <pt x="62" y="21" on="1"/>
        <pt x="186" y="21" on="1"/>
      </contour>
    </TTGlyph>
    <TTGlyph name="dcroat" xMin="-5" yMin="0" xMax="338" yMax="700">
      <contour>
        <pt x="263" y="700" on="0"/>
        <pt x="338" y="604" on="0"/>
        <pt x="338" y="525" on="1"/>
        <pt x="338" y="174" on="1"/>
        <pt x="338" y="95" on="0"/>
        <pt x="263" y="0" on="0"/>
        <pt x="187" y="0" on="1"/>
        <pt x="40" y="0" on="1"/>
        <pt x="40" y="339" on="1"/>
        <pt x="-5" y="339" on="1"/>
        <pt x="-5" y="358" on="1"/>
        <pt x="40" y="358" on="1"/>
        <pt x="40" y="700" on="1"/>
        <pt x="186" y="700" on="1"/>
      </contour>
      <contour>
        <pt x="62" y="339" on="1"/>
        <pt x="62" y="21" on="1"/>
        <pt x="186" y="21" on="1"/>
        <pt x="253" y="21" on="0"/>
        <pt x="316" y="103" on="0"/>
        <pt x="316" y="173" on="1"/>
        <pt x="316" y="526" on="1"/>
        <pt x="316" y="596" on="0"/>
        <pt x="253" y="679" on="0"/>
        <pt x="186" y="679" on="1"/>
        <pt x="62" y="679" on="1"/>
        <pt x="62" y="358" on="1"/>
        <pt x="160" y="358" on="1"/>
        <pt x="160" y="339" on="1"/>
      </contour>
    </TTGlyph>
    <TTGlyph name="degree" xMin="37" yMin="581" xMax="166" yMax="708">
      <contour>
        <pt x="129" y="708" on="0"/>
        <pt x="166" y="672" on="0"/>
        <pt x="166" y="645" on="1"/>
        <pt x="166" y="618" on="0"/>
        <pt x="128" y="581" on="0"/>
        <pt x="102" y="581" on="1"/>
        <pt x="75" y="581" on="0"/>
        <pt x="37" y="618" on="0"/>
        <pt x="37" y="645" on="1"/>
        <pt x="37" y="672" on="0"/>
        <pt x="75" y="708" on="0"/>
        <pt x="102" y="708" on="1"/>
      </contour>
      <contour>
        <pt x="81" y="693" on="0"/>
        <pt x="52" y="666" on="0"/>
        <pt x="52" y="645" on="1"/>
        <pt x="52" y="624" on="0"/>
        <pt x="81" y="596" on="0"/>
        <pt x="102" y="596" on="1"/>
        <pt x="123" y="596" on="0"/>
        <pt x="152" y="624" on="0"/>
        <pt x="152" y="645" on="1"/>
        <pt x="152" y="666" on="0"/>
        <pt x="123" y="693" on="0"/>
        <pt x="102" y="693" on="1"/>
      </contour>
    </TTGlyph>
    <TTGlyph name="dieresis" xMin="54" yMin="748" xMax="114" yMax="829">
      <contour>
        <pt x="74" y="748" on="1"/>
        <pt x="54" y="748" on="1"/>
        <pt x="54" y="829" on="1"/>
        <pt x="74" y="829" on="1"/>
      </contour>
      <contour>
        <pt x="114" y="748" on="1"/>
        <pt x="93" y="748" on="1"/>
        <pt x="93" y="829" on="1"/>
        <pt x="114" y="829" on="1"/>
      </contour>
    </TTGlyph>
    <TTGlyph name="divide" xMin="38" yMin="222" xMax="233" yMax="478">
      <contour>
        <pt x="145" y="397" on="1"/>
        <pt x="124" y="397" on="1"/>
        <pt x="124" y="478" on="1"/>
        <pt x="145" y="478" on="1"/>
      </contour>
      <contour>
        <pt x="233" y="342" on="1"/>
        <pt x="38" y="342" on="1"/>
        <pt x="38" y="359" on="1"/>
        <pt x="233" y="359" on="1"/>
      </contour>
      <contour>
        <pt x="145" y="222" on="1"/>
        <pt x="124" y="222" on="1"/>
        <pt x="124" y="304" on="1"/>
        <pt x="145" y="304" on="1"/>
      </contour>
    </TTGlyph>
    <TTGlyph name="dollar" xMin="39" yMin="-61" xMax="332" yMax="767">
      <contour>
        <pt x="266" y="700" on="0"/>
        <pt x="331" y="605" on="0"/>
        <pt x="331" y="530" on="1"/>
        <pt x="331" y="517" on="1"/>
        <pt x="310" y="517" on="1"/>
        <pt x="310" y="531" on="1"/>
        <pt x="310" y="599" on="0"/>
        <pt x="251" y="683" on="0"/>
        <pt x="187" y="683" on="1"/>
        <pt x="123" y="683" on="0"/>
        <pt x="64" y="600" on="0"/>
        <pt x="64" y="532" on="1"/>
        <pt x="64" y="490" on="0"/>
        <pt x="99" y="428" on="0"/>
        <pt x="152" y="385" on="0"/>
        <pt x="195" y="357" on="1"/>
        <pt x="240" y="327" on="0"/>
        <pt x="295" y="281" on="0"/>
        <pt x="332" y="215" on="0"/>
        <pt x="332" y="170" on="1"/>
        <pt x="332" y="95" on="0"/>
        <pt x="266" y="0" on="0"/>
        <pt x="196" y="-4" on="1"/>
        <pt x="196" y="-61" on="1"/>
        <pt x="177" y="-61" on="1"/>
        <pt x="177" y="-4" on="1"/>
        <pt x="106" y="-1" on="0"/>
        <pt x="39" y="94" on="0"/>
        <pt x="39" y="170" on="1"/>
        <pt x="39" y="205" on="1"/>
        <pt x="61" y="205" on="1"/>
        <pt x="61" y="169" on="1"/>
        <pt x="61" y="100" on="0"/>
        <pt x="120" y="17" on="0"/>
        <pt x="185" y="17" on="1"/>
        <pt x="251" y="17" on="0"/>
        <pt x="310" y="100" on="0"/>
        <pt x="310" y="169" on="1"/>
        <pt x="310" y="210" on="0"/>
        <pt x="275" y="270" on="0"/>
        <pt x="224" y="313" on="0"/>
        <pt x="180" y="341" on="1"/>
        <pt x="134" y="371" on="0"/>
        <pt x="80" y="417" on="0"/>
        <pt x="42" y="485" on="0"/>
        <pt x="42" y="531" on="1"/>
        <pt x="42" y="608" on="0"/>
        <pt x="108" y="700" on="0"/>
        <pt x="177" y="704" on="1"/>
        <pt x="177" y="767" on="1"/>
        <pt x="196" y="767" on="1"/>
        <pt x="196" y="704" on="1"/>
      </contour>
    </TTGlyph>
    <TTGlyph name="dotaccent" xMin="44" yMin="753" xMax="65" yMax="833">
      <contour>
        <pt x="65" y="753" on="1"/>
        <pt x="44" y="753" on="1"/>
        <pt x="44" y="833" on="1"/>
        <pt x="65" y="833" on="1"/>
      </contour>
    </TTGlyph>
    <TTGlyph name="dotlessi" xMin="40" yMin="0" xMax="62" yMax="700">
      <contour>
        <pt x="62" y="0" on="1"/>
        <pt x="40" y="0" on="1"/>
        <pt x="40" y="700" on="1"/>
        <pt x="62" y="700" on="1"/>
      </contour>
    </TTGlyph>
    <TTGlyph name="e" xMin="40" yMin="0" xMax="307" yMax="700">
      <contour>
        <pt x="268" y="345" on="1"/>
        <pt x="62" y="345" on="1"/>
        <pt x="62" y="21" on="1"/>
        <pt x="307" y="21" on="1"/>
        <pt x="307" y="0" on="1"/>
        <pt x="40" y="0" on="1"/>
        <pt x="40" y="700" on="1"/>
        <pt x="307" y="700" on="1"/>
        <pt x="307" y="679" on="1"/>
        <pt x="62" y="679" on="1"/>
        <pt x="62" y="365" on="1"/>
        <pt x="268" y="365" on="1"/>
      </contour>
    </TTGlyph>
    <TTGlyph name="eacute" xMin="40" yMin="0" xMax="307" yMax="830">
      <contour>
        <pt x="165" y="741" on="1"/>
        <pt x="145" y="741" on="1"/>
        <pt x="217" y="830" on="1"/>
        <pt x="243" y="830" on="1"/>
      </contour>
      <contour>
        <pt x="268" y="345" on="1"/>
        <pt x="62" y="345" on="1"/>
        <pt x="62" y="21" on="1"/>
        <pt x="307" y="21" on="1"/>
        <pt x="307" y="0" on="1"/>
        <pt x="40" y="0" on="1"/>
        <pt x="40" y="700" on="1"/>
        <pt x="307" y="700" on="1"/>
        <pt x="307" y="679" on="1"/>
        <pt x="62" y="679" on="1"/>
        <pt x="62" y="365" on="1"/>
        <pt x="268" y="365" on="1"/>
      </contour>
    </TTGlyph>
    <TTGlyph name="ebreve" xMin="40" yMin="0" xMax="307" yMax="826">
      <contour>
        <pt x="263" y="790" on="0"/>
        <pt x="210" y="748" on="0"/>
        <pt x="172" y="748" on="1"/>
        <pt x="134" y="748" on="0"/>
        <pt x="82" y="789" on="0"/>
        <pt x="81" y="826" on="1"/>
        <pt x="98" y="826" on="1"/>
        <pt x="99" y="796" on="0"/>
        <pt x="141" y="765" on="0"/>
        <pt x="172" y="765" on="1"/>
        <pt x="203" y="765" on="0"/>
        <pt x="246" y="796" on="0"/>
        <pt x="247" y="826" on="1"/>
        <pt x="264" y="826" on="1"/>
      </contour>
      <contour>
        <pt x="268" y="345" on="1"/>
        <pt x="62" y="345" on="1"/>
        <pt x="62" y="21" on="1"/>
        <pt x="307" y="21" on="1"/>
        <pt x="307" y="0" on="1"/>
        <pt x="40" y="0" on="1"/>
        <pt x="40" y="700" on="1"/>
        <pt x="307" y="700" on="1"/>
        <pt x="307" y="679" on="1"/>
        <pt x="62" y="679" on="1"/>
        <pt x="62" y="365" on="1"/>
        <pt x="268" y="365" on="1"/>
      </contour>
    </TTGlyph>
    <TTGlyph name="ecaron" xMin="40" yMin="0" xMax="307" yMax="824">
      <contour>
        <pt x="177" y="758" on="1"/>
        <pt x="244" y="824" on="1"/>
        <pt x="269" y="824" on="1"/>
        <pt x="186" y="742" on="1"/>
        <pt x="168" y="742" on="1"/>
        <pt x="86" y="824" on="1"/>
        <pt x="110" y="824" on="1"/>
      </contour>
      <contour>
        <pt x="268" y="345" on="1"/>
        <pt x="62" y="345" on="1"/>
        <pt x="62" y="21" on="1"/>
        <pt x="307" y="21" on="1"/>
        <pt x="307" y="0" on="1"/>
        <pt x="40" y="0" on="1"/>
        <pt x="40" y="700" on="1"/>
        <pt x="307" y="700" on="1"/>
        <pt x="307" y="679" on="1"/>
        <pt x="62" y="679" on="1"/>
        <pt x="62" y="365" on="1"/>
        <pt x="268" y="365" on="1"/>
      </contour>
    </TTGlyph>
    <TTGlyph name="ecircumflex" xMin="40" yMin="0" xMax="307" yMax="825">
      <contour>
        <pt x="82" y="743" on="1"/>
        <pt x="164" y="825" on="1"/>
        <pt x="182" y="825" on="1"/>
        <pt x="265" y="743" on="1"/>
        <pt x="240" y="743" on="1"/>
        <pt x="173" y="810" on="1"/>
        <pt x="105" y="743" on="1"/>
      </contour>
      <contour>
        <pt x="268" y="345" on="1"/>
        <pt x="62" y="345" on="1"/>
        <pt x="62" y="21" on="1"/>
        <pt x="307" y="21" on="1"/>
        <pt x="307" y="0" on="1"/>
        <pt x="40" y="0" on="1"/>
        <pt x="40" y="700" on="1"/>
        <pt x="307" y="700" on="1"/>
        <pt x="307" y="679" on="1"/>
        <pt x="62" y="679" on="1"/>
        <pt x="62" y="365" on="1"/>
        <pt x="268" y="365" on="1"/>
      </contour>
    </TTGlyph>
    <TTGlyph name="edieresis" xMin="40" yMin="0" xMax="307" yMax="822">
      <contour>
        <pt x="145" y="741" on="1"/>
        <pt x="125" y="741" on="1"/>
        <pt x="125" y="822" on="1"/>
        <pt x="145" y="822" on="1"/>
      </contour>
      <contour>
        <pt x="221" y="741" on="1"/>
        <pt x="201" y="741" on="1"/>
        <pt x="201" y="822" on="1"/>
        <pt x="221" y="822" on="1"/>
      </contour>
      <contour>
        <pt x="268" y="345" on="1"/>
        <pt x="62" y="345" on="1"/>
        <pt x="62" y="21" on="1"/>
        <pt x="307" y="21" on="1"/>
        <pt x="307" y="0" on="1"/>
        <pt x="40" y="0" on="1"/>
        <pt x="40" y="700" on="1"/>
        <pt x="307" y="700" on="1"/>
        <pt x="307" y="679" on="1"/>
        <pt x="62" y="679" on="1"/>
        <pt x="62" y="365" on="1"/>
        <pt x="268" y="365" on="1"/>
      </contour>
    </TTGlyph>
    <TTGlyph name="edotaccent" xMin="40" yMin="0" xMax="307" yMax="824">
      <contour>
        <pt x="187" y="744" on="1"/>
        <pt x="166" y="744" on="1"/>
        <pt x="166" y="824" on="1"/>
        <pt x="187" y="824" on="1"/>
      </contour>
      <contour>
        <pt x="268" y="345" on="1"/>
        <pt x="62" y="345" on="1"/>
        <pt x="62" y="21" on="1"/>
        <pt x="307" y="21" on="1"/>
        <pt x="307" y="0" on="1"/>
        <pt x="40" y="0" on="1"/>
        <pt x="40" y="700" on="1"/>
        <pt x="307" y="700" on="1"/>
        <pt x="307" y="679" on="1"/>
        <pt x="62" y="679" on="1"/>
        <pt x="62" y="365" on="1"/>
        <pt x="268" y="365" on="1"/>
      </contour>
    </TTGlyph>
    <TTGlyph name="egrave" xMin="40" yMin="0" xMax="307" yMax="840">
      <contour>
        <pt x="215" y="751" on="1"/>
        <pt x="194" y="751" on="1"/>
        <pt x="116" y="840" on="1"/>
        <pt x="142" y="840" on="1"/>
      </contour>
      <contour>
        <pt x="268" y="345" on="1"/>
        <pt x="62" y="345" on="1"/>
        <pt x="62" y="21" on="1"/>
        <pt x="307" y="21" on="1"/>
        <pt x="307" y="0" on="1"/>
        <pt x="40" y="0" on="1"/>
        <pt x="40" y="700" on="1"/>
        <pt x="307" y="700" on="1"/>
        <pt x="307" y="679" on="1"/>
        <pt x="62" y="679" on="1"/>
        <pt x="62" y="365" on="1"/>
        <pt x="268" y="365" on="1"/>
      </contour>
    </TTGlyph>
    <TTGlyph name="eight" xMin="38" yMin="-5" xMax="346" yMax="705">
      <contour>
        <pt x="268" y="705" on="0"/>
        <pt x="346" y="615" on="0"/>
        <pt x="346" y="538" on="1"/>
        <pt x="346" y="515" on="1"/>
        <pt x="346" y="457" on="0"/>
        <pt x="297" y="377" on="0"/>
        <pt x="245" y="366" on="1"/>
        <pt x="346" y="343" on="0"/>
        <pt x="346" y="214" on="1"/>
        <pt x="346" y="167" on="1"/>
        <pt x="346" y="88" on="0"/>
        <pt x="269" y="-5" on="0"/>
        <pt x="192" y="-5" on="1"/>
        <pt x="115" y="-5" on="0"/>
        <pt x="38" y="88" on="0"/>
        <pt x="38" y="167" on="1"/>
        <pt x="38" y="214" on="1"/>
        <pt x="38" y="276" on="0"/>
        <pt x="86" y="353" on="0"/>
        <pt x="142" y="366" on="1"/>
        <pt x="38" y="389" on="0"/>
        <pt x="38" y="515" on="1"/>
        <pt x="38" y="538" on="1"/>
        <pt x="38" y="615" on="0"/>
        <pt x="117" y="705" on="0"/>
        <pt x="192" y="705" on="1"/>
      </contour>
      <contour>
        <pt x="127" y="685" on="0"/>
        <pt x="60" y="606" on="0"/>
        <pt x="60" y="538" on="1"/>
        <pt x="60" y="513" on="1"/>
        <pt x="60" y="446" on="0"/>
        <pt x="127" y="375" on="0"/>
        <pt x="192" y="375" on="1"/>
        <pt x="258" y="375" on="0"/>
        <pt x="324" y="445" on="0"/>
        <pt x="324" y="513" on="1"/>
        <pt x="324" y="538" on="1"/>
        <pt x="324" y="606" on="0"/>
        <pt x="257" y="685" on="0"/>
        <pt x="192" y="685" on="1"/>
      </contour>
      <contour>
        <pt x="60" y="355" on="0"/>
        <pt x="60" y="216" on="1"/>
        <pt x="60" y="167" on="1"/>
        <pt x="60" y="97" on="0"/>
        <pt x="126" y="15" on="0"/>
        <pt x="192" y="15" on="1"/>
        <pt x="258" y="15" on="0"/>
        <pt x="324" y="97" on="0"/>
        <pt x="324" y="167" on="1"/>
        <pt x="324" y="216" on="1"/>
        <pt x="324" y="285" on="0"/>
        <pt x="259" y="355" on="0"/>
        <pt x="192" y="355" on="1"/>
      </contour>
    </TTGlyph>
    <TTGlyph name="eight.alt" xMin="38" yMin="-5" xMax="346" yMax="705">
      <contour>
        <pt x="268" y="705" on="0"/>
        <pt x="346" y="615" on="0"/>
        <pt x="346" y="538" on="1"/>
        <pt x="346" y="515" on="1"/>
        <pt x="346" y="457" on="0"/>
        <pt x="297" y="377" on="0"/>
        <pt x="245" y="366" on="1"/>
        <pt x="346" y="343" on="0"/>
        <pt x="346" y="214" on="1"/>
        <pt x="346" y="167" on="1"/>
        <pt x="346" y="88" on="0"/>
        <pt x="269" y="-5" on="0"/>
        <pt x="192" y="-5" on="1"/>
        <pt x="115" y="-5" on="0"/>
        <pt x="38" y="88" on="0"/>
        <pt x="38" y="167" on="1"/>
        <pt x="38" y="214" on="1"/>
        <pt x="38" y="276" on="0"/>
        <pt x="87" y="353" on="0"/>
        <pt x="142" y="366" on="1"/>
        <pt x="38" y="390" on="0"/>
        <pt x="38" y="515" on="1"/>
        <pt x="38" y="538" on="1"/>
        <pt x="38" y="615" on="0"/>
        <pt x="117" y="705" on="0"/>
        <pt x="192" y="705" on="1"/>
      </contour>
      <contour>
        <pt x="127" y="685" on="0"/>
        <pt x="60" y="606" on="0"/>
        <pt x="60" y="538" on="1"/>
        <pt x="60" y="513" on="1"/>
        <pt x="60" y="446" on="0"/>
        <pt x="127" y="375" on="0"/>
        <pt x="192" y="375" on="1"/>
        <pt x="258" y="375" on="0"/>
        <pt x="324" y="445" on="0"/>
        <pt x="324" y="513" on="1"/>
        <pt x="324" y="538" on="1"/>
        <pt x="324" y="606" on="0"/>
        <pt x="258" y="685" on="0"/>
        <pt x="192" y="685" on="1"/>
      </contour>
      <contour>
        <pt x="60" y="355" on="0"/>
        <pt x="60" y="216" on="1"/>
        <pt x="60" y="167" on="1"/>
        <pt x="60" y="97" on="0"/>
        <pt x="126" y="15" on="0"/>
        <pt x="192" y="15" on="1"/>
        <pt x="258" y="15" on="0"/>
        <pt x="324" y="97" on="0"/>
        <pt x="324" y="167" on="1"/>
        <pt x="324" y="216" on="1"/>
        <pt x="324" y="285" on="0"/>
        <pt x="259" y="355" on="0"/>
        <pt x="192" y="355" on="1"/>
      </contour>
    </TTGlyph>
    <TTGlyph name="ellipsis" xMin="40" yMin="0" xMax="170" yMax="81">
      <contour>
        <pt x="62" y="0" on="1"/>
        <pt x="40" y="0" on="1"/>
        <pt x="40" y="81" on="1"/>
        <pt x="62" y="81" on="1"/>
      </contour>
      <contour>
        <pt x="115" y="0" on="1"/>
        <pt x="94" y="0" on="1"/>
        <pt x="94" y="81" on="1"/>
        <pt x="115" y="81" on="1"/>
      </contour>
      <contour>
        <pt x="170" y="0" on="1"/>
        <pt x="149" y="0" on="1"/>
        <pt x="149" y="81" on="1"/>
        <pt x="170" y="81" on="1"/>
      </contour>
    </TTGlyph>
    <TTGlyph name="emacron" xMin="40" yMin="0" xMax="307" yMax="787">
      <contour>
        <pt x="256" y="770" on="1"/>
        <pt x="84" y="770" on="1"/>
        <pt x="84" y="787" on="1"/>
        <pt x="256" y="787" on="1"/>
      </contour>
      <contour>
        <pt x="268" y="345" on="1"/>
        <pt x="62" y="345" on="1"/>
        <pt x="62" y="21" on="1"/>
        <pt x="307" y="21" on="1"/>
        <pt x="307" y="0" on="1"/>
        <pt x="40" y="0" on="1"/>
        <pt x="40" y="700" on="1"/>
        <pt x="307" y="700" on="1"/>
        <pt x="307" y="679" on="1"/>
        <pt x="62" y="679" on="1"/>
        <pt x="62" y="365" on="1"/>
        <pt x="268" y="365" on="1"/>
      </contour>
    </TTGlyph>
    <TTGlyph name="emdash" xMin="35" yMin="341" xMax="512" yMax="360">
      <contour>
        <pt x="512" y="360" on="1"/>
        <pt x="512" y="341" on="1"/>
        <pt x="35" y="341" on="1"/>
        <pt x="35" y="360" on="1"/>
      </contour>
    </TTGlyph>
    <TTGlyph name="endash" xMin="35" yMin="341" xMax="351" yMax="360">
      <contour>
        <pt x="351" y="360" on="1"/>
        <pt x="351" y="341" on="1"/>
        <pt x="35" y="341" on="1"/>
        <pt x="35" y="360" on="1"/>
      </contour>
    </TTGlyph>
    <TTGlyph name="eogonek" xMin="40" yMin="-137" xMax="328" yMax="700">
      <contour>
        <pt x="268" y="345" on="1"/>
        <pt x="62" y="345" on="1"/>
        <pt x="62" y="21" on="1"/>
        <pt x="307" y="21" on="1"/>
        <pt x="307" y="0" on="1"/>
        <pt x="289" y="0" on="1"/>
        <pt x="270" y="-14" on="0"/>
        <pt x="240" y="-64" on="0"/>
        <pt x="240" y="-85" on="1"/>
        <pt x="240" y="-103" on="0"/>
        <pt x="263" y="-121" on="0"/>
        <pt x="281" y="-121" on="1"/>
        <pt x="310" y="-121" on="0"/>
        <pt x="328" y="-106" on="1"/>
        <pt x="328" y="-124" on="1"/>
        <pt x="306" y="-137" on="0"/>
        <pt x="276" y="-137" on="1"/>
        <pt x="252" y="-136" on="0"/>
        <pt x="221" y="-112" on="0"/>
        <pt x="221" y="-87" on="1"/>
        <pt x="221" y="-65" on="0"/>
        <pt x="250" y="-18" on="0"/>
        <pt x="269" y="0" on="1"/>
        <pt x="40" y="0" on="1"/>
        <pt x="40" y="700" on="1"/>
        <pt x="307" y="700" on="1"/>
        <pt x="307" y="679" on="1"/>
        <pt x="62" y="679" on="1"/>
        <pt x="62" y="365" on="1"/>
        <pt x="268" y="365" on="1"/>
      </contour>
    </TTGlyph>
    <TTGlyph name="equal" xMin="39" yMin="307" xMax="232" yMax="431">
      <contour>
        <pt x="232" y="414" on="1"/>
        <pt x="39" y="414" on="1"/>
        <pt x="39" y="431" on="1"/>
        <pt x="232" y="431" on="1"/>
      </contour>
      <contour>
        <pt x="232" y="307" on="1"/>
        <pt x="39" y="307" on="1"/>
        <pt x="39" y="324" on="1"/>
        <pt x="232" y="324" on="1"/>
      </contour>
    </TTGlyph>
    <TTGlyph name="eth" xMin="-5" yMin="0" xMax="338" yMax="700">
      <contour>
        <pt x="263" y="700" on="0"/>
        <pt x="338" y="604" on="0"/>
        <pt x="338" y="525" on="1"/>
        <pt x="338" y="174" on="1"/>
        <pt x="338" y="95" on="0"/>
        <pt x="263" y="0" on="0"/>
        <pt x="187" y="0" on="1"/>
        <pt x="40" y="0" on="1"/>
        <pt x="40" y="339" on="1"/>
        <pt x="-5" y="339" on="1"/>
        <pt x="-5" y="358" on="1"/>
        <pt x="40" y="358" on="1"/>
        <pt x="40" y="700" on="1"/>
        <pt x="186" y="700" on="1"/>
      </contour>
      <contour>
        <pt x="62" y="339" on="1"/>
        <pt x="62" y="21" on="1"/>
        <pt x="186" y="21" on="1"/>
        <pt x="253" y="21" on="0"/>
        <pt x="316" y="103" on="0"/>
        <pt x="316" y="173" on="1"/>
        <pt x="316" y="526" on="1"/>
        <pt x="316" y="596" on="0"/>
        <pt x="253" y="679" on="0"/>
        <pt x="186" y="679" on="1"/>
        <pt x="62" y="679" on="1"/>
        <pt x="62" y="358" on="1"/>
        <pt x="160" y="358" on="1"/>
        <pt x="160" y="339" on="1"/>
      </contour>
    </TTGlyph>
    <TTGlyph name="exclam" xMin="40" yMin="0" xMax="62" yMax="701">
      <contour>
        <pt x="40" y="701" on="1"/>
        <pt x="62" y="701" on="1"/>
        <pt x="62" y="308" on="1"/>
        <pt x="59" y="155" on="1"/>
        <pt x="43" y="155" on="1"/>
        <pt x="40" y="308" on="1"/>
      </contour>
      <contour>
        <pt x="62" y="0" on="1"/>
        <pt x="40" y="0" on="1"/>
        <pt x="40" y="80" on="1"/>
        <pt x="62" y="80" on="1"/>
      </contour>
    </TTGlyph>
    <TTGlyph name="exclamdown" xMin="40" yMin="0" xMax="62" yMax="701">
      <contour>
        <pt x="62" y="620" on="1"/>
        <pt x="40" y="620" on="1"/>
        <pt x="40" y="701" on="1"/>
        <pt x="62" y="701" on="1"/>
      </contour>
      <contour>
        <pt x="43" y="546" on="1"/>
        <pt x="59" y="546" on="1"/>
        <pt x="62" y="339" on="1"/>
        <pt x="62" y="0" on="1"/>
        <pt x="40" y="0" on="1"/>
        <pt x="40" y="339" on="1"/>
      </contour>
    </TTGlyph>
    <TTGlyph name="f" xMin="40" yMin="0" xMax="297" yMax="700">
      <contour>
        <pt x="258" y="327" on="1"/>
        <pt x="62" y="327" on="1"/>
        <pt x="62" y="0" on="1"/>
        <pt x="40" y="0" on="1"/>
        <pt x="40" y="700" on="1"/>
        <pt x="297" y="700" on="1"/>
        <pt x="297" y="679" on="1"/>
        <pt x="62" y="679" on="1"/>
        <pt x="62" y="348" on="1"/>
        <pt x="258" y="348" on="1"/>
      </contour>
    </TTGlyph>
    <TTGlyph name="figuredash" xMin="35" yMin="341" xMax="439" yMax="360">
      <contour>
        <pt x="439" y="360" on="1"/>
        <pt x="439" y="341" on="1"/>
        <pt x="35" y="341" on="1"/>
        <pt x="35" y="360" on="1"/>
      </contour>
    </TTGlyph>
    <TTGlyph name="five" xMin="39" yMin="-5" xMax="332" yMax="701">
      <contour>
        <pt x="92" y="423" on="0"/>
        <pt x="150" y="453" on="0"/>
        <pt x="191" y="453" on="1"/>
        <pt x="264" y="453" on="0"/>
        <pt x="332" y="356" on="0"/>
        <pt x="332" y="278" on="1"/>
        <pt x="332" y="172" on="1"/>
        <pt x="332" y="93" on="0"/>
        <pt x="261" y="-5" on="0"/>
        <pt x="186" y="-5" on="1"/>
        <pt x="111" y="-5" on="0"/>
        <pt x="39" y="93" on="0"/>
        <pt x="39" y="172" on="1"/>
        <pt x="39" y="202" on="1"/>
        <pt x="61" y="202" on="1"/>
        <pt x="61" y="172" on="1"/>
        <pt x="61" y="102" on="0"/>
        <pt x="120" y="16" on="0"/>
        <pt x="185" y="16" on="1"/>
        <pt x="250" y="16" on="0"/>
        <pt x="310" y="102" on="0"/>
        <pt x="310" y="172" on="1"/>
        <pt x="310" y="277" on="1"/>
        <pt x="310" y="346" on="0"/>
        <pt x="250" y="432" on="0"/>
        <pt x="185" y="432" on="1"/>
        <pt x="143" y="432" on="0"/>
        <pt x="83" y="388" on="0"/>
        <pt x="69" y="348" on="1"/>
        <pt x="69" y="340" on="1"/>
        <pt x="48" y="340" on="1"/>
        <pt x="66" y="701" on="1"/>
        <pt x="319" y="701" on="1"/>
        <pt x="319" y="680" on="1"/>
        <pt x="86" y="680" on="1"/>
        <pt x="72" y="391" on="1"/>
      </contour>
    </TTGlyph>
</ttFont>
